%TF.GenerationSoftware,KiCad,Pcbnew,7.0.11+dfsg-1build4*%
%TF.CreationDate,2026-01-16T21:01:49-05:00*%
%TF.ProjectId,tps6103x,74707336-3130-4337-982e-6b696361645f,rev?*%
%TF.SameCoordinates,Original*%
%TF.FileFunction,Soldermask,Top*%
%TF.FilePolarity,Negative*%
%FSLAX46Y46*%
G04 Gerber Fmt 4.6, Leading zero omitted, Abs format (unit mm)*
G04 Created by KiCad (PCBNEW 7.0.11+dfsg-1build4) date 2026-01-16 21:01:49*
%MOMM*%
%LPD*%
G01*
G04 APERTURE LIST*
G04 Aperture macros list*
%AMRoundRect*
0 Rectangle with rounded corners*
0 $1 Rounding radius*
0 $2 $3 $4 $5 $6 $7 $8 $9 X,Y pos of 4 corners*
0 Add a 4 corners polygon primitive as box body*
4,1,4,$2,$3,$4,$5,$6,$7,$8,$9,$2,$3,0*
0 Add four circle primitives for the rounded corners*
1,1,$1+$1,$2,$3*
1,1,$1+$1,$4,$5*
1,1,$1+$1,$6,$7*
1,1,$1+$1,$8,$9*
0 Add four rect primitives between the rounded corners*
20,1,$1+$1,$2,$3,$4,$5,0*
20,1,$1+$1,$4,$5,$6,$7,0*
20,1,$1+$1,$6,$7,$8,$9,0*
20,1,$1+$1,$8,$9,$2,$3,0*%
G04 Aperture macros list end*
%ADD10R,1.050000X0.450000*%
%ADD11R,3.400000X5.000000*%
%ADD12RoundRect,0.250000X-1.950000X-1.000000X1.950000X-1.000000X1.950000X1.000000X-1.950000X1.000000X0*%
%ADD13RoundRect,0.250000X0.350000X0.450000X-0.350000X0.450000X-0.350000X-0.450000X0.350000X-0.450000X0*%
%ADD14RoundRect,0.250000X-0.337500X-0.475000X0.337500X-0.475000X0.337500X0.475000X-0.337500X0.475000X0*%
%ADD15R,5.400000X2.800000*%
%ADD16RoundRect,0.250000X-0.350000X-0.450000X0.350000X-0.450000X0.350000X0.450000X-0.350000X0.450000X0*%
%ADD17R,1.700000X1.700000*%
%ADD18O,1.700000X1.700000*%
G04 APERTURE END LIST*
D10*
%TO.C,U1*%
X115225000Y-114725000D03*
X115225000Y-115375000D03*
X115225000Y-116025000D03*
X115225000Y-116675000D03*
X115225000Y-117325000D03*
X115225000Y-117975000D03*
X115225000Y-118625000D03*
X115225000Y-119275000D03*
X120775000Y-119275000D03*
X120775000Y-118625000D03*
X120775000Y-117975000D03*
X120775000Y-117325000D03*
X120775000Y-116675000D03*
X120775000Y-116025000D03*
X120775000Y-115375000D03*
X120775000Y-114725000D03*
D11*
X118000000Y-117000000D03*
%TD*%
D12*
%TO.C,C4*%
X103300000Y-129000000D03*
X110700000Y-129000000D03*
%TD*%
D13*
%TO.C,R3*%
X126460000Y-121920000D03*
X124460000Y-121920000D03*
%TD*%
D14*
%TO.C,C1*%
X116840000Y-124460000D03*
X118915000Y-124460000D03*
%TD*%
D15*
%TO.C,L1*%
X106680000Y-121900000D03*
X106680000Y-112100000D03*
%TD*%
D13*
%TO.C,R1*%
X126460000Y-106680000D03*
X124460000Y-106680000D03*
%TD*%
D16*
%TO.C,R5*%
X124460000Y-116840000D03*
X126460000Y-116840000D03*
%TD*%
D12*
%TO.C,C3*%
X103300000Y-105000000D03*
X110700000Y-105000000D03*
%TD*%
D16*
%TO.C,R4*%
X124460000Y-127000000D03*
X126460000Y-127000000D03*
%TD*%
D17*
%TO.C,J1*%
X132080000Y-111760000D03*
D18*
X132080000Y-114300000D03*
X132080000Y-116840000D03*
X132080000Y-119380000D03*
X132080000Y-121920000D03*
%TD*%
D14*
%TO.C,C2*%
X116840000Y-111760000D03*
X118915000Y-111760000D03*
%TD*%
D16*
%TO.C,R2*%
X124460000Y-111760000D03*
X126460000Y-111760000D03*
%TD*%
M02*
