%TF.GenerationSoftware,KiCad,Pcbnew,7.0.11+dfsg-1build4*%
%TF.CreationDate,2026-01-16T21:01:49-05:00*%
%TF.ProjectId,tps6103x,74707336-3130-4337-982e-6b696361645f,rev?*%
%TF.SameCoordinates,Original*%
%TF.FileFunction,Copper,L1,Top*%
%TF.FilePolarity,Positive*%
%FSLAX46Y46*%
G04 Gerber Fmt 4.6, Leading zero omitted, Abs format (unit mm)*
G04 Created by KiCad (PCBNEW 7.0.11+dfsg-1build4) date 2026-01-16 21:01:49*
%MOMM*%
%LPD*%
G01*
G04 APERTURE LIST*
G04 Aperture macros list*
%AMRoundRect*
0 Rectangle with rounded corners*
0 $1 Rounding radius*
0 $2 $3 $4 $5 $6 $7 $8 $9 X,Y pos of 4 corners*
0 Add a 4 corners polygon primitive as box body*
4,1,4,$2,$3,$4,$5,$6,$7,$8,$9,$2,$3,0*
0 Add four circle primitives for the rounded corners*
1,1,$1+$1,$2,$3*
1,1,$1+$1,$4,$5*
1,1,$1+$1,$6,$7*
1,1,$1+$1,$8,$9*
0 Add four rect primitives between the rounded corners*
20,1,$1+$1,$2,$3,$4,$5,0*
20,1,$1+$1,$4,$5,$6,$7,0*
20,1,$1+$1,$6,$7,$8,$9,0*
20,1,$1+$1,$8,$9,$2,$3,0*%
G04 Aperture macros list end*
%TA.AperFunction,SMDPad,CuDef*%
%ADD10R,1.050000X0.450000*%
%TD*%
%TA.AperFunction,SMDPad,CuDef*%
%ADD11R,3.400000X5.000000*%
%TD*%
%TA.AperFunction,SMDPad,CuDef*%
%ADD12RoundRect,0.250000X-1.950000X-1.000000X1.950000X-1.000000X1.950000X1.000000X-1.950000X1.000000X0*%
%TD*%
%TA.AperFunction,SMDPad,CuDef*%
%ADD13RoundRect,0.250000X0.350000X0.450000X-0.350000X0.450000X-0.350000X-0.450000X0.350000X-0.450000X0*%
%TD*%
%TA.AperFunction,SMDPad,CuDef*%
%ADD14RoundRect,0.250000X-0.337500X-0.475000X0.337500X-0.475000X0.337500X0.475000X-0.337500X0.475000X0*%
%TD*%
%TA.AperFunction,SMDPad,CuDef*%
%ADD15R,5.400000X2.800000*%
%TD*%
%TA.AperFunction,SMDPad,CuDef*%
%ADD16RoundRect,0.250000X-0.350000X-0.450000X0.350000X-0.450000X0.350000X0.450000X-0.350000X0.450000X0*%
%TD*%
%TA.AperFunction,ComponentPad*%
%ADD17R,1.700000X1.700000*%
%TD*%
%TA.AperFunction,ComponentPad*%
%ADD18O,1.700000X1.700000*%
%TD*%
%TA.AperFunction,ViaPad*%
%ADD19C,0.600000*%
%TD*%
%TA.AperFunction,Conductor*%
%ADD20C,0.200000*%
%TD*%
G04 APERTURE END LIST*
D10*
%TO.P,U1,1,SW*%
%TO.N,Net-(L1-Pad2)*%
X115225000Y-114725000D03*
%TO.P,U1,2,SW*%
X115225000Y-115375000D03*
%TO.P,U1,3,PGND*%
%TO.N,GND*%
X115225000Y-116025000D03*
%TO.P,U1,4,PGND*%
X115225000Y-116675000D03*
%TO.P,U1,5,PGND*%
X115225000Y-117325000D03*
%TO.P,U1,6,VBAT*%
%TO.N,/VIN*%
X115225000Y-117975000D03*
%TO.P,U1,7,LBI*%
%TO.N,Net-(U1-LBI)*%
X115225000Y-118625000D03*
%TO.P,U1,8,SYNC*%
%TO.N,GND*%
X115225000Y-119275000D03*
%TO.P,U1,9,EN*%
%TO.N,/EN*%
X120775000Y-119275000D03*
%TO.P,U1,10,LBO*%
%TO.N,/LBO*%
X120775000Y-118625000D03*
%TO.P,U1,11,GND*%
%TO.N,GND*%
X120775000Y-117975000D03*
%TO.P,U1,12,FB*%
%TO.N,Net-(U1-FB)*%
X120775000Y-117325000D03*
%TO.P,U1,13,VOUT*%
%TO.N,/VOUT*%
X120775000Y-116675000D03*
%TO.P,U1,14,VOUT*%
X120775000Y-116025000D03*
%TO.P,U1,15,VOUT*%
X120775000Y-115375000D03*
%TO.P,U1,16,NC*%
%TO.N,unconnected-(U1-NC-Pad16)*%
X120775000Y-114725000D03*
D11*
%TO.P,U1,17,PAD*%
%TO.N,GND*%
X118000000Y-117000000D03*
%TD*%
D12*
%TO.P,C4,1*%
%TO.N,/VIN*%
X103300000Y-129000000D03*
%TO.P,C4,2*%
%TO.N,GND*%
X110700000Y-129000000D03*
%TD*%
D13*
%TO.P,R3,1*%
%TO.N,/VOUT*%
X126460000Y-121920000D03*
%TO.P,R3,2*%
%TO.N,Net-(U1-FB)*%
X124460000Y-121920000D03*
%TD*%
D14*
%TO.P,C1,1*%
%TO.N,/VIN*%
X116840000Y-124460000D03*
%TO.P,C1,2*%
%TO.N,GND*%
X118915000Y-124460000D03*
%TD*%
D15*
%TO.P,L1,1,1*%
%TO.N,/VIN*%
X106680000Y-121900000D03*
%TO.P,L1,2,2*%
%TO.N,Net-(L1-Pad2)*%
X106680000Y-112100000D03*
%TD*%
D13*
%TO.P,R1,1*%
%TO.N,/VIN*%
X126460000Y-106680000D03*
%TO.P,R1,2*%
%TO.N,Net-(U1-LBI)*%
X124460000Y-106680000D03*
%TD*%
D16*
%TO.P,R5,1*%
%TO.N,/VOUT*%
X124460000Y-116840000D03*
%TO.P,R5,2*%
%TO.N,/LBO*%
X126460000Y-116840000D03*
%TD*%
D12*
%TO.P,C3,1*%
%TO.N,/VOUT*%
X103300000Y-105000000D03*
%TO.P,C3,2*%
%TO.N,Net-(C2-Pad2)*%
X110700000Y-105000000D03*
%TD*%
D16*
%TO.P,R4,1*%
%TO.N,Net-(U1-FB)*%
X124460000Y-127000000D03*
%TO.P,R4,2*%
%TO.N,GND*%
X126460000Y-127000000D03*
%TD*%
D17*
%TO.P,J1,1,Pin_1*%
%TO.N,/VOUT*%
X132080000Y-111760000D03*
D18*
%TO.P,J1,2,Pin_2*%
%TO.N,GND*%
X132080000Y-114300000D03*
%TO.P,J1,3,Pin_3*%
%TO.N,/VIN*%
X132080000Y-116840000D03*
%TO.P,J1,4,Pin_4*%
%TO.N,/LBO*%
X132080000Y-119380000D03*
%TO.P,J1,5,Pin_5*%
%TO.N,/EN*%
X132080000Y-121920000D03*
%TD*%
D14*
%TO.P,C2,1*%
%TO.N,/VOUT*%
X116840000Y-111760000D03*
%TO.P,C2,2*%
%TO.N,Net-(C2-Pad2)*%
X118915000Y-111760000D03*
%TD*%
D16*
%TO.P,R2,1*%
%TO.N,Net-(U1-LBI)*%
X124460000Y-111760000D03*
%TO.P,R2,2*%
%TO.N,GND*%
X126460000Y-111760000D03*
%TD*%
D19*
%TO.N,Net-(U1-LBI)*%
X115988600Y-121320100D03*
X116840000Y-106227000D03*
%TO.N,Net-(U1-FB)*%
X122779300Y-119492600D03*
X121900500Y-126975000D03*
%TO.N,/VIN*%
X118291000Y-123217000D03*
%TO.N,/VOUT*%
X127000000Y-114300000D03*
X129540000Y-111760000D03*
%TD*%
D20*
%TO.N,GND*%
X118000000Y-117000000D02*
X118163500Y-117163400D01*
X118975000Y-117975000D02*
X120775000Y-117975000D01*
X123920000Y-124460000D02*
X118915000Y-124460000D01*
X115225000Y-119275000D02*
X116735000Y-119275000D01*
X129540000Y-116840000D02*
X130830000Y-118130000D01*
X110700000Y-129000000D02*
X124460000Y-129000000D01*
X129540000Y-116264100D02*
X129540000Y-116840000D01*
X131504100Y-114300000D02*
X129540000Y-116264100D01*
X116840000Y-119380000D02*
X116735000Y-119275000D01*
X134400000Y-119160000D02*
X134400000Y-122966250D01*
X130830000Y-118130000D02*
X133370000Y-118130000D01*
X128388100Y-111760000D02*
X126460000Y-111760000D01*
X115225000Y-116025000D02*
X117025000Y-116025000D01*
X117675000Y-116675000D02*
X118000000Y-117000000D01*
X118163500Y-117163400D02*
X118975000Y-117975000D01*
X133370000Y-118130000D02*
X134400000Y-119160000D01*
X124460000Y-129000000D02*
X126460000Y-127000000D01*
X130928100Y-114300000D02*
X128388100Y-111760000D01*
X134400000Y-122966250D02*
X130366250Y-127000000D01*
X115225000Y-117325000D02*
X117675000Y-117325000D01*
X130366250Y-127000000D02*
X126460000Y-127000000D01*
X131504100Y-114300000D02*
X130928100Y-114300000D01*
X118915000Y-121455000D02*
X116840000Y-119380000D01*
X132080000Y-114300000D02*
X131504100Y-114300000D01*
X118915000Y-124460000D02*
X118915000Y-121455000D01*
X115225000Y-116675000D02*
X117675000Y-116675000D01*
X117025000Y-116025000D02*
X118000000Y-117000000D01*
X126460000Y-127000000D02*
X123920000Y-124460000D01*
X117675000Y-117325000D02*
X118000000Y-117000000D01*
%TO.N,Net-(C2-Pad2)*%
X118624200Y-111760000D02*
X118915000Y-111760000D01*
X111864200Y-105000000D02*
X118624200Y-111760000D01*
X110700000Y-105000000D02*
X111864200Y-105000000D01*
%TO.N,Net-(L1-Pad2)*%
X106680000Y-112100000D02*
X111773100Y-112100000D01*
X115225000Y-114725000D02*
X115225000Y-115375000D01*
X111773100Y-112100000D02*
X114398100Y-114725000D01*
X115225000Y-114725000D02*
X114398100Y-114725000D01*
%TO.N,Net-(U1-LBI)*%
X124007000Y-106227000D02*
X124460000Y-106680000D01*
X114865686Y-121920000D02*
X115388700Y-121920000D01*
X115388700Y-121920000D02*
X115988600Y-121320100D01*
X124460000Y-111760000D02*
X124460000Y-106680000D01*
X114300000Y-118850000D02*
X114300000Y-121354314D01*
X116840000Y-106227000D02*
X124007000Y-106227000D01*
X115225000Y-118625000D02*
X114525000Y-118625000D01*
X114525000Y-118625000D02*
X114300000Y-118850000D01*
X114300000Y-121354314D02*
X114865686Y-121920000D01*
%TO.N,Net-(U1-FB)*%
X121900500Y-126975000D02*
X124435000Y-126975000D01*
X122779300Y-119492600D02*
X122779300Y-119618100D01*
X122779300Y-119618100D02*
X122779300Y-119492600D01*
X121920000Y-117770000D02*
X121475000Y-117325000D01*
X124460000Y-121173300D02*
X122779300Y-119492600D01*
X122779300Y-119492600D02*
X121920000Y-118633300D01*
X121920000Y-118633300D02*
X121920000Y-117770000D01*
X124460000Y-121920000D02*
X124460000Y-121173300D01*
X124435000Y-126975000D02*
X124460000Y-127000000D01*
X121475000Y-117325000D02*
X120775000Y-117325000D01*
%TO.N,/VIN*%
X103300000Y-129000000D02*
X107840000Y-124460000D01*
X113991000Y-121900000D02*
X113849854Y-121758853D01*
X114525000Y-117975000D02*
X115225000Y-117975000D01*
X118083000Y-123217000D02*
X116840000Y-124460000D01*
X133468100Y-116840000D02*
X132080000Y-116840000D01*
X131892950Y-106680000D02*
X134400000Y-109187050D01*
X107840000Y-124460000D02*
X116840000Y-124460000D01*
X134400000Y-115908100D02*
X133468100Y-116840000D01*
X134400000Y-109187050D02*
X134400000Y-115908100D01*
X114280000Y-121900000D02*
X116840000Y-124460000D01*
X126460000Y-106680000D02*
X131892950Y-106680000D01*
X118291000Y-123217000D02*
X118083000Y-123217000D01*
X113991000Y-121900000D02*
X114280000Y-121900000D01*
X106680000Y-121900000D02*
X113991000Y-121900000D01*
X113849854Y-121758853D02*
X113849854Y-118650146D01*
X113849854Y-118650146D02*
X114525000Y-117975000D01*
%TO.N,/VOUT*%
X114236400Y-109156400D02*
X117866400Y-112786400D01*
X121501000Y-116675000D02*
X121601900Y-116675000D01*
X121302000Y-115375000D02*
X121601900Y-115375000D01*
X107456400Y-109156400D02*
X114236400Y-109156400D01*
X117866400Y-112786400D02*
X121600400Y-112786400D01*
X121302000Y-115375000D02*
X121920000Y-114757000D01*
X129540000Y-111760000D02*
X132080000Y-111760000D01*
X103300000Y-105000000D02*
X107456400Y-109156400D01*
X121275500Y-115375000D02*
X121302000Y-115375000D01*
X121600400Y-112786400D02*
X121601900Y-112787900D01*
X120775000Y-116675000D02*
X121501000Y-116675000D01*
X121920000Y-113106000D02*
X121601900Y-112787900D01*
X123114000Y-114300000D02*
X127000000Y-114300000D01*
X124460000Y-116840000D02*
X124460000Y-119920000D01*
X121601900Y-116025000D02*
X121601900Y-116675000D01*
X124295000Y-116675000D02*
X124460000Y-116840000D01*
X121600400Y-112786400D02*
X123114000Y-114300000D01*
X121601900Y-116675000D02*
X124295000Y-116675000D01*
X114236400Y-109156400D02*
X116840000Y-111760000D01*
X121920000Y-114757000D02*
X121920000Y-113106000D01*
X121601900Y-115375000D02*
X121601900Y-116025000D01*
X124460000Y-119920000D02*
X126460000Y-121920000D01*
X120775000Y-116025000D02*
X121601900Y-116025000D01*
X120775000Y-115375000D02*
X121275500Y-115375000D01*
%TO.N,/LBO*%
X124938000Y-124060000D02*
X121920000Y-121042000D01*
X128130600Y-123329400D02*
X127400000Y-124060000D01*
X121302000Y-118625000D02*
X120775000Y-118625000D01*
X121920000Y-121042000D02*
X121920000Y-119243000D01*
X128130600Y-119380000D02*
X128130600Y-123329400D01*
X132080000Y-119380000D02*
X128130600Y-119380000D01*
X126460000Y-116840000D02*
X128130600Y-118510600D01*
X121920000Y-119243000D02*
X121302000Y-118625000D01*
X127400000Y-124060000D02*
X124938000Y-124060000D01*
X128130600Y-118510600D02*
X128130600Y-119380000D01*
%TO.N,/EN*%
X124085686Y-124060000D02*
X124060000Y-124060000D01*
X130928100Y-121920000D02*
X128388100Y-124460000D01*
X128388100Y-124460000D02*
X124485686Y-124460000D01*
X120775000Y-120775000D02*
X120775000Y-119275000D01*
X124485686Y-124460000D02*
X124085686Y-124060000D01*
X132080000Y-121920000D02*
X130928100Y-121920000D01*
X124060000Y-124060000D02*
X120775000Y-120775000D01*
%TD*%
%TA.AperFunction,Conductor*%
%TO.N,GND*%
G36*
X134442539Y-100520185D02*
G01*
X134488294Y-100572989D01*
X134499500Y-100624500D01*
X134499500Y-108562217D01*
X134479815Y-108629256D01*
X134427011Y-108675011D01*
X134357853Y-108684955D01*
X134294297Y-108655930D01*
X134287819Y-108649898D01*
X132152912Y-106514991D01*
X132141637Y-106502035D01*
X132136905Y-106495768D01*
X132102633Y-106464525D01*
X132098510Y-106460589D01*
X132085747Y-106447826D01*
X132085746Y-106447825D01*
X132085744Y-106447823D01*
X132082027Y-106444737D01*
X132073629Y-106438084D01*
X132053883Y-106420084D01*
X132047420Y-106417580D01*
X132022142Y-106404256D01*
X132016431Y-106400344D01*
X132016428Y-106400343D01*
X132016429Y-106400343D01*
X131990433Y-106394228D01*
X131974039Y-106389151D01*
X131949124Y-106379500D01*
X131949123Y-106379500D01*
X131942199Y-106379500D01*
X131913808Y-106376206D01*
X131907069Y-106374621D01*
X131880616Y-106378311D01*
X131863486Y-106379500D01*
X127384500Y-106379500D01*
X127317461Y-106359815D01*
X127271706Y-106307011D01*
X127260500Y-106255500D01*
X127260500Y-106175730D01*
X127257646Y-106145300D01*
X127257646Y-106145298D01*
X127212793Y-106017119D01*
X127212792Y-106017117D01*
X127132150Y-105907850D01*
X127022882Y-105827207D01*
X127022880Y-105827206D01*
X126894700Y-105782353D01*
X126864270Y-105779500D01*
X126864266Y-105779500D01*
X126055734Y-105779500D01*
X126055730Y-105779500D01*
X126025300Y-105782353D01*
X126025298Y-105782353D01*
X125897119Y-105827206D01*
X125897117Y-105827207D01*
X125787850Y-105907850D01*
X125707207Y-106017117D01*
X125707206Y-106017119D01*
X125662353Y-106145298D01*
X125662353Y-106145300D01*
X125659500Y-106175730D01*
X125659500Y-107184269D01*
X125662353Y-107214699D01*
X125662353Y-107214701D01*
X125707206Y-107342880D01*
X125707207Y-107342882D01*
X125787850Y-107452150D01*
X125897118Y-107532793D01*
X125939845Y-107547744D01*
X126025299Y-107577646D01*
X126055730Y-107580500D01*
X126055734Y-107580500D01*
X126864270Y-107580500D01*
X126894699Y-107577646D01*
X126894701Y-107577646D01*
X126958790Y-107555219D01*
X127022882Y-107532793D01*
X127132150Y-107452150D01*
X127212793Y-107342882D01*
X127235219Y-107278790D01*
X127257646Y-107214701D01*
X127257646Y-107214699D01*
X127260500Y-107184269D01*
X127260500Y-107104500D01*
X127280185Y-107037461D01*
X127332989Y-106991706D01*
X127384500Y-106980500D01*
X131717117Y-106980500D01*
X131784156Y-107000185D01*
X131804798Y-107016819D01*
X134063181Y-109275202D01*
X134096666Y-109336525D01*
X134099500Y-109362883D01*
X134099500Y-115732267D01*
X134079815Y-115799306D01*
X134063181Y-115819948D01*
X133379948Y-116503181D01*
X133318625Y-116536666D01*
X133292267Y-116539500D01*
X133178579Y-116539500D01*
X133111540Y-116519815D01*
X133065785Y-116467011D01*
X133059919Y-116451497D01*
X133058024Y-116445251D01*
X133055232Y-116436046D01*
X132957685Y-116253550D01*
X132894959Y-116177118D01*
X132826410Y-116093589D01*
X132666452Y-115962317D01*
X132666453Y-115962317D01*
X132666450Y-115962315D01*
X132483954Y-115864768D01*
X132417447Y-115844593D01*
X132359009Y-115806296D01*
X132330553Y-115742484D01*
X132341113Y-115673417D01*
X132387337Y-115621023D01*
X132421350Y-115606158D01*
X132543483Y-115573433D01*
X132543492Y-115573429D01*
X132757578Y-115473600D01*
X132951082Y-115338105D01*
X133118105Y-115171082D01*
X133253600Y-114977578D01*
X133353429Y-114763492D01*
X133353432Y-114763486D01*
X133410636Y-114550000D01*
X132513686Y-114550000D01*
X132539493Y-114509844D01*
X132580000Y-114371889D01*
X132580000Y-114228111D01*
X132539493Y-114090156D01*
X132513686Y-114050000D01*
X133410636Y-114050000D01*
X133410635Y-114049999D01*
X133353432Y-113836513D01*
X133353429Y-113836507D01*
X133253600Y-113622422D01*
X133253599Y-113622420D01*
X133118113Y-113428926D01*
X133118108Y-113428920D01*
X132951082Y-113261894D01*
X132757578Y-113126399D01*
X132587052Y-113046882D01*
X132534613Y-113000710D01*
X132515461Y-112933516D01*
X132535677Y-112866635D01*
X132588842Y-112821300D01*
X132639457Y-112810500D01*
X132949750Y-112810500D01*
X132949751Y-112810499D01*
X132964568Y-112807552D01*
X133008229Y-112798868D01*
X133008229Y-112798867D01*
X133008231Y-112798867D01*
X133074552Y-112754552D01*
X133118867Y-112688231D01*
X133118867Y-112688229D01*
X133118868Y-112688229D01*
X133130499Y-112629752D01*
X133130500Y-112629750D01*
X133130500Y-110890249D01*
X133130499Y-110890247D01*
X133118868Y-110831770D01*
X133118867Y-110831769D01*
X133074552Y-110765447D01*
X133008230Y-110721132D01*
X133008229Y-110721131D01*
X132949752Y-110709500D01*
X132949748Y-110709500D01*
X131210252Y-110709500D01*
X131210247Y-110709500D01*
X131151770Y-110721131D01*
X131151769Y-110721132D01*
X131085447Y-110765447D01*
X131041132Y-110831769D01*
X131041131Y-110831770D01*
X131029500Y-110890247D01*
X131029500Y-111335500D01*
X131009815Y-111402539D01*
X130957011Y-111448294D01*
X130905500Y-111459500D01*
X129998501Y-111459500D01*
X129931462Y-111439815D01*
X129904788Y-111416703D01*
X129892515Y-111402539D01*
X129871128Y-111377857D01*
X129750053Y-111300047D01*
X129750051Y-111300046D01*
X129750049Y-111300045D01*
X129750050Y-111300045D01*
X129611963Y-111259500D01*
X129611961Y-111259500D01*
X129468039Y-111259500D01*
X129468036Y-111259500D01*
X129329949Y-111300045D01*
X129208873Y-111377856D01*
X129114623Y-111486626D01*
X129114622Y-111486628D01*
X129054834Y-111617543D01*
X129034353Y-111760000D01*
X129054834Y-111902456D01*
X129103949Y-112010000D01*
X129114623Y-112033373D01*
X129208872Y-112142143D01*
X129329947Y-112219953D01*
X129329950Y-112219954D01*
X129329949Y-112219954D01*
X129437107Y-112251417D01*
X129466288Y-112259986D01*
X129468036Y-112260499D01*
X129468038Y-112260500D01*
X129468039Y-112260500D01*
X129611962Y-112260500D01*
X129611962Y-112260499D01*
X129750053Y-112219953D01*
X129871128Y-112142143D01*
X129904788Y-112103296D01*
X129963567Y-112065523D01*
X129998501Y-112060500D01*
X130905500Y-112060500D01*
X130972539Y-112080185D01*
X131018294Y-112132989D01*
X131029500Y-112184500D01*
X131029500Y-112629752D01*
X131041131Y-112688229D01*
X131041132Y-112688230D01*
X131085447Y-112754552D01*
X131151769Y-112798867D01*
X131151770Y-112798868D01*
X131210247Y-112810499D01*
X131210250Y-112810500D01*
X131520543Y-112810500D01*
X131587582Y-112830185D01*
X131633337Y-112882989D01*
X131643281Y-112952147D01*
X131614256Y-113015703D01*
X131572948Y-113046882D01*
X131402422Y-113126399D01*
X131402420Y-113126400D01*
X131208926Y-113261886D01*
X131208920Y-113261891D01*
X131041891Y-113428920D01*
X131041886Y-113428926D01*
X130906400Y-113622420D01*
X130906399Y-113622422D01*
X130806570Y-113836507D01*
X130806567Y-113836513D01*
X130749364Y-114049999D01*
X130749364Y-114050000D01*
X131646314Y-114050000D01*
X131620507Y-114090156D01*
X131580000Y-114228111D01*
X131580000Y-114371889D01*
X131620507Y-114509844D01*
X131646314Y-114550000D01*
X130749364Y-114550000D01*
X130806567Y-114763486D01*
X130806570Y-114763492D01*
X130906399Y-114977578D01*
X131041894Y-115171082D01*
X131208917Y-115338105D01*
X131402421Y-115473600D01*
X131616507Y-115573429D01*
X131616516Y-115573433D01*
X131738649Y-115606158D01*
X131798310Y-115642523D01*
X131828839Y-115705369D01*
X131820545Y-115774745D01*
X131776059Y-115828623D01*
X131742552Y-115844593D01*
X131676046Y-115864767D01*
X131564296Y-115924500D01*
X131493550Y-115962315D01*
X131493548Y-115962316D01*
X131493547Y-115962317D01*
X131333589Y-116093589D01*
X131202317Y-116253547D01*
X131104769Y-116436043D01*
X131044699Y-116634067D01*
X131024417Y-116840000D01*
X131044699Y-117045932D01*
X131048173Y-117057384D01*
X131104768Y-117243954D01*
X131202315Y-117426450D01*
X131202317Y-117426452D01*
X131333589Y-117586410D01*
X131364953Y-117612149D01*
X131493550Y-117717685D01*
X131676046Y-117815232D01*
X131874066Y-117875300D01*
X131874065Y-117875300D01*
X131892529Y-117877118D01*
X132080000Y-117895583D01*
X132285934Y-117875300D01*
X132483954Y-117815232D01*
X132666450Y-117717685D01*
X132826410Y-117586410D01*
X132957685Y-117426450D01*
X133055232Y-117243954D01*
X133059919Y-117228503D01*
X133098217Y-117170065D01*
X133162030Y-117141609D01*
X133178579Y-117140500D01*
X133400962Y-117140500D01*
X133418090Y-117141689D01*
X133425861Y-117142772D01*
X133425861Y-117142771D01*
X133425865Y-117142773D01*
X133472180Y-117140632D01*
X133477905Y-117140500D01*
X133495943Y-117140500D01*
X133495944Y-117140500D01*
X133495944Y-117140499D01*
X133500831Y-117140046D01*
X133511418Y-117138817D01*
X133538092Y-117137585D01*
X133544422Y-117134789D01*
X133571729Y-117126332D01*
X133578533Y-117125061D01*
X133578535Y-117125059D01*
X133578537Y-117125059D01*
X133601238Y-117111003D01*
X133616425Y-117102996D01*
X133640865Y-117092206D01*
X133645761Y-117087309D01*
X133668169Y-117069561D01*
X133674052Y-117065919D01*
X133690153Y-117044595D01*
X133701414Y-117031655D01*
X134287820Y-116445250D01*
X134349142Y-116411766D01*
X134418834Y-116416750D01*
X134474767Y-116458622D01*
X134499184Y-116524086D01*
X134499500Y-116532932D01*
X134499500Y-133375500D01*
X134479815Y-133442539D01*
X134427011Y-133488294D01*
X134375500Y-133499500D01*
X100624500Y-133499500D01*
X100557461Y-133479815D01*
X100511706Y-133427011D01*
X100500500Y-133375500D01*
X100500500Y-124584000D01*
X100520185Y-124516961D01*
X100572989Y-124471206D01*
X100624500Y-124460000D01*
X107115667Y-124460000D01*
X107182706Y-124479685D01*
X107228461Y-124532489D01*
X107238405Y-124601647D01*
X107209380Y-124665203D01*
X107203348Y-124671681D01*
X104361848Y-127513181D01*
X104300525Y-127546666D01*
X104274167Y-127549500D01*
X101295730Y-127549500D01*
X101265300Y-127552353D01*
X101265298Y-127552353D01*
X101137119Y-127597206D01*
X101137117Y-127597207D01*
X101027850Y-127677850D01*
X100947207Y-127787117D01*
X100947206Y-127787119D01*
X100902353Y-127915298D01*
X100902353Y-127915300D01*
X100899500Y-127945730D01*
X100899500Y-130054269D01*
X100902353Y-130084699D01*
X100902353Y-130084701D01*
X100947206Y-130212880D01*
X100947207Y-130212882D01*
X101027850Y-130322150D01*
X101137118Y-130402793D01*
X101179845Y-130417744D01*
X101265299Y-130447646D01*
X101295730Y-130450500D01*
X101295734Y-130450500D01*
X105304270Y-130450500D01*
X105334699Y-130447646D01*
X105334701Y-130447646D01*
X105398790Y-130425219D01*
X105462882Y-130402793D01*
X105572150Y-130322150D01*
X105652793Y-130212882D01*
X105675219Y-130148790D01*
X105697646Y-130084701D01*
X105697646Y-130084699D01*
X105700500Y-130054269D01*
X105700500Y-129250000D01*
X108000001Y-129250000D01*
X108000001Y-130049986D01*
X108010494Y-130152697D01*
X108065641Y-130319119D01*
X108065643Y-130319124D01*
X108157684Y-130468345D01*
X108281654Y-130592315D01*
X108430875Y-130684356D01*
X108430880Y-130684358D01*
X108597302Y-130739505D01*
X108597309Y-130739506D01*
X108700019Y-130749999D01*
X110449999Y-130749999D01*
X110450000Y-130749998D01*
X110450000Y-129250000D01*
X110950000Y-129250000D01*
X110950000Y-130749999D01*
X112699972Y-130749999D01*
X112699986Y-130749998D01*
X112802697Y-130739505D01*
X112969119Y-130684358D01*
X112969124Y-130684356D01*
X113118345Y-130592315D01*
X113242315Y-130468345D01*
X113334356Y-130319124D01*
X113334358Y-130319119D01*
X113389505Y-130152697D01*
X113389506Y-130152690D01*
X113399999Y-130049986D01*
X113400000Y-130049973D01*
X113400000Y-129250000D01*
X110950000Y-129250000D01*
X110450000Y-129250000D01*
X108000001Y-129250000D01*
X105700500Y-129250000D01*
X105700500Y-128750000D01*
X108000000Y-128750000D01*
X110450000Y-128750000D01*
X110450000Y-127250000D01*
X110950000Y-127250000D01*
X110950000Y-128750000D01*
X113399999Y-128750000D01*
X113399999Y-127950028D01*
X113399998Y-127950013D01*
X113389505Y-127847302D01*
X113334358Y-127680880D01*
X113334356Y-127680875D01*
X113242315Y-127531654D01*
X113118345Y-127407684D01*
X112969124Y-127315643D01*
X112969119Y-127315641D01*
X112802697Y-127260494D01*
X112802690Y-127260493D01*
X112699986Y-127250000D01*
X110950000Y-127250000D01*
X110450000Y-127250000D01*
X108700028Y-127250000D01*
X108700012Y-127250001D01*
X108597302Y-127260494D01*
X108430880Y-127315641D01*
X108430875Y-127315643D01*
X108281654Y-127407684D01*
X108157684Y-127531654D01*
X108065643Y-127680875D01*
X108065641Y-127680880D01*
X108010494Y-127847302D01*
X108010493Y-127847309D01*
X108000000Y-127950013D01*
X108000000Y-128750000D01*
X105700500Y-128750000D01*
X105700500Y-127945730D01*
X105697646Y-127915300D01*
X105697646Y-127915298D01*
X105652793Y-127787119D01*
X105652792Y-127787117D01*
X105639513Y-127769124D01*
X105572150Y-127677850D01*
X105462882Y-127597207D01*
X105462879Y-127597206D01*
X105400899Y-127575518D01*
X105344124Y-127534796D01*
X105318377Y-127469843D01*
X105331834Y-127401281D01*
X105354171Y-127370799D01*
X105749970Y-126975000D01*
X121394853Y-126975000D01*
X121415334Y-127117456D01*
X121475122Y-127248371D01*
X121475123Y-127248373D01*
X121569372Y-127357143D01*
X121690447Y-127434953D01*
X121690450Y-127434954D01*
X121690449Y-127434954D01*
X121828536Y-127475499D01*
X121828538Y-127475500D01*
X121828539Y-127475500D01*
X121972462Y-127475500D01*
X121972462Y-127475499D01*
X122110553Y-127434953D01*
X122231628Y-127357143D01*
X122265288Y-127318296D01*
X122324067Y-127280523D01*
X122359001Y-127275500D01*
X123535500Y-127275500D01*
X123602539Y-127295185D01*
X123648294Y-127347989D01*
X123659500Y-127399500D01*
X123659500Y-127504269D01*
X123662353Y-127534699D01*
X123662353Y-127534701D01*
X123701701Y-127647147D01*
X123707207Y-127662882D01*
X123787850Y-127772150D01*
X123897118Y-127852793D01*
X123939845Y-127867744D01*
X124025299Y-127897646D01*
X124055730Y-127900500D01*
X124055734Y-127900500D01*
X124864270Y-127900500D01*
X124894699Y-127897646D01*
X124894701Y-127897646D01*
X124958790Y-127875219D01*
X125022882Y-127852793D01*
X125132150Y-127772150D01*
X125193225Y-127689395D01*
X125248870Y-127647147D01*
X125318526Y-127641688D01*
X125380075Y-127674755D01*
X125410699Y-127724026D01*
X125425642Y-127769121D01*
X125425643Y-127769124D01*
X125517684Y-127918345D01*
X125641654Y-128042315D01*
X125790875Y-128134356D01*
X125790880Y-128134358D01*
X125957302Y-128189505D01*
X125957309Y-128189506D01*
X126060019Y-128199999D01*
X126209999Y-128199999D01*
X126210000Y-128199998D01*
X126210000Y-127250000D01*
X126710000Y-127250000D01*
X126710000Y-128199999D01*
X126859972Y-128199999D01*
X126859986Y-128199998D01*
X126962697Y-128189505D01*
X127129119Y-128134358D01*
X127129124Y-128134356D01*
X127278345Y-128042315D01*
X127402315Y-127918345D01*
X127494356Y-127769124D01*
X127494358Y-127769119D01*
X127549505Y-127602697D01*
X127549506Y-127602690D01*
X127559999Y-127499986D01*
X127560000Y-127499973D01*
X127560000Y-127250000D01*
X126710000Y-127250000D01*
X126210000Y-127250000D01*
X126210000Y-125800000D01*
X126710000Y-125800000D01*
X126710000Y-126750000D01*
X127559999Y-126750000D01*
X127559999Y-126500028D01*
X127559998Y-126500013D01*
X127549505Y-126397302D01*
X127494358Y-126230880D01*
X127494356Y-126230875D01*
X127402315Y-126081654D01*
X127278345Y-125957684D01*
X127129124Y-125865643D01*
X127129119Y-125865641D01*
X126962697Y-125810494D01*
X126962690Y-125810493D01*
X126859986Y-125800000D01*
X126710000Y-125800000D01*
X126210000Y-125800000D01*
X126060027Y-125800000D01*
X126060012Y-125800001D01*
X125957302Y-125810494D01*
X125790880Y-125865641D01*
X125790875Y-125865643D01*
X125641654Y-125957684D01*
X125517684Y-126081654D01*
X125425643Y-126230875D01*
X125425640Y-126230883D01*
X125410698Y-126275974D01*
X125370925Y-126333418D01*
X125306409Y-126360240D01*
X125237633Y-126347924D01*
X125193223Y-126310601D01*
X125132151Y-126227851D01*
X125022882Y-126147207D01*
X125022880Y-126147206D01*
X124894700Y-126102353D01*
X124864270Y-126099500D01*
X124864266Y-126099500D01*
X124055734Y-126099500D01*
X124055730Y-126099500D01*
X124025300Y-126102353D01*
X124025298Y-126102353D01*
X123897119Y-126147206D01*
X123897117Y-126147207D01*
X123787850Y-126227850D01*
X123707207Y-126337117D01*
X123707206Y-126337119D01*
X123662353Y-126465298D01*
X123662353Y-126465300D01*
X123659500Y-126495730D01*
X123659500Y-126550500D01*
X123639815Y-126617539D01*
X123587011Y-126663294D01*
X123535500Y-126674500D01*
X122359001Y-126674500D01*
X122291962Y-126654815D01*
X122265288Y-126631703D01*
X122253015Y-126617539D01*
X122231628Y-126592857D01*
X122110553Y-126515047D01*
X122110551Y-126515046D01*
X122110549Y-126515045D01*
X122110550Y-126515045D01*
X121972463Y-126474500D01*
X121972461Y-126474500D01*
X121828539Y-126474500D01*
X121828536Y-126474500D01*
X121690449Y-126515045D01*
X121569373Y-126592856D01*
X121475123Y-126701626D01*
X121475122Y-126701628D01*
X121415334Y-126832543D01*
X121394853Y-126975000D01*
X105749970Y-126975000D01*
X107928153Y-124796819D01*
X107989476Y-124763334D01*
X108015834Y-124760500D01*
X115928000Y-124760500D01*
X115995039Y-124780185D01*
X116040794Y-124832989D01*
X116052000Y-124884500D01*
X116052000Y-124989269D01*
X116054853Y-125019699D01*
X116054853Y-125019701D01*
X116099706Y-125147880D01*
X116099707Y-125147882D01*
X116180350Y-125257150D01*
X116289618Y-125337793D01*
X116332345Y-125352744D01*
X116417799Y-125382646D01*
X116448230Y-125385500D01*
X116448234Y-125385500D01*
X117231770Y-125385500D01*
X117262199Y-125382646D01*
X117262201Y-125382646D01*
X117326290Y-125360219D01*
X117390382Y-125337793D01*
X117499650Y-125257150D01*
X117580293Y-125147882D01*
X117602658Y-125083964D01*
X117643377Y-125027192D01*
X117708330Y-125001444D01*
X117776892Y-125014900D01*
X117827295Y-125063287D01*
X117837404Y-125085917D01*
X117893142Y-125254121D01*
X117893143Y-125254124D01*
X117985184Y-125403345D01*
X118109154Y-125527315D01*
X118258375Y-125619356D01*
X118258380Y-125619358D01*
X118424802Y-125674505D01*
X118424809Y-125674506D01*
X118527519Y-125684999D01*
X118664999Y-125684999D01*
X118665000Y-125684998D01*
X118665000Y-124710000D01*
X119165000Y-124710000D01*
X119165000Y-125684999D01*
X119302472Y-125684999D01*
X119302486Y-125684998D01*
X119405197Y-125674505D01*
X119571619Y-125619358D01*
X119571624Y-125619356D01*
X119720845Y-125527315D01*
X119844815Y-125403345D01*
X119936856Y-125254124D01*
X119936858Y-125254119D01*
X119992005Y-125087697D01*
X119992006Y-125087690D01*
X120002499Y-124984986D01*
X120002500Y-124984973D01*
X120002500Y-124710000D01*
X119165000Y-124710000D01*
X118665000Y-124710000D01*
X118665000Y-123595914D01*
X118684685Y-123528875D01*
X118695287Y-123514712D01*
X118716377Y-123490373D01*
X118776165Y-123359457D01*
X118794059Y-123235000D01*
X119165000Y-123235000D01*
X119165000Y-124210000D01*
X120002499Y-124210000D01*
X120002499Y-123935028D01*
X120002498Y-123935013D01*
X119992005Y-123832302D01*
X119936858Y-123665880D01*
X119936856Y-123665875D01*
X119844815Y-123516654D01*
X119720845Y-123392684D01*
X119571624Y-123300643D01*
X119571619Y-123300641D01*
X119405197Y-123245494D01*
X119405190Y-123245493D01*
X119302486Y-123235000D01*
X119165000Y-123235000D01*
X118794059Y-123235000D01*
X118796647Y-123217000D01*
X118776165Y-123074543D01*
X118716377Y-122943627D01*
X118622128Y-122834857D01*
X118501053Y-122757047D01*
X118501051Y-122757046D01*
X118501049Y-122757045D01*
X118501050Y-122757045D01*
X118362963Y-122716500D01*
X118362961Y-122716500D01*
X118219039Y-122716500D01*
X118219036Y-122716500D01*
X118080949Y-122757045D01*
X117959873Y-122834856D01*
X117865623Y-122943626D01*
X117865621Y-122943629D01*
X117819622Y-123044349D01*
X117794510Y-123080516D01*
X117372069Y-123502958D01*
X117310746Y-123536443D01*
X117269865Y-123536425D01*
X117269712Y-123538058D01*
X117231770Y-123534500D01*
X117231766Y-123534500D01*
X116448234Y-123534500D01*
X116448230Y-123534500D01*
X116410288Y-123538058D01*
X116410055Y-123535574D01*
X116352363Y-123531491D01*
X116307929Y-123502958D01*
X115237682Y-122432711D01*
X115204197Y-122371388D01*
X115209181Y-122301696D01*
X115251053Y-122245763D01*
X115316517Y-122221346D01*
X115342491Y-122222219D01*
X115346461Y-122222772D01*
X115346461Y-122222771D01*
X115346465Y-122222773D01*
X115392780Y-122220632D01*
X115398505Y-122220500D01*
X115416543Y-122220500D01*
X115416544Y-122220500D01*
X115416544Y-122220499D01*
X115421431Y-122220046D01*
X115432018Y-122218817D01*
X115458692Y-122217585D01*
X115465022Y-122214789D01*
X115492329Y-122206332D01*
X115499133Y-122205061D01*
X115499135Y-122205059D01*
X115499137Y-122205059D01*
X115521838Y-122191003D01*
X115537025Y-122182996D01*
X115561465Y-122172206D01*
X115566361Y-122167309D01*
X115588769Y-122149561D01*
X115594652Y-122145919D01*
X115610753Y-122124595D01*
X115622014Y-122111655D01*
X115876751Y-121856919D01*
X115938074Y-121823434D01*
X115964432Y-121820600D01*
X116060562Y-121820600D01*
X116060562Y-121820599D01*
X116198653Y-121780053D01*
X116319728Y-121702243D01*
X116413977Y-121593473D01*
X116473765Y-121462557D01*
X116494247Y-121320100D01*
X116473765Y-121177643D01*
X116413977Y-121046727D01*
X116319728Y-120937957D01*
X116198653Y-120860147D01*
X116198651Y-120860146D01*
X116198649Y-120860145D01*
X116198650Y-120860145D01*
X116060563Y-120819600D01*
X116060561Y-120819600D01*
X115916639Y-120819600D01*
X115916636Y-120819600D01*
X115778549Y-120860145D01*
X115657473Y-120937956D01*
X115563223Y-121046726D01*
X115563222Y-121046728D01*
X115503434Y-121177643D01*
X115482953Y-121320100D01*
X115482953Y-121320101D01*
X115484261Y-121329203D01*
X115474313Y-121398361D01*
X115449203Y-121434524D01*
X115300546Y-121583182D01*
X115239226Y-121616666D01*
X115212867Y-121619500D01*
X115041519Y-121619500D01*
X114974480Y-121599815D01*
X114953838Y-121583181D01*
X114636819Y-121266162D01*
X114603334Y-121204839D01*
X114600500Y-121178481D01*
X114600500Y-120124000D01*
X114620185Y-120056961D01*
X114672989Y-120011206D01*
X114724500Y-120000000D01*
X115000000Y-120000000D01*
X115000000Y-119174500D01*
X115019685Y-119107461D01*
X115072489Y-119061706D01*
X115124000Y-119050500D01*
X115326000Y-119050500D01*
X115393039Y-119070185D01*
X115438794Y-119122989D01*
X115450000Y-119174500D01*
X115450000Y-120000000D01*
X115797828Y-120000000D01*
X115797844Y-119999999D01*
X115857372Y-119993598D01*
X115857383Y-119993595D01*
X115981666Y-119947240D01*
X116051357Y-119942255D01*
X116068334Y-119947240D01*
X116192616Y-119993595D01*
X116192627Y-119993598D01*
X116252155Y-119999999D01*
X116252172Y-120000000D01*
X117750000Y-120000000D01*
X117750000Y-114000000D01*
X116252155Y-114000000D01*
X116192627Y-114006401D01*
X116192620Y-114006403D01*
X116057913Y-114056645D01*
X116057906Y-114056649D01*
X115942813Y-114142808D01*
X115862712Y-114249811D01*
X115806778Y-114291682D01*
X115763445Y-114299500D01*
X114680247Y-114299500D01*
X114621770Y-114311131D01*
X114621770Y-114311132D01*
X114578958Y-114339738D01*
X114512281Y-114360615D01*
X114444901Y-114342130D01*
X114422387Y-114324316D01*
X114336319Y-114238248D01*
X114302834Y-114176925D01*
X114300000Y-114150567D01*
X114300000Y-109944333D01*
X114319685Y-109877294D01*
X114372489Y-109831539D01*
X114441647Y-109821595D01*
X114505203Y-109850620D01*
X114511681Y-109856652D01*
X116015681Y-111360652D01*
X116049166Y-111421975D01*
X116052000Y-111448333D01*
X116052000Y-112289269D01*
X116054853Y-112319699D01*
X116054853Y-112319701D01*
X116099706Y-112447880D01*
X116099707Y-112447882D01*
X116180350Y-112557150D01*
X116289618Y-112637793D01*
X116332345Y-112652744D01*
X116417799Y-112682646D01*
X116448230Y-112685500D01*
X116448234Y-112685500D01*
X117231770Y-112685500D01*
X117269713Y-112681942D01*
X117269946Y-112684435D01*
X117327585Y-112688489D01*
X117372070Y-112717041D01*
X117606439Y-112951410D01*
X117617710Y-112964362D01*
X117622439Y-112970625D01*
X117656717Y-113001874D01*
X117660858Y-113005829D01*
X117673603Y-113018574D01*
X117677331Y-113021670D01*
X117685724Y-113028318D01*
X117694524Y-113036340D01*
X117705464Y-113046314D01*
X117705465Y-113046314D01*
X117705467Y-113046316D01*
X117711930Y-113048819D01*
X117737207Y-113062143D01*
X117742919Y-113066056D01*
X117768914Y-113072169D01*
X117785310Y-113077246D01*
X117810227Y-113086900D01*
X117817151Y-113086900D01*
X117845541Y-113090193D01*
X117852281Y-113091779D01*
X117875055Y-113088601D01*
X117878734Y-113088089D01*
X117895864Y-113086900D01*
X121424567Y-113086900D01*
X121491606Y-113106585D01*
X121512248Y-113123219D01*
X121583181Y-113194152D01*
X121616666Y-113255475D01*
X121619500Y-113281833D01*
X121619500Y-114240356D01*
X121599815Y-114307395D01*
X121547011Y-114353150D01*
X121477853Y-114363094D01*
X121426609Y-114343458D01*
X121378230Y-114311132D01*
X121378229Y-114311131D01*
X121319752Y-114299500D01*
X121319748Y-114299500D01*
X120236556Y-114299500D01*
X120169517Y-114279815D01*
X120137290Y-114249811D01*
X120057190Y-114142812D01*
X120057187Y-114142809D01*
X119942093Y-114056649D01*
X119942086Y-114056645D01*
X119807379Y-114006403D01*
X119807372Y-114006401D01*
X119747844Y-114000000D01*
X118250000Y-114000000D01*
X118250000Y-120000000D01*
X119747828Y-120000000D01*
X119747844Y-119999999D01*
X119807372Y-119993598D01*
X119807379Y-119993596D01*
X119942086Y-119943354D01*
X119942093Y-119943350D01*
X120057187Y-119857190D01*
X120057190Y-119857187D01*
X120137290Y-119750189D01*
X120193223Y-119708318D01*
X120236556Y-119700500D01*
X120350500Y-119700500D01*
X120417539Y-119720185D01*
X120463294Y-119772989D01*
X120474500Y-119824500D01*
X120474500Y-120707861D01*
X120473312Y-120724988D01*
X120472227Y-120732765D01*
X120474368Y-120779079D01*
X120474500Y-120784804D01*
X120474500Y-120802842D01*
X120474947Y-120807671D01*
X120476181Y-120818305D01*
X120477415Y-120844992D01*
X120477416Y-120844997D01*
X120480214Y-120851334D01*
X120488664Y-120878620D01*
X120489937Y-120885429D01*
X120489937Y-120885430D01*
X120489939Y-120885433D01*
X120504001Y-120908146D01*
X120511997Y-120923315D01*
X120522794Y-120947765D01*
X120522795Y-120947766D01*
X120522796Y-120947768D01*
X120527689Y-120952661D01*
X120545435Y-120975065D01*
X120549077Y-120980948D01*
X120549079Y-120980950D01*
X120549080Y-120980951D01*
X120549081Y-120980952D01*
X120555059Y-120985466D01*
X120570396Y-120997048D01*
X120583350Y-121008321D01*
X123800042Y-124225014D01*
X123811313Y-124237966D01*
X123816039Y-124244225D01*
X123850306Y-124275464D01*
X123854447Y-124279419D01*
X123867201Y-124292173D01*
X123870942Y-124295279D01*
X123879334Y-124301927D01*
X123899062Y-124319912D01*
X123899065Y-124319914D01*
X123899067Y-124319916D01*
X123905523Y-124322417D01*
X123930807Y-124335743D01*
X123936520Y-124339657D01*
X123939275Y-124341544D01*
X123956876Y-124356161D01*
X124225725Y-124625010D01*
X124236996Y-124637962D01*
X124241725Y-124644225D01*
X124241727Y-124644227D01*
X124241728Y-124644228D01*
X124256547Y-124657737D01*
X124276003Y-124675474D01*
X124280144Y-124679429D01*
X124292889Y-124692174D01*
X124296617Y-124695270D01*
X124305010Y-124701918D01*
X124313810Y-124709940D01*
X124324750Y-124719914D01*
X124324751Y-124719914D01*
X124324753Y-124719916D01*
X124331216Y-124722419D01*
X124356493Y-124735743D01*
X124362205Y-124739656D01*
X124388200Y-124745769D01*
X124404596Y-124750846D01*
X124429513Y-124760500D01*
X124436437Y-124760500D01*
X124464827Y-124763793D01*
X124471567Y-124765379D01*
X124494341Y-124762201D01*
X124498020Y-124761689D01*
X124515150Y-124760500D01*
X128320962Y-124760500D01*
X128338090Y-124761689D01*
X128345861Y-124762772D01*
X128345861Y-124762771D01*
X128345865Y-124762773D01*
X128392180Y-124760632D01*
X128397905Y-124760500D01*
X128415943Y-124760500D01*
X128415944Y-124760500D01*
X128415944Y-124760499D01*
X128420831Y-124760046D01*
X128431418Y-124758817D01*
X128458092Y-124757585D01*
X128464422Y-124754789D01*
X128491729Y-124746332D01*
X128498533Y-124745061D01*
X128498535Y-124745059D01*
X128498537Y-124745059D01*
X128521238Y-124731003D01*
X128536425Y-124722996D01*
X128560865Y-124712206D01*
X128565761Y-124707309D01*
X128588169Y-124689561D01*
X128594052Y-124685919D01*
X128610153Y-124664595D01*
X128621414Y-124651655D01*
X130932328Y-122340742D01*
X130993649Y-122307259D01*
X131063341Y-122312243D01*
X131119274Y-122354115D01*
X131129363Y-122369969D01*
X131202315Y-122506450D01*
X131202317Y-122506452D01*
X131333589Y-122666410D01*
X131364953Y-122692149D01*
X131493550Y-122797685D01*
X131676046Y-122895232D01*
X131874066Y-122955300D01*
X131874065Y-122955300D01*
X131892529Y-122957118D01*
X132080000Y-122975583D01*
X132285934Y-122955300D01*
X132483954Y-122895232D01*
X132666450Y-122797685D01*
X132826410Y-122666410D01*
X132957685Y-122506450D01*
X133055232Y-122323954D01*
X133115300Y-122125934D01*
X133135583Y-121920000D01*
X133115300Y-121714066D01*
X133055232Y-121516046D01*
X132957685Y-121333550D01*
X132894959Y-121257118D01*
X132826410Y-121173589D01*
X132671826Y-121046727D01*
X132666450Y-121042315D01*
X132483954Y-120944768D01*
X132285934Y-120884700D01*
X132285932Y-120884699D01*
X132285934Y-120884699D01*
X132080000Y-120864417D01*
X131874067Y-120884699D01*
X131676043Y-120944769D01*
X131608351Y-120980952D01*
X131493550Y-121042315D01*
X131493548Y-121042316D01*
X131493547Y-121042317D01*
X131333589Y-121173589D01*
X131205882Y-121329203D01*
X131202315Y-121333550D01*
X131163643Y-121405898D01*
X131104769Y-121516043D01*
X131104768Y-121516045D01*
X131100642Y-121529648D01*
X131062344Y-121588086D01*
X130998531Y-121616542D01*
X130981802Y-121616502D01*
X130981811Y-121616697D01*
X130970336Y-121617227D01*
X130970335Y-121617227D01*
X130926309Y-121619262D01*
X130924020Y-121619368D01*
X130918295Y-121619500D01*
X130900256Y-121619500D01*
X130900251Y-121619500D01*
X130895432Y-121619947D01*
X130884796Y-121621181D01*
X130858105Y-121622415D01*
X130858104Y-121622415D01*
X130851758Y-121625217D01*
X130824485Y-121633663D01*
X130817670Y-121634937D01*
X130817665Y-121634939D01*
X130794956Y-121648999D01*
X130779773Y-121657002D01*
X130755334Y-121667793D01*
X130750429Y-121672698D01*
X130728039Y-121690433D01*
X130722149Y-121694080D01*
X130722144Y-121694084D01*
X130706053Y-121715392D01*
X130694782Y-121728344D01*
X128299948Y-124123181D01*
X128238625Y-124156666D01*
X128212267Y-124159500D01*
X128024833Y-124159500D01*
X127957794Y-124139815D01*
X127912039Y-124087011D01*
X127902095Y-124017853D01*
X127931120Y-123954297D01*
X127937152Y-123947819D01*
X128167470Y-123717500D01*
X128295611Y-123589358D01*
X128308563Y-123578088D01*
X128314823Y-123573360D01*
X128314828Y-123573358D01*
X128346088Y-123539066D01*
X128350002Y-123534967D01*
X128362774Y-123522197D01*
X128362775Y-123522196D01*
X128365882Y-123518454D01*
X128372516Y-123510076D01*
X128390516Y-123490333D01*
X128393016Y-123483878D01*
X128406349Y-123458582D01*
X128410256Y-123452881D01*
X128416370Y-123426881D01*
X128421446Y-123410489D01*
X128431100Y-123385573D01*
X128431100Y-123378648D01*
X128434395Y-123350255D01*
X128435978Y-123343523D01*
X128435979Y-123343519D01*
X128432289Y-123317065D01*
X128431100Y-123299935D01*
X128431100Y-119804500D01*
X128450785Y-119737461D01*
X128503589Y-119691706D01*
X128555100Y-119680500D01*
X130981421Y-119680500D01*
X131048460Y-119700185D01*
X131094215Y-119752989D01*
X131100081Y-119768503D01*
X131104768Y-119783954D01*
X131202315Y-119966450D01*
X131223521Y-119992290D01*
X131333589Y-120126410D01*
X131366381Y-120153321D01*
X131493550Y-120257685D01*
X131676046Y-120355232D01*
X131874066Y-120415300D01*
X131874065Y-120415300D01*
X131892529Y-120417118D01*
X132080000Y-120435583D01*
X132285934Y-120415300D01*
X132483954Y-120355232D01*
X132666450Y-120257685D01*
X132826410Y-120126410D01*
X132957685Y-119966450D01*
X133055232Y-119783954D01*
X133115300Y-119585934D01*
X133135583Y-119380000D01*
X133115300Y-119174066D01*
X133055232Y-118976046D01*
X132957685Y-118793550D01*
X132848146Y-118660075D01*
X132826410Y-118633589D01*
X132674387Y-118508829D01*
X132666450Y-118502315D01*
X132496554Y-118411502D01*
X132483956Y-118404769D01*
X132483955Y-118404768D01*
X132483954Y-118404768D01*
X132285934Y-118344700D01*
X132285932Y-118344699D01*
X132285934Y-118344699D01*
X132080000Y-118324417D01*
X131874067Y-118344699D01*
X131676043Y-118404769D01*
X131577454Y-118457467D01*
X131493550Y-118502315D01*
X131493548Y-118502316D01*
X131493547Y-118502317D01*
X131333589Y-118633589D01*
X131202317Y-118793547D01*
X131104769Y-118976043D01*
X131104768Y-118976046D01*
X131100081Y-118991497D01*
X131061783Y-119049935D01*
X130997970Y-119078391D01*
X130981421Y-119079500D01*
X128555100Y-119079500D01*
X128488061Y-119059815D01*
X128442306Y-119007011D01*
X128431100Y-118955500D01*
X128431100Y-118577736D01*
X128432289Y-118560605D01*
X128433371Y-118552839D01*
X128433373Y-118552835D01*
X128431232Y-118506520D01*
X128431100Y-118500795D01*
X128431100Y-118482759D01*
X128430646Y-118477866D01*
X128429417Y-118467280D01*
X128428185Y-118440608D01*
X128425388Y-118434275D01*
X128416932Y-118406968D01*
X128415661Y-118400167D01*
X128401599Y-118377456D01*
X128393598Y-118362278D01*
X128382806Y-118337835D01*
X128377909Y-118332938D01*
X128360163Y-118310534D01*
X128356518Y-118304647D01*
X128356517Y-118304646D01*
X128335202Y-118288550D01*
X128322248Y-118277277D01*
X127296819Y-117251848D01*
X127263334Y-117190525D01*
X127260500Y-117164167D01*
X127260500Y-116335730D01*
X127257646Y-116305300D01*
X127257646Y-116305298D01*
X127212793Y-116177119D01*
X127212792Y-116177117D01*
X127132150Y-116067850D01*
X127022882Y-115987207D01*
X127022880Y-115987206D01*
X126894700Y-115942353D01*
X126864270Y-115939500D01*
X126864266Y-115939500D01*
X126055734Y-115939500D01*
X126055730Y-115939500D01*
X126025300Y-115942353D01*
X126025298Y-115942353D01*
X125897119Y-115987206D01*
X125897117Y-115987207D01*
X125787850Y-116067850D01*
X125707207Y-116177117D01*
X125707206Y-116177119D01*
X125662353Y-116305298D01*
X125662353Y-116305300D01*
X125659500Y-116335730D01*
X125659500Y-117344269D01*
X125662353Y-117374699D01*
X125662353Y-117374701D01*
X125707206Y-117502880D01*
X125707207Y-117502882D01*
X125787850Y-117612150D01*
X125897118Y-117692793D01*
X125930729Y-117704554D01*
X126025299Y-117737646D01*
X126055730Y-117740500D01*
X126055734Y-117740500D01*
X126864267Y-117740500D01*
X126871379Y-117739833D01*
X126939963Y-117753171D01*
X126970639Y-117775610D01*
X127793781Y-118598752D01*
X127827266Y-118660075D01*
X127830100Y-118686433D01*
X127830100Y-119320784D01*
X127827037Y-119342745D01*
X127826199Y-119351791D01*
X127829571Y-119388182D01*
X127830100Y-119399623D01*
X127830100Y-123153566D01*
X127810415Y-123220605D01*
X127793781Y-123241247D01*
X127311848Y-123723181D01*
X127250525Y-123756666D01*
X127224167Y-123759500D01*
X125113833Y-123759500D01*
X125046794Y-123739815D01*
X125026152Y-123723181D01*
X124335152Y-123032181D01*
X124301667Y-122970858D01*
X124306651Y-122901166D01*
X124348523Y-122845233D01*
X124413987Y-122820816D01*
X124422833Y-122820500D01*
X124864270Y-122820500D01*
X124894699Y-122817646D01*
X124894701Y-122817646D01*
X124958790Y-122795219D01*
X125022882Y-122772793D01*
X125132150Y-122692150D01*
X125212793Y-122582882D01*
X125239538Y-122506450D01*
X125257646Y-122454701D01*
X125257646Y-122454699D01*
X125260500Y-122424269D01*
X125260500Y-121444833D01*
X125280185Y-121377794D01*
X125332989Y-121332039D01*
X125402147Y-121322095D01*
X125465703Y-121351120D01*
X125472181Y-121357152D01*
X125623181Y-121508152D01*
X125656666Y-121569475D01*
X125659500Y-121595833D01*
X125659500Y-122424269D01*
X125662353Y-122454699D01*
X125662353Y-122454701D01*
X125707206Y-122582880D01*
X125707207Y-122582882D01*
X125787850Y-122692150D01*
X125897118Y-122772793D01*
X125939845Y-122787744D01*
X126025299Y-122817646D01*
X126055730Y-122820500D01*
X126055734Y-122820500D01*
X126864270Y-122820500D01*
X126894699Y-122817646D01*
X126894701Y-122817646D01*
X126958790Y-122795219D01*
X127022882Y-122772793D01*
X127132150Y-122692150D01*
X127212793Y-122582882D01*
X127239538Y-122506450D01*
X127257646Y-122454701D01*
X127257646Y-122454699D01*
X127260500Y-122424269D01*
X127260500Y-121415730D01*
X127257646Y-121385300D01*
X127257646Y-121385298D01*
X127217032Y-121269233D01*
X127212793Y-121257118D01*
X127132150Y-121147850D01*
X127022882Y-121067207D01*
X127022880Y-121067206D01*
X126894700Y-121022353D01*
X126864270Y-121019500D01*
X126864266Y-121019500D01*
X126055734Y-121019500D01*
X126055727Y-121019500D01*
X126048607Y-121020167D01*
X125980024Y-121006822D01*
X125949360Y-120984389D01*
X124796819Y-119831848D01*
X124763334Y-119770525D01*
X124760500Y-119744167D01*
X124760500Y-117863146D01*
X124780185Y-117796107D01*
X124832989Y-117750352D01*
X124872919Y-117739688D01*
X124894699Y-117737646D01*
X124894701Y-117737645D01*
X124894704Y-117737645D01*
X124960991Y-117714449D01*
X125022882Y-117692793D01*
X125132150Y-117612150D01*
X125212793Y-117502882D01*
X125239870Y-117425500D01*
X125257646Y-117374701D01*
X125257646Y-117374699D01*
X125260500Y-117344269D01*
X125260500Y-116335730D01*
X125257646Y-116305300D01*
X125257646Y-116305298D01*
X125212793Y-116177119D01*
X125212792Y-116177117D01*
X125132150Y-116067850D01*
X125022882Y-115987207D01*
X125022880Y-115987206D01*
X124894700Y-115942353D01*
X124864270Y-115939500D01*
X124864266Y-115939500D01*
X124055734Y-115939500D01*
X124055730Y-115939500D01*
X124025300Y-115942353D01*
X124025298Y-115942353D01*
X123897119Y-115987206D01*
X123897117Y-115987207D01*
X123787850Y-116067850D01*
X123707207Y-116177117D01*
X123707206Y-116177119D01*
X123667198Y-116291455D01*
X123626476Y-116348231D01*
X123561523Y-116373978D01*
X123550157Y-116374500D01*
X122026400Y-116374500D01*
X121959361Y-116354815D01*
X121913606Y-116302011D01*
X121902400Y-116250500D01*
X121902400Y-116084216D01*
X121905461Y-116062276D01*
X121906301Y-116053207D01*
X121902929Y-116016817D01*
X121902400Y-116005376D01*
X121902400Y-115434216D01*
X121905461Y-115412276D01*
X121906301Y-115403207D01*
X121902929Y-115366817D01*
X121902400Y-115355376D01*
X121902400Y-115347155D01*
X121900890Y-115339079D01*
X121899307Y-115327731D01*
X121894875Y-115279898D01*
X121897111Y-115279690D01*
X121897563Y-115225165D01*
X121928564Y-115173405D01*
X122085011Y-115016958D01*
X122097963Y-115005688D01*
X122104223Y-115000960D01*
X122104228Y-115000958D01*
X122135488Y-114966666D01*
X122139402Y-114962567D01*
X122152174Y-114949797D01*
X122152175Y-114949796D01*
X122155282Y-114946054D01*
X122161916Y-114937676D01*
X122179916Y-114917933D01*
X122182417Y-114911476D01*
X122195750Y-114886184D01*
X122195766Y-114886159D01*
X122199657Y-114880481D01*
X122205772Y-114854478D01*
X122210854Y-114838071D01*
X122220500Y-114813173D01*
X122220500Y-114806248D01*
X122223794Y-114777856D01*
X122225379Y-114771119D01*
X122221689Y-114744665D01*
X122220500Y-114727535D01*
X122220500Y-114130833D01*
X122240185Y-114063794D01*
X122292989Y-114018039D01*
X122362147Y-114008095D01*
X122425703Y-114037120D01*
X122432176Y-114043147D01*
X122668843Y-114279815D01*
X122854042Y-114465014D01*
X122865313Y-114477966D01*
X122870039Y-114484225D01*
X122904306Y-114515464D01*
X122908447Y-114519419D01*
X122921201Y-114532173D01*
X122924942Y-114535279D01*
X122933334Y-114541927D01*
X122953062Y-114559912D01*
X122953063Y-114559913D01*
X122953067Y-114559916D01*
X122953070Y-114559917D01*
X122959521Y-114562416D01*
X122984806Y-114575743D01*
X122990520Y-114579657D01*
X123016517Y-114585771D01*
X123032918Y-114590851D01*
X123057824Y-114600500D01*
X123057827Y-114600500D01*
X123064752Y-114600500D01*
X123093140Y-114603793D01*
X123099881Y-114605379D01*
X123126333Y-114601689D01*
X123143464Y-114600500D01*
X126541499Y-114600500D01*
X126608538Y-114620185D01*
X126635211Y-114643296D01*
X126668872Y-114682143D01*
X126789947Y-114759953D01*
X126789950Y-114759954D01*
X126789949Y-114759954D01*
X126874160Y-114784680D01*
X126926336Y-114800000D01*
X126928036Y-114800499D01*
X126928038Y-114800500D01*
X126928039Y-114800500D01*
X127071962Y-114800500D01*
X127071962Y-114800499D01*
X127210053Y-114759953D01*
X127331128Y-114682143D01*
X127425377Y-114573373D01*
X127485165Y-114442457D01*
X127505647Y-114300000D01*
X127485165Y-114157543D01*
X127425377Y-114026627D01*
X127331128Y-113917857D01*
X127210053Y-113840047D01*
X127210051Y-113840046D01*
X127210049Y-113840045D01*
X127210050Y-113840045D01*
X127071963Y-113799500D01*
X127071961Y-113799500D01*
X126928039Y-113799500D01*
X126928036Y-113799500D01*
X126789949Y-113840045D01*
X126668873Y-113917856D01*
X126635212Y-113956703D01*
X126576433Y-113994477D01*
X126541499Y-113999500D01*
X123289833Y-113999500D01*
X123222794Y-113979815D01*
X123202152Y-113963181D01*
X122189647Y-112950676D01*
X122189645Y-112950673D01*
X122167309Y-112928337D01*
X122149561Y-112905931D01*
X122145918Y-112900047D01*
X122124606Y-112883953D01*
X122111652Y-112872680D01*
X121871547Y-112632576D01*
X121871545Y-112632573D01*
X121860359Y-112621387D01*
X121849084Y-112608430D01*
X121844357Y-112602170D01*
X121810085Y-112570926D01*
X121805944Y-112566972D01*
X121793199Y-112554227D01*
X121789464Y-112551125D01*
X121781076Y-112544481D01*
X121761333Y-112526484D01*
X121754870Y-112523980D01*
X121729592Y-112510656D01*
X121723881Y-112506744D01*
X121723878Y-112506743D01*
X121723879Y-112506743D01*
X121697883Y-112500628D01*
X121681489Y-112495551D01*
X121656574Y-112485900D01*
X121656573Y-112485900D01*
X121649649Y-112485900D01*
X121621258Y-112482606D01*
X121614519Y-112481021D01*
X121588066Y-112484711D01*
X121570936Y-112485900D01*
X119816752Y-112485900D01*
X119749713Y-112466215D01*
X119703958Y-112413411D01*
X119694014Y-112344253D01*
X119699710Y-112320947D01*
X119700146Y-112319700D01*
X119700146Y-112319699D01*
X119703000Y-112289269D01*
X119703000Y-111230730D01*
X119700146Y-111200300D01*
X119700146Y-111200298D01*
X119655293Y-111072119D01*
X119655292Y-111072117D01*
X119654173Y-111070601D01*
X119574650Y-110962850D01*
X119465382Y-110882207D01*
X119465380Y-110882206D01*
X119337200Y-110837353D01*
X119306770Y-110834500D01*
X119306766Y-110834500D01*
X118523234Y-110834500D01*
X118523230Y-110834500D01*
X118492800Y-110837353D01*
X118492798Y-110837353D01*
X118364619Y-110882206D01*
X118364613Y-110882209D01*
X118339293Y-110900897D01*
X118273664Y-110924868D01*
X118205494Y-110909552D01*
X118177979Y-110888808D01*
X113516171Y-106227000D01*
X116334353Y-106227000D01*
X116354834Y-106369456D01*
X116400836Y-106470185D01*
X116414623Y-106500373D01*
X116508872Y-106609143D01*
X116629947Y-106686953D01*
X116629950Y-106686954D01*
X116629949Y-106686954D01*
X116768036Y-106727499D01*
X116768038Y-106727500D01*
X116768039Y-106727500D01*
X116911962Y-106727500D01*
X116911962Y-106727499D01*
X117050053Y-106686953D01*
X117171128Y-106609143D01*
X117204788Y-106570296D01*
X117263567Y-106532523D01*
X117298501Y-106527500D01*
X123535500Y-106527500D01*
X123602539Y-106547185D01*
X123648294Y-106599989D01*
X123659500Y-106651500D01*
X123659500Y-107184269D01*
X123662353Y-107214699D01*
X123662353Y-107214701D01*
X123707206Y-107342880D01*
X123707207Y-107342882D01*
X123787850Y-107452150D01*
X123897118Y-107532793D01*
X123928063Y-107543621D01*
X124025295Y-107577645D01*
X124025299Y-107577645D01*
X124025301Y-107577646D01*
X124047078Y-107579688D01*
X124111984Y-107605544D01*
X124152610Y-107662388D01*
X124159500Y-107703146D01*
X124159500Y-110736853D01*
X124139815Y-110803892D01*
X124087011Y-110849647D01*
X124047079Y-110860311D01*
X124025300Y-110862353D01*
X124025298Y-110862353D01*
X123897119Y-110907206D01*
X123897117Y-110907207D01*
X123787850Y-110987850D01*
X123707207Y-111097117D01*
X123707206Y-111097119D01*
X123662353Y-111225298D01*
X123662353Y-111225300D01*
X123659500Y-111255730D01*
X123659500Y-112264269D01*
X123662353Y-112294699D01*
X123662353Y-112294701D01*
X123701701Y-112407147D01*
X123707207Y-112422882D01*
X123787850Y-112532150D01*
X123897118Y-112612793D01*
X123939845Y-112627744D01*
X124025299Y-112657646D01*
X124055730Y-112660500D01*
X124055734Y-112660500D01*
X124864270Y-112660500D01*
X124894699Y-112657646D01*
X124894701Y-112657646D01*
X124966354Y-112632573D01*
X125022882Y-112612793D01*
X125132150Y-112532150D01*
X125193225Y-112449395D01*
X125248870Y-112407147D01*
X125318526Y-112401688D01*
X125380075Y-112434755D01*
X125410699Y-112484026D01*
X125425642Y-112529121D01*
X125425643Y-112529124D01*
X125517684Y-112678345D01*
X125641654Y-112802315D01*
X125790875Y-112894356D01*
X125790880Y-112894358D01*
X125957302Y-112949505D01*
X125957309Y-112949506D01*
X126060019Y-112959999D01*
X126209999Y-112959999D01*
X126210000Y-112959998D01*
X126210000Y-112010000D01*
X126710000Y-112010000D01*
X126710000Y-112959999D01*
X126859972Y-112959999D01*
X126859986Y-112959998D01*
X126962697Y-112949505D01*
X127129119Y-112894358D01*
X127129124Y-112894356D01*
X127278345Y-112802315D01*
X127402315Y-112678345D01*
X127494356Y-112529124D01*
X127494358Y-112529119D01*
X127549505Y-112362697D01*
X127549506Y-112362690D01*
X127559999Y-112259986D01*
X127560000Y-112259973D01*
X127560000Y-112010000D01*
X126710000Y-112010000D01*
X126210000Y-112010000D01*
X126210000Y-110560000D01*
X126710000Y-110560000D01*
X126710000Y-111510000D01*
X127559999Y-111510000D01*
X127559999Y-111260028D01*
X127559998Y-111260013D01*
X127549505Y-111157302D01*
X127494358Y-110990880D01*
X127494356Y-110990875D01*
X127402315Y-110841654D01*
X127278345Y-110717684D01*
X127129124Y-110625643D01*
X127129119Y-110625641D01*
X126962697Y-110570494D01*
X126962690Y-110570493D01*
X126859986Y-110560000D01*
X126710000Y-110560000D01*
X126210000Y-110560000D01*
X126060027Y-110560000D01*
X126060012Y-110560001D01*
X125957302Y-110570494D01*
X125790880Y-110625641D01*
X125790875Y-110625643D01*
X125641654Y-110717684D01*
X125517684Y-110841654D01*
X125425643Y-110990875D01*
X125425640Y-110990883D01*
X125410698Y-111035974D01*
X125370925Y-111093418D01*
X125306409Y-111120240D01*
X125237633Y-111107924D01*
X125193223Y-111070601D01*
X125132151Y-110987851D01*
X125022882Y-110907207D01*
X125022880Y-110907206D01*
X124894700Y-110862353D01*
X124872921Y-110860311D01*
X124808013Y-110834453D01*
X124767388Y-110777607D01*
X124760500Y-110736853D01*
X124760500Y-107703146D01*
X124780185Y-107636107D01*
X124832989Y-107590352D01*
X124872919Y-107579688D01*
X124894699Y-107577646D01*
X124894701Y-107577645D01*
X124894704Y-107577645D01*
X124960991Y-107554449D01*
X125022882Y-107532793D01*
X125132150Y-107452150D01*
X125212793Y-107342882D01*
X125235219Y-107278790D01*
X125257646Y-107214701D01*
X125257646Y-107214699D01*
X125260500Y-107184269D01*
X125260500Y-106175730D01*
X125257646Y-106145300D01*
X125257646Y-106145298D01*
X125212793Y-106017119D01*
X125212792Y-106017117D01*
X125132150Y-105907850D01*
X125022882Y-105827207D01*
X125022880Y-105827206D01*
X124894700Y-105782353D01*
X124864270Y-105779500D01*
X124864266Y-105779500D01*
X124055734Y-105779500D01*
X124055730Y-105779500D01*
X124025300Y-105782353D01*
X124025298Y-105782353D01*
X123897119Y-105827206D01*
X123897118Y-105827207D01*
X123795409Y-105902271D01*
X123729780Y-105926241D01*
X123721776Y-105926500D01*
X117298501Y-105926500D01*
X117231462Y-105906815D01*
X117204788Y-105883703D01*
X117171128Y-105844857D01*
X117050053Y-105767047D01*
X117050051Y-105767046D01*
X117050049Y-105767045D01*
X117050050Y-105767045D01*
X116911963Y-105726500D01*
X116911961Y-105726500D01*
X116768039Y-105726500D01*
X116768036Y-105726500D01*
X116629949Y-105767045D01*
X116508873Y-105844856D01*
X116414623Y-105953626D01*
X116414622Y-105953628D01*
X116354834Y-106084543D01*
X116334353Y-106227000D01*
X113516171Y-106227000D01*
X113136819Y-105847648D01*
X113103334Y-105786325D01*
X113100500Y-105759967D01*
X113100500Y-103945730D01*
X113097646Y-103915300D01*
X113097646Y-103915298D01*
X113052793Y-103787119D01*
X113052792Y-103787117D01*
X112972150Y-103677850D01*
X112862882Y-103597207D01*
X112862880Y-103597206D01*
X112734700Y-103552353D01*
X112704270Y-103549500D01*
X112704266Y-103549500D01*
X108695734Y-103549500D01*
X108695730Y-103549500D01*
X108665300Y-103552353D01*
X108665298Y-103552353D01*
X108537119Y-103597206D01*
X108537117Y-103597207D01*
X108427850Y-103677850D01*
X108347207Y-103787117D01*
X108347206Y-103787119D01*
X108302353Y-103915298D01*
X108302353Y-103915300D01*
X108299500Y-103945730D01*
X108299500Y-106054269D01*
X108302353Y-106084699D01*
X108302353Y-106084701D01*
X108334208Y-106175734D01*
X108347207Y-106212882D01*
X108427850Y-106322150D01*
X108537118Y-106402793D01*
X108564528Y-106412384D01*
X108665299Y-106447646D01*
X108695730Y-106450500D01*
X108695734Y-106450500D01*
X112704270Y-106450500D01*
X112728612Y-106448216D01*
X112734699Y-106447646D01*
X112773886Y-106433934D01*
X112843665Y-106430371D01*
X112902523Y-106463294D01*
X117062048Y-110622819D01*
X117095533Y-110684142D01*
X117090549Y-110753834D01*
X117048677Y-110809767D01*
X116983213Y-110834184D01*
X116974367Y-110834500D01*
X116448230Y-110834500D01*
X116410288Y-110838058D01*
X116410055Y-110835574D01*
X116352363Y-110831491D01*
X116307929Y-110802958D01*
X114496362Y-108991391D01*
X114485087Y-108978435D01*
X114480355Y-108972168D01*
X114446083Y-108940925D01*
X114441960Y-108936989D01*
X114429197Y-108924226D01*
X114429196Y-108924225D01*
X114429194Y-108924223D01*
X114425477Y-108921137D01*
X114417079Y-108914484D01*
X114397333Y-108896484D01*
X114390870Y-108893980D01*
X114365592Y-108880656D01*
X114359881Y-108876744D01*
X114359878Y-108876743D01*
X114359879Y-108876743D01*
X114333883Y-108870628D01*
X114317489Y-108865551D01*
X114292574Y-108855900D01*
X114292573Y-108855900D01*
X114285649Y-108855900D01*
X114257258Y-108852606D01*
X114250519Y-108851021D01*
X114224066Y-108854711D01*
X114206936Y-108855900D01*
X107632233Y-108855900D01*
X107565194Y-108836215D01*
X107544552Y-108819581D01*
X105354174Y-106629203D01*
X105320689Y-106567880D01*
X105325673Y-106498188D01*
X105367545Y-106442255D01*
X105400895Y-106424482D01*
X105462882Y-106402793D01*
X105572150Y-106322150D01*
X105652793Y-106212882D01*
X105676442Y-106145298D01*
X105697646Y-106084701D01*
X105697646Y-106084699D01*
X105700500Y-106054269D01*
X105700500Y-103945730D01*
X105697646Y-103915300D01*
X105697646Y-103915298D01*
X105652793Y-103787119D01*
X105652792Y-103787117D01*
X105572150Y-103677850D01*
X105462882Y-103597207D01*
X105462880Y-103597206D01*
X105334700Y-103552353D01*
X105304270Y-103549500D01*
X105304266Y-103549500D01*
X101295734Y-103549500D01*
X101295730Y-103549500D01*
X101265300Y-103552353D01*
X101265298Y-103552353D01*
X101137119Y-103597206D01*
X101137117Y-103597207D01*
X101027850Y-103677850D01*
X100947207Y-103787117D01*
X100947206Y-103787119D01*
X100902353Y-103915298D01*
X100902353Y-103915300D01*
X100899500Y-103945730D01*
X100899500Y-106054269D01*
X100902353Y-106084699D01*
X100902353Y-106084701D01*
X100934208Y-106175734D01*
X100947207Y-106212882D01*
X101027850Y-106322150D01*
X101137118Y-106402793D01*
X101164528Y-106412384D01*
X101265299Y-106447646D01*
X101295730Y-106450500D01*
X101295734Y-106450500D01*
X104274167Y-106450500D01*
X104341206Y-106470185D01*
X104361848Y-106486819D01*
X106883348Y-109008319D01*
X106916833Y-109069642D01*
X106911849Y-109139334D01*
X106869977Y-109195267D01*
X106804513Y-109219684D01*
X106795667Y-109220000D01*
X100624500Y-109220000D01*
X100557461Y-109200315D01*
X100511706Y-109147511D01*
X100500500Y-109096000D01*
X100500500Y-100624500D01*
X100520185Y-100557461D01*
X100572989Y-100511706D01*
X100624500Y-100500500D01*
X134375500Y-100500500D01*
X134442539Y-100520185D01*
G37*
%TD.AperFunction*%
%TA.AperFunction,Conductor*%
G36*
X115393039Y-115820185D02*
G01*
X115438794Y-115872989D01*
X115450000Y-115924500D01*
X115450000Y-117425500D01*
X115430315Y-117492539D01*
X115377511Y-117538294D01*
X115326000Y-117549500D01*
X115124000Y-117549500D01*
X115056961Y-117529815D01*
X115011206Y-117477011D01*
X115000000Y-117425500D01*
X115000000Y-115924500D01*
X115019685Y-115857461D01*
X115072489Y-115811706D01*
X115124000Y-115800500D01*
X115326000Y-115800500D01*
X115393039Y-115820185D01*
G37*
%TD.AperFunction*%
%TD*%
M02*
