%TF.GenerationSoftware,KiCad,Pcbnew,7.0.11+dfsg-1build4*%
%TF.CreationDate,2026-01-16T21:01:49-05:00*%
%TF.ProjectId,tps6103x,74707336-3130-4337-982e-6b696361645f,rev?*%
%TF.SameCoordinates,Original*%
%TF.FileFunction,Legend,Bot*%
%TF.FilePolarity,Positive*%
%FSLAX46Y46*%
G04 Gerber Fmt 4.6, Leading zero omitted, Abs format (unit mm)*
G04 Created by KiCad (PCBNEW 7.0.11+dfsg-1build4) date 2026-01-16 21:01:49*
%MOMM*%
%LPD*%
G01*
G04 APERTURE LIST*
%ADD10C,0.175000*%
%ADD11C,0.300000*%
G04 APERTURE END LIST*
D10*
X127418202Y-110965233D02*
X127184869Y-111665233D01*
X127184869Y-111665233D02*
X126951535Y-110965233D01*
X126584869Y-110965233D02*
X126451535Y-110965233D01*
X126451535Y-110965233D02*
X126384869Y-110998566D01*
X126384869Y-110998566D02*
X126318202Y-111065233D01*
X126318202Y-111065233D02*
X126284869Y-111198566D01*
X126284869Y-111198566D02*
X126284869Y-111431900D01*
X126284869Y-111431900D02*
X126318202Y-111565233D01*
X126318202Y-111565233D02*
X126384869Y-111631900D01*
X126384869Y-111631900D02*
X126451535Y-111665233D01*
X126451535Y-111665233D02*
X126584869Y-111665233D01*
X126584869Y-111665233D02*
X126651535Y-111631900D01*
X126651535Y-111631900D02*
X126718202Y-111565233D01*
X126718202Y-111565233D02*
X126751535Y-111431900D01*
X126751535Y-111431900D02*
X126751535Y-111198566D01*
X126751535Y-111198566D02*
X126718202Y-111065233D01*
X126718202Y-111065233D02*
X126651535Y-110998566D01*
X126651535Y-110998566D02*
X126584869Y-110965233D01*
X125984869Y-110965233D02*
X125984869Y-111531900D01*
X125984869Y-111531900D02*
X125951536Y-111598566D01*
X125951536Y-111598566D02*
X125918202Y-111631900D01*
X125918202Y-111631900D02*
X125851536Y-111665233D01*
X125851536Y-111665233D02*
X125718202Y-111665233D01*
X125718202Y-111665233D02*
X125651536Y-111631900D01*
X125651536Y-111631900D02*
X125618202Y-111598566D01*
X125618202Y-111598566D02*
X125584869Y-111531900D01*
X125584869Y-111531900D02*
X125584869Y-110965233D01*
X125351536Y-110965233D02*
X124951536Y-110965233D01*
X125151536Y-111665233D02*
X125151536Y-110965233D01*
X126718202Y-121458566D02*
X126484869Y-121458566D01*
X126384869Y-121825233D02*
X126718202Y-121825233D01*
X126718202Y-121825233D02*
X126718202Y-121125233D01*
X126718202Y-121125233D02*
X126384869Y-121125233D01*
X126084869Y-121825233D02*
X126084869Y-121125233D01*
X126084869Y-121125233D02*
X125684869Y-121825233D01*
X125684869Y-121825233D02*
X125684869Y-121125233D01*
X126818202Y-116045233D02*
X126584869Y-116745233D01*
X126584869Y-116745233D02*
X126351535Y-116045233D01*
X126118202Y-116745233D02*
X126118202Y-116045233D01*
X125784869Y-116745233D02*
X125784869Y-116045233D01*
X125784869Y-116045233D02*
X125384869Y-116745233D01*
X125384869Y-116745233D02*
X125384869Y-116045233D01*
D11*
X111419774Y-130380828D02*
X110562632Y-130380828D01*
X110991203Y-131880828D02*
X110991203Y-130380828D01*
X110062632Y-131880828D02*
X110062632Y-130380828D01*
X110062632Y-130380828D02*
X109491203Y-130380828D01*
X109491203Y-130380828D02*
X109348346Y-130452257D01*
X109348346Y-130452257D02*
X109276917Y-130523685D01*
X109276917Y-130523685D02*
X109205489Y-130666542D01*
X109205489Y-130666542D02*
X109205489Y-130880828D01*
X109205489Y-130880828D02*
X109276917Y-131023685D01*
X109276917Y-131023685D02*
X109348346Y-131095114D01*
X109348346Y-131095114D02*
X109491203Y-131166542D01*
X109491203Y-131166542D02*
X110062632Y-131166542D01*
X108634060Y-131809400D02*
X108419775Y-131880828D01*
X108419775Y-131880828D02*
X108062632Y-131880828D01*
X108062632Y-131880828D02*
X107919775Y-131809400D01*
X107919775Y-131809400D02*
X107848346Y-131737971D01*
X107848346Y-131737971D02*
X107776917Y-131595114D01*
X107776917Y-131595114D02*
X107776917Y-131452257D01*
X107776917Y-131452257D02*
X107848346Y-131309400D01*
X107848346Y-131309400D02*
X107919775Y-131237971D01*
X107919775Y-131237971D02*
X108062632Y-131166542D01*
X108062632Y-131166542D02*
X108348346Y-131095114D01*
X108348346Y-131095114D02*
X108491203Y-131023685D01*
X108491203Y-131023685D02*
X108562632Y-130952257D01*
X108562632Y-130952257D02*
X108634060Y-130809400D01*
X108634060Y-130809400D02*
X108634060Y-130666542D01*
X108634060Y-130666542D02*
X108562632Y-130523685D01*
X108562632Y-130523685D02*
X108491203Y-130452257D01*
X108491203Y-130452257D02*
X108348346Y-130380828D01*
X108348346Y-130380828D02*
X107991203Y-130380828D01*
X107991203Y-130380828D02*
X107776917Y-130452257D01*
X106491204Y-130380828D02*
X106776918Y-130380828D01*
X106776918Y-130380828D02*
X106919775Y-130452257D01*
X106919775Y-130452257D02*
X106991204Y-130523685D01*
X106991204Y-130523685D02*
X107134061Y-130737971D01*
X107134061Y-130737971D02*
X107205489Y-131023685D01*
X107205489Y-131023685D02*
X107205489Y-131595114D01*
X107205489Y-131595114D02*
X107134061Y-131737971D01*
X107134061Y-131737971D02*
X107062632Y-131809400D01*
X107062632Y-131809400D02*
X106919775Y-131880828D01*
X106919775Y-131880828D02*
X106634061Y-131880828D01*
X106634061Y-131880828D02*
X106491204Y-131809400D01*
X106491204Y-131809400D02*
X106419775Y-131737971D01*
X106419775Y-131737971D02*
X106348346Y-131595114D01*
X106348346Y-131595114D02*
X106348346Y-131237971D01*
X106348346Y-131237971D02*
X106419775Y-131095114D01*
X106419775Y-131095114D02*
X106491204Y-131023685D01*
X106491204Y-131023685D02*
X106634061Y-130952257D01*
X106634061Y-130952257D02*
X106919775Y-130952257D01*
X106919775Y-130952257D02*
X107062632Y-131023685D01*
X107062632Y-131023685D02*
X107134061Y-131095114D01*
X107134061Y-131095114D02*
X107205489Y-131237971D01*
X104919775Y-131880828D02*
X105776918Y-131880828D01*
X105348347Y-131880828D02*
X105348347Y-130380828D01*
X105348347Y-130380828D02*
X105491204Y-130595114D01*
X105491204Y-130595114D02*
X105634061Y-130737971D01*
X105634061Y-130737971D02*
X105776918Y-130809400D01*
X103991204Y-130380828D02*
X103848347Y-130380828D01*
X103848347Y-130380828D02*
X103705490Y-130452257D01*
X103705490Y-130452257D02*
X103634062Y-130523685D01*
X103634062Y-130523685D02*
X103562633Y-130666542D01*
X103562633Y-130666542D02*
X103491204Y-130952257D01*
X103491204Y-130952257D02*
X103491204Y-131309400D01*
X103491204Y-131309400D02*
X103562633Y-131595114D01*
X103562633Y-131595114D02*
X103634062Y-131737971D01*
X103634062Y-131737971D02*
X103705490Y-131809400D01*
X103705490Y-131809400D02*
X103848347Y-131880828D01*
X103848347Y-131880828D02*
X103991204Y-131880828D01*
X103991204Y-131880828D02*
X104134062Y-131809400D01*
X104134062Y-131809400D02*
X104205490Y-131737971D01*
X104205490Y-131737971D02*
X104276919Y-131595114D01*
X104276919Y-131595114D02*
X104348347Y-131309400D01*
X104348347Y-131309400D02*
X104348347Y-130952257D01*
X104348347Y-130952257D02*
X104276919Y-130666542D01*
X104276919Y-130666542D02*
X104205490Y-130523685D01*
X104205490Y-130523685D02*
X104134062Y-130452257D01*
X104134062Y-130452257D02*
X103991204Y-130380828D01*
X102991205Y-130380828D02*
X102062633Y-130380828D01*
X102062633Y-130380828D02*
X102562633Y-130952257D01*
X102562633Y-130952257D02*
X102348348Y-130952257D01*
X102348348Y-130952257D02*
X102205491Y-131023685D01*
X102205491Y-131023685D02*
X102134062Y-131095114D01*
X102134062Y-131095114D02*
X102062633Y-131237971D01*
X102062633Y-131237971D02*
X102062633Y-131595114D01*
X102062633Y-131595114D02*
X102134062Y-131737971D01*
X102134062Y-131737971D02*
X102205491Y-131809400D01*
X102205491Y-131809400D02*
X102348348Y-131880828D01*
X102348348Y-131880828D02*
X102776919Y-131880828D01*
X102776919Y-131880828D02*
X102919776Y-131809400D01*
X102919776Y-131809400D02*
X102991205Y-131737971D01*
X101562634Y-130380828D02*
X100562634Y-131880828D01*
X100562634Y-130380828D02*
X101562634Y-131880828D01*
D10*
X126384869Y-119285233D02*
X126718202Y-119285233D01*
X126718202Y-119285233D02*
X126718202Y-118585233D01*
X125918202Y-118918566D02*
X125818202Y-118951900D01*
X125818202Y-118951900D02*
X125784868Y-118985233D01*
X125784868Y-118985233D02*
X125751535Y-119051900D01*
X125751535Y-119051900D02*
X125751535Y-119151900D01*
X125751535Y-119151900D02*
X125784868Y-119218566D01*
X125784868Y-119218566D02*
X125818202Y-119251900D01*
X125818202Y-119251900D02*
X125884868Y-119285233D01*
X125884868Y-119285233D02*
X126151535Y-119285233D01*
X126151535Y-119285233D02*
X126151535Y-118585233D01*
X126151535Y-118585233D02*
X125918202Y-118585233D01*
X125918202Y-118585233D02*
X125851535Y-118618566D01*
X125851535Y-118618566D02*
X125818202Y-118651900D01*
X125818202Y-118651900D02*
X125784868Y-118718566D01*
X125784868Y-118718566D02*
X125784868Y-118785233D01*
X125784868Y-118785233D02*
X125818202Y-118851900D01*
X125818202Y-118851900D02*
X125851535Y-118885233D01*
X125851535Y-118885233D02*
X125918202Y-118918566D01*
X125918202Y-118918566D02*
X126151535Y-118918566D01*
X125318202Y-118585233D02*
X125184868Y-118585233D01*
X125184868Y-118585233D02*
X125118202Y-118618566D01*
X125118202Y-118618566D02*
X125051535Y-118685233D01*
X125051535Y-118685233D02*
X125018202Y-118818566D01*
X125018202Y-118818566D02*
X125018202Y-119051900D01*
X125018202Y-119051900D02*
X125051535Y-119185233D01*
X125051535Y-119185233D02*
X125118202Y-119251900D01*
X125118202Y-119251900D02*
X125184868Y-119285233D01*
X125184868Y-119285233D02*
X125318202Y-119285233D01*
X125318202Y-119285233D02*
X125384868Y-119251900D01*
X125384868Y-119251900D02*
X125451535Y-119185233D01*
X125451535Y-119185233D02*
X125484868Y-119051900D01*
X125484868Y-119051900D02*
X125484868Y-118818566D01*
X125484868Y-118818566D02*
X125451535Y-118685233D01*
X125451535Y-118685233D02*
X125384868Y-118618566D01*
X125384868Y-118618566D02*
X125318202Y-118585233D01*
X126951535Y-113538566D02*
X127018202Y-113505233D01*
X127018202Y-113505233D02*
X127118202Y-113505233D01*
X127118202Y-113505233D02*
X127218202Y-113538566D01*
X127218202Y-113538566D02*
X127284869Y-113605233D01*
X127284869Y-113605233D02*
X127318202Y-113671900D01*
X127318202Y-113671900D02*
X127351535Y-113805233D01*
X127351535Y-113805233D02*
X127351535Y-113905233D01*
X127351535Y-113905233D02*
X127318202Y-114038566D01*
X127318202Y-114038566D02*
X127284869Y-114105233D01*
X127284869Y-114105233D02*
X127218202Y-114171900D01*
X127218202Y-114171900D02*
X127118202Y-114205233D01*
X127118202Y-114205233D02*
X127051535Y-114205233D01*
X127051535Y-114205233D02*
X126951535Y-114171900D01*
X126951535Y-114171900D02*
X126918202Y-114138566D01*
X126918202Y-114138566D02*
X126918202Y-113905233D01*
X126918202Y-113905233D02*
X127051535Y-113905233D01*
X126618202Y-114205233D02*
X126618202Y-113505233D01*
X126618202Y-113505233D02*
X126218202Y-114205233D01*
X126218202Y-114205233D02*
X126218202Y-113505233D01*
X125884869Y-114205233D02*
X125884869Y-113505233D01*
X125884869Y-113505233D02*
X125718202Y-113505233D01*
X125718202Y-113505233D02*
X125618202Y-113538566D01*
X125618202Y-113538566D02*
X125551536Y-113605233D01*
X125551536Y-113605233D02*
X125518202Y-113671900D01*
X125518202Y-113671900D02*
X125484869Y-113805233D01*
X125484869Y-113805233D02*
X125484869Y-113905233D01*
X125484869Y-113905233D02*
X125518202Y-114038566D01*
X125518202Y-114038566D02*
X125551536Y-114105233D01*
X125551536Y-114105233D02*
X125618202Y-114171900D01*
X125618202Y-114171900D02*
X125718202Y-114205233D01*
X125718202Y-114205233D02*
X125884869Y-114205233D01*
M02*
