%TF.GenerationSoftware,KiCad,Pcbnew,7.0.11+dfsg-1build4*%
%TF.CreationDate,2026-01-16T21:01:49-05:00*%
%TF.ProjectId,tps6103x,74707336-3130-4337-982e-6b696361645f,rev?*%
%TF.SameCoordinates,Original*%
%TF.FileFunction,Copper,L2,Bot*%
%TF.FilePolarity,Positive*%
%FSLAX46Y46*%
G04 Gerber Fmt 4.6, Leading zero omitted, Abs format (unit mm)*
G04 Created by KiCad (PCBNEW 7.0.11+dfsg-1build4) date 2026-01-16 21:01:49*
%MOMM*%
%LPD*%
G01*
G04 APERTURE LIST*
%TA.AperFunction,ComponentPad*%
%ADD10R,1.700000X1.700000*%
%TD*%
%TA.AperFunction,ComponentPad*%
%ADD11O,1.700000X1.700000*%
%TD*%
%TA.AperFunction,ViaPad*%
%ADD12C,0.600000*%
%TD*%
%TA.AperFunction,Conductor*%
%ADD13C,0.200000*%
%TD*%
G04 APERTURE END LIST*
D10*
%TO.P,J1,1,Pin_1*%
%TO.N,/VOUT*%
X132080000Y-111760000D03*
D11*
%TO.P,J1,2,Pin_2*%
%TO.N,GND*%
X132080000Y-114300000D03*
%TO.P,J1,3,Pin_3*%
%TO.N,/VIN*%
X132080000Y-116840000D03*
%TO.P,J1,4,Pin_4*%
%TO.N,/LBO*%
X132080000Y-119380000D03*
%TO.P,J1,5,Pin_5*%
%TO.N,/EN*%
X132080000Y-121920000D03*
%TD*%
D12*
%TO.N,Net-(U1-LBI)*%
X115988600Y-121320100D03*
X116840000Y-106227000D03*
%TO.N,Net-(U1-FB)*%
X122779300Y-119492600D03*
X121900500Y-126975000D03*
%TO.N,/VIN*%
X118291000Y-123217000D03*
%TO.N,/VOUT*%
X127000000Y-114300000D03*
X129540000Y-111760000D03*
%TD*%
D13*
%TO.N,Net-(U1-LBI)*%
X115988600Y-107078400D02*
X115988600Y-121320100D01*
X116840000Y-106227000D02*
X115988600Y-107078400D01*
%TO.N,Net-(U1-FB)*%
X121900500Y-126975000D02*
X121920000Y-126955500D01*
X121920000Y-120351900D02*
X122779300Y-119492600D01*
X121920000Y-126955500D02*
X121920000Y-120351900D01*
%TO.N,/VIN*%
X132080000Y-117991900D02*
X123357300Y-117991900D01*
X123357300Y-117991900D02*
X118291000Y-123058200D01*
X118291000Y-123058200D02*
X118291000Y-123217000D01*
X132080000Y-116840000D02*
X132080000Y-117991900D01*
%TO.N,/VOUT*%
X129540000Y-111760000D02*
X127000000Y-114300000D01*
%TD*%
%TA.AperFunction,Conductor*%
%TO.N,GND*%
G36*
X134442539Y-100520185D02*
G01*
X134488294Y-100572989D01*
X134499500Y-100624500D01*
X134499500Y-133375500D01*
X134479815Y-133442539D01*
X134427011Y-133488294D01*
X134375500Y-133499500D01*
X100624500Y-133499500D01*
X100557461Y-133479815D01*
X100511706Y-133427011D01*
X100500500Y-133375500D01*
X100500500Y-124584000D01*
X100520185Y-124516961D01*
X100572989Y-124471206D01*
X100624500Y-124460000D01*
X114300000Y-124460000D01*
X114300000Y-123217000D01*
X117785353Y-123217000D01*
X117805834Y-123359456D01*
X117865622Y-123490371D01*
X117865623Y-123490373D01*
X117959872Y-123599143D01*
X118080947Y-123676953D01*
X118080950Y-123676954D01*
X118080949Y-123676954D01*
X118219036Y-123717499D01*
X118219038Y-123717500D01*
X118219039Y-123717500D01*
X118362962Y-123717500D01*
X118362962Y-123717499D01*
X118501053Y-123676953D01*
X118622128Y-123599143D01*
X118716377Y-123490373D01*
X118776165Y-123359457D01*
X118796647Y-123217000D01*
X118776165Y-123074543D01*
X118776164Y-123074542D01*
X118775377Y-123069063D01*
X118785321Y-122999904D01*
X118810431Y-122963738D01*
X121407819Y-120366351D01*
X121469142Y-120332866D01*
X121538834Y-120337850D01*
X121594767Y-120379722D01*
X121619184Y-120445186D01*
X121619500Y-120454032D01*
X121619500Y-126492932D01*
X121599815Y-126559971D01*
X121574532Y-126585275D01*
X121576072Y-126587052D01*
X121569366Y-126592862D01*
X121475125Y-126701622D01*
X121475122Y-126701628D01*
X121415334Y-126832543D01*
X121394853Y-126975000D01*
X121415334Y-127117456D01*
X121475122Y-127248371D01*
X121475123Y-127248373D01*
X121569372Y-127357143D01*
X121690447Y-127434953D01*
X121690450Y-127434954D01*
X121690449Y-127434954D01*
X121828536Y-127475499D01*
X121828538Y-127475500D01*
X121828539Y-127475500D01*
X121972462Y-127475500D01*
X121972462Y-127475499D01*
X122110553Y-127434953D01*
X122231628Y-127357143D01*
X122325877Y-127248373D01*
X122385665Y-127117457D01*
X122406147Y-126975000D01*
X122385665Y-126832543D01*
X122325877Y-126701627D01*
X122325875Y-126701625D01*
X122325874Y-126701622D01*
X122250787Y-126614967D01*
X122221762Y-126551412D01*
X122220500Y-126533765D01*
X122220500Y-121920000D01*
X131024417Y-121920000D01*
X131044699Y-122125932D01*
X131044700Y-122125934D01*
X131104768Y-122323954D01*
X131202315Y-122506450D01*
X131202317Y-122506452D01*
X131333589Y-122666410D01*
X131430209Y-122745702D01*
X131493550Y-122797685D01*
X131676046Y-122895232D01*
X131874066Y-122955300D01*
X131874065Y-122955300D01*
X131892529Y-122957118D01*
X132080000Y-122975583D01*
X132285934Y-122955300D01*
X132483954Y-122895232D01*
X132666450Y-122797685D01*
X132826410Y-122666410D01*
X132957685Y-122506450D01*
X133055232Y-122323954D01*
X133115300Y-122125934D01*
X133135583Y-121920000D01*
X133115300Y-121714066D01*
X133055232Y-121516046D01*
X132957685Y-121333550D01*
X132905702Y-121270209D01*
X132826410Y-121173589D01*
X132666452Y-121042317D01*
X132666453Y-121042317D01*
X132666450Y-121042315D01*
X132483954Y-120944768D01*
X132285934Y-120884700D01*
X132285932Y-120884699D01*
X132285934Y-120884699D01*
X132080000Y-120864417D01*
X131874067Y-120884699D01*
X131676043Y-120944769D01*
X131565898Y-121003643D01*
X131493550Y-121042315D01*
X131493548Y-121042316D01*
X131493547Y-121042317D01*
X131333589Y-121173589D01*
X131202317Y-121333547D01*
X131104769Y-121516043D01*
X131044699Y-121714067D01*
X131024417Y-121920000D01*
X122220500Y-121920000D01*
X122220500Y-120527732D01*
X122240185Y-120460693D01*
X122256815Y-120440055D01*
X122667451Y-120029418D01*
X122728774Y-119995934D01*
X122755132Y-119993100D01*
X122851262Y-119993100D01*
X122851262Y-119993099D01*
X122989353Y-119952553D01*
X123110428Y-119874743D01*
X123204677Y-119765973D01*
X123264465Y-119635057D01*
X123284947Y-119492600D01*
X123264465Y-119350143D01*
X123204677Y-119219227D01*
X123110428Y-119110457D01*
X122989353Y-119032647D01*
X122989352Y-119032646D01*
X122989351Y-119032646D01*
X122981674Y-119029140D01*
X122928870Y-118983385D01*
X122909186Y-118916346D01*
X122928871Y-118849306D01*
X122945500Y-118828670D01*
X123445452Y-118328719D01*
X123506775Y-118295234D01*
X123533133Y-118292400D01*
X131402775Y-118292400D01*
X131469814Y-118312085D01*
X131515569Y-118364889D01*
X131525513Y-118434047D01*
X131496488Y-118497603D01*
X131481439Y-118512254D01*
X131333589Y-118633589D01*
X131202317Y-118793547D01*
X131202315Y-118793550D01*
X131172513Y-118849306D01*
X131104769Y-118976043D01*
X131044699Y-119174067D01*
X131024417Y-119380000D01*
X131044699Y-119585932D01*
X131044700Y-119585934D01*
X131104768Y-119783954D01*
X131202315Y-119966450D01*
X131202317Y-119966452D01*
X131333589Y-120126410D01*
X131380449Y-120164866D01*
X131493550Y-120257685D01*
X131676046Y-120355232D01*
X131874066Y-120415300D01*
X131874065Y-120415300D01*
X131892529Y-120417118D01*
X132080000Y-120435583D01*
X132285934Y-120415300D01*
X132483954Y-120355232D01*
X132666450Y-120257685D01*
X132826410Y-120126410D01*
X132957685Y-119966450D01*
X133055232Y-119783954D01*
X133115300Y-119585934D01*
X133135583Y-119380000D01*
X133115300Y-119174066D01*
X133055232Y-118976046D01*
X132957685Y-118793550D01*
X132905702Y-118730209D01*
X132826410Y-118633589D01*
X132708677Y-118536969D01*
X132666450Y-118502315D01*
X132483954Y-118404768D01*
X132379187Y-118372987D01*
X132320749Y-118334690D01*
X132292293Y-118270878D01*
X132302853Y-118201811D01*
X132323545Y-118170789D01*
X132339916Y-118152833D01*
X132339918Y-118152826D01*
X132344721Y-118145070D01*
X132349579Y-118136348D01*
X132353651Y-118128169D01*
X132353656Y-118128164D01*
X132363663Y-118092989D01*
X132367289Y-118082170D01*
X132380500Y-118048073D01*
X132380500Y-118048071D01*
X132380501Y-118048069D01*
X132382172Y-118039129D01*
X132383561Y-118029176D01*
X132384401Y-118020107D01*
X132381029Y-117983717D01*
X132380500Y-117972276D01*
X132380500Y-117938578D01*
X132400185Y-117871539D01*
X132452989Y-117825784D01*
X132468488Y-117819923D01*
X132483954Y-117815232D01*
X132666450Y-117717685D01*
X132826410Y-117586410D01*
X132957685Y-117426450D01*
X133055232Y-117243954D01*
X133115300Y-117045934D01*
X133135583Y-116840000D01*
X133115300Y-116634066D01*
X133055232Y-116436046D01*
X132957685Y-116253550D01*
X132905702Y-116190209D01*
X132826410Y-116093589D01*
X132666452Y-115962317D01*
X132666453Y-115962317D01*
X132666450Y-115962315D01*
X132483954Y-115864768D01*
X132417447Y-115844593D01*
X132359009Y-115806296D01*
X132330553Y-115742484D01*
X132341113Y-115673417D01*
X132387337Y-115621023D01*
X132421350Y-115606158D01*
X132543483Y-115573433D01*
X132543492Y-115573429D01*
X132757578Y-115473600D01*
X132951082Y-115338105D01*
X133118105Y-115171082D01*
X133253600Y-114977578D01*
X133353429Y-114763492D01*
X133353432Y-114763486D01*
X133410636Y-114550000D01*
X132513686Y-114550000D01*
X132539493Y-114509844D01*
X132580000Y-114371889D01*
X132580000Y-114228111D01*
X132539493Y-114090156D01*
X132513686Y-114050000D01*
X133410636Y-114050000D01*
X133410635Y-114049999D01*
X133353432Y-113836513D01*
X133353429Y-113836507D01*
X133253600Y-113622422D01*
X133253599Y-113622420D01*
X133118113Y-113428926D01*
X133118108Y-113428920D01*
X132951082Y-113261894D01*
X132757578Y-113126399D01*
X132587052Y-113046882D01*
X132534613Y-113000710D01*
X132515461Y-112933516D01*
X132535677Y-112866635D01*
X132588842Y-112821300D01*
X132639457Y-112810500D01*
X132949750Y-112810500D01*
X132949751Y-112810499D01*
X132964568Y-112807552D01*
X133008229Y-112798868D01*
X133008229Y-112798867D01*
X133008231Y-112798867D01*
X133074552Y-112754552D01*
X133118867Y-112688231D01*
X133118867Y-112688229D01*
X133118868Y-112688229D01*
X133130499Y-112629752D01*
X133130500Y-112629750D01*
X133130500Y-110890249D01*
X133130499Y-110890247D01*
X133118868Y-110831770D01*
X133118867Y-110831769D01*
X133074552Y-110765447D01*
X133008230Y-110721132D01*
X133008229Y-110721131D01*
X132949752Y-110709500D01*
X132949748Y-110709500D01*
X131210252Y-110709500D01*
X131210247Y-110709500D01*
X131151770Y-110721131D01*
X131151769Y-110721132D01*
X131085447Y-110765447D01*
X131041132Y-110831769D01*
X131041131Y-110831770D01*
X131029500Y-110890247D01*
X131029500Y-112629752D01*
X131041131Y-112688229D01*
X131041132Y-112688230D01*
X131085447Y-112754552D01*
X131151769Y-112798867D01*
X131151770Y-112798868D01*
X131210247Y-112810499D01*
X131210250Y-112810500D01*
X131520543Y-112810500D01*
X131587582Y-112830185D01*
X131633337Y-112882989D01*
X131643281Y-112952147D01*
X131614256Y-113015703D01*
X131572948Y-113046882D01*
X131402422Y-113126399D01*
X131402420Y-113126400D01*
X131208926Y-113261886D01*
X131208920Y-113261891D01*
X131041891Y-113428920D01*
X131041886Y-113428926D01*
X130906400Y-113622420D01*
X130906399Y-113622422D01*
X130806570Y-113836507D01*
X130806567Y-113836513D01*
X130749364Y-114049999D01*
X130749364Y-114050000D01*
X131646314Y-114050000D01*
X131620507Y-114090156D01*
X131580000Y-114228111D01*
X131580000Y-114371889D01*
X131620507Y-114509844D01*
X131646314Y-114550000D01*
X130749364Y-114550000D01*
X130806567Y-114763486D01*
X130806570Y-114763492D01*
X130906399Y-114977578D01*
X131041894Y-115171082D01*
X131208917Y-115338105D01*
X131402421Y-115473600D01*
X131616507Y-115573429D01*
X131616516Y-115573433D01*
X131738649Y-115606158D01*
X131798310Y-115642523D01*
X131828839Y-115705369D01*
X131820545Y-115774745D01*
X131776059Y-115828623D01*
X131742552Y-115844593D01*
X131676046Y-115864767D01*
X131545358Y-115934622D01*
X131493550Y-115962315D01*
X131493548Y-115962316D01*
X131493547Y-115962317D01*
X131333589Y-116093589D01*
X131202317Y-116253547D01*
X131104769Y-116436043D01*
X131044699Y-116634067D01*
X131024417Y-116840000D01*
X131044699Y-117045932D01*
X131044700Y-117045934D01*
X131104768Y-117243954D01*
X131202315Y-117426450D01*
X131202317Y-117426452D01*
X131253431Y-117488736D01*
X131280743Y-117553046D01*
X131268952Y-117621913D01*
X131221799Y-117673473D01*
X131157577Y-117691400D01*
X123424438Y-117691400D01*
X123407310Y-117690211D01*
X123399538Y-117689127D01*
X123399535Y-117689127D01*
X123359272Y-117690988D01*
X123353220Y-117691268D01*
X123347495Y-117691400D01*
X123329456Y-117691400D01*
X123329451Y-117691400D01*
X123324626Y-117691848D01*
X123313997Y-117693081D01*
X123287308Y-117694315D01*
X123280963Y-117697115D01*
X123253680Y-117705565D01*
X123246868Y-117706838D01*
X123246867Y-117706839D01*
X123224157Y-117720899D01*
X123208978Y-117728900D01*
X123184535Y-117739693D01*
X123179636Y-117744593D01*
X123157242Y-117762331D01*
X123151348Y-117765980D01*
X123135249Y-117787298D01*
X123123979Y-117800248D01*
X118225406Y-122698821D01*
X118172660Y-122730117D01*
X118080949Y-122757045D01*
X117959873Y-122834856D01*
X117865623Y-122943626D01*
X117865622Y-122943628D01*
X117805834Y-123074543D01*
X117785353Y-123217000D01*
X114300000Y-123217000D01*
X114300000Y-121320100D01*
X115482953Y-121320100D01*
X115503434Y-121462556D01*
X115527863Y-121516046D01*
X115563223Y-121593473D01*
X115657472Y-121702243D01*
X115778547Y-121780053D01*
X115778550Y-121780054D01*
X115778549Y-121780054D01*
X115916636Y-121820599D01*
X115916638Y-121820600D01*
X115916639Y-121820600D01*
X116060562Y-121820600D01*
X116060562Y-121820599D01*
X116198653Y-121780053D01*
X116319728Y-121702243D01*
X116413977Y-121593473D01*
X116473765Y-121462557D01*
X116494247Y-121320100D01*
X116473765Y-121177643D01*
X116413977Y-121046727D01*
X116413975Y-121046725D01*
X116413974Y-121046722D01*
X116319387Y-120937562D01*
X116290362Y-120874006D01*
X116289100Y-120856360D01*
X116289100Y-114300000D01*
X126494353Y-114300000D01*
X126514834Y-114442456D01*
X126545610Y-114509844D01*
X126574623Y-114573373D01*
X126668872Y-114682143D01*
X126789947Y-114759953D01*
X126789950Y-114759954D01*
X126789949Y-114759954D01*
X126874160Y-114784680D01*
X126926336Y-114800000D01*
X126928036Y-114800499D01*
X126928038Y-114800500D01*
X126928039Y-114800500D01*
X127071962Y-114800500D01*
X127071962Y-114800499D01*
X127210053Y-114759953D01*
X127331128Y-114682143D01*
X127425377Y-114573373D01*
X127485165Y-114442457D01*
X127505647Y-114300000D01*
X127504339Y-114290905D01*
X127514279Y-114221749D01*
X127539392Y-114185577D01*
X129428151Y-112296819D01*
X129489474Y-112263334D01*
X129515832Y-112260500D01*
X129611962Y-112260500D01*
X129611962Y-112260499D01*
X129750053Y-112219953D01*
X129871128Y-112142143D01*
X129965377Y-112033373D01*
X130025165Y-111902457D01*
X130045647Y-111760000D01*
X130025165Y-111617543D01*
X129965377Y-111486627D01*
X129871128Y-111377857D01*
X129750053Y-111300047D01*
X129750051Y-111300046D01*
X129750049Y-111300045D01*
X129750050Y-111300045D01*
X129611963Y-111259500D01*
X129611961Y-111259500D01*
X129468039Y-111259500D01*
X129468036Y-111259500D01*
X129329949Y-111300045D01*
X129208873Y-111377856D01*
X129114623Y-111486626D01*
X129114622Y-111486628D01*
X129054834Y-111617543D01*
X129034353Y-111760000D01*
X129035661Y-111769101D01*
X129025714Y-111838259D01*
X129000603Y-111874423D01*
X127111847Y-113763181D01*
X127050524Y-113796666D01*
X127024166Y-113799500D01*
X126928036Y-113799500D01*
X126789949Y-113840045D01*
X126668873Y-113917856D01*
X126574623Y-114026626D01*
X126574622Y-114026628D01*
X126514834Y-114157543D01*
X126494353Y-114300000D01*
X116289100Y-114300000D01*
X116289100Y-107254232D01*
X116308785Y-107187193D01*
X116325415Y-107166555D01*
X116728151Y-106763818D01*
X116789474Y-106730334D01*
X116815832Y-106727500D01*
X116911962Y-106727500D01*
X116911962Y-106727499D01*
X117050053Y-106686953D01*
X117171128Y-106609143D01*
X117265377Y-106500373D01*
X117325165Y-106369457D01*
X117345647Y-106227000D01*
X117325165Y-106084543D01*
X117265377Y-105953627D01*
X117171128Y-105844857D01*
X117050053Y-105767047D01*
X117050051Y-105767046D01*
X117050049Y-105767045D01*
X117050050Y-105767045D01*
X116911963Y-105726500D01*
X116911961Y-105726500D01*
X116768039Y-105726500D01*
X116768036Y-105726500D01*
X116629949Y-105767045D01*
X116508873Y-105844856D01*
X116414623Y-105953626D01*
X116414622Y-105953628D01*
X116354834Y-106084543D01*
X116334353Y-106227000D01*
X116334353Y-106227001D01*
X116335661Y-106236103D01*
X116325713Y-106305261D01*
X116300603Y-106341424D01*
X115823586Y-106818441D01*
X115810635Y-106829712D01*
X115804367Y-106834444D01*
X115773122Y-106868718D01*
X115769174Y-106872853D01*
X115756427Y-106885600D01*
X115753346Y-106889311D01*
X115746685Y-106897719D01*
X115728683Y-106917466D01*
X115728683Y-106917467D01*
X115726178Y-106923933D01*
X115712859Y-106949202D01*
X115708945Y-106954915D01*
X115708943Y-106954920D01*
X115702828Y-106980917D01*
X115697751Y-106997313D01*
X115688100Y-107022226D01*
X115688100Y-107029151D01*
X115684806Y-107057541D01*
X115683221Y-107064277D01*
X115683221Y-107064282D01*
X115686911Y-107090733D01*
X115688100Y-107107864D01*
X115688100Y-120856360D01*
X115668415Y-120923399D01*
X115657813Y-120937562D01*
X115563225Y-121046722D01*
X115563222Y-121046728D01*
X115503434Y-121177643D01*
X115482953Y-121320100D01*
X114300000Y-121320100D01*
X114300000Y-109220000D01*
X100624500Y-109220000D01*
X100557461Y-109200315D01*
X100511706Y-109147511D01*
X100500500Y-109096000D01*
X100500500Y-100624500D01*
X100520185Y-100557461D01*
X100572989Y-100511706D01*
X100624500Y-100500500D01*
X134375500Y-100500500D01*
X134442539Y-100520185D01*
G37*
%TD.AperFunction*%
%TD*%
M02*
