%TF.GenerationSoftware,KiCad,Pcbnew,7.0.11+dfsg-1build4*%
%TF.CreationDate,2026-01-16T21:08:39-05:00*%
%TF.ProjectId,,58585858-5858-4585-9858-585858585858,rev?*%
%TF.SameCoordinates,Original*%
%TF.FileFunction,Legend,Bot*%
%TF.FilePolarity,Positive*%
%FSLAX46Y46*%
G04 Gerber Fmt 4.6, Leading zero omitted, Abs format (unit mm)*
G04 Created by KiCad (PCBNEW 7.0.11+dfsg-1build4) date 2026-01-16 21:08:39*
%MOMM*%
%LPD*%
G01*
G04 APERTURE LIST*
%ADD10C,0.175000*%
%ADD11C,0.300000*%
G04 APERTURE END LIST*
D10*
X133444869Y-105025233D02*
X133778202Y-105025233D01*
X133778202Y-105025233D02*
X133778202Y-104325233D01*
X132978202Y-104658566D02*
X132878202Y-104691900D01*
X132878202Y-104691900D02*
X132844868Y-104725233D01*
X132844868Y-104725233D02*
X132811535Y-104791900D01*
X132811535Y-104791900D02*
X132811535Y-104891900D01*
X132811535Y-104891900D02*
X132844868Y-104958566D01*
X132844868Y-104958566D02*
X132878202Y-104991900D01*
X132878202Y-104991900D02*
X132944868Y-105025233D01*
X132944868Y-105025233D02*
X133211535Y-105025233D01*
X133211535Y-105025233D02*
X133211535Y-104325233D01*
X133211535Y-104325233D02*
X132978202Y-104325233D01*
X132978202Y-104325233D02*
X132911535Y-104358566D01*
X132911535Y-104358566D02*
X132878202Y-104391900D01*
X132878202Y-104391900D02*
X132844868Y-104458566D01*
X132844868Y-104458566D02*
X132844868Y-104525233D01*
X132844868Y-104525233D02*
X132878202Y-104591900D01*
X132878202Y-104591900D02*
X132911535Y-104625233D01*
X132911535Y-104625233D02*
X132978202Y-104658566D01*
X132978202Y-104658566D02*
X133211535Y-104658566D01*
X132378202Y-104325233D02*
X132244868Y-104325233D01*
X132244868Y-104325233D02*
X132178202Y-104358566D01*
X132178202Y-104358566D02*
X132111535Y-104425233D01*
X132111535Y-104425233D02*
X132078202Y-104558566D01*
X132078202Y-104558566D02*
X132078202Y-104791900D01*
X132078202Y-104791900D02*
X132111535Y-104925233D01*
X132111535Y-104925233D02*
X132178202Y-104991900D01*
X132178202Y-104991900D02*
X132244868Y-105025233D01*
X132244868Y-105025233D02*
X132378202Y-105025233D01*
X132378202Y-105025233D02*
X132444868Y-104991900D01*
X132444868Y-104991900D02*
X132511535Y-104925233D01*
X132511535Y-104925233D02*
X132544868Y-104791900D01*
X132544868Y-104791900D02*
X132544868Y-104558566D01*
X132544868Y-104558566D02*
X132511535Y-104425233D01*
X132511535Y-104425233D02*
X132444868Y-104358566D01*
X132444868Y-104358566D02*
X132378202Y-104325233D01*
X134011535Y-99278566D02*
X134078202Y-99245233D01*
X134078202Y-99245233D02*
X134178202Y-99245233D01*
X134178202Y-99245233D02*
X134278202Y-99278566D01*
X134278202Y-99278566D02*
X134344869Y-99345233D01*
X134344869Y-99345233D02*
X134378202Y-99411900D01*
X134378202Y-99411900D02*
X134411535Y-99545233D01*
X134411535Y-99545233D02*
X134411535Y-99645233D01*
X134411535Y-99645233D02*
X134378202Y-99778566D01*
X134378202Y-99778566D02*
X134344869Y-99845233D01*
X134344869Y-99845233D02*
X134278202Y-99911900D01*
X134278202Y-99911900D02*
X134178202Y-99945233D01*
X134178202Y-99945233D02*
X134111535Y-99945233D01*
X134111535Y-99945233D02*
X134011535Y-99911900D01*
X134011535Y-99911900D02*
X133978202Y-99878566D01*
X133978202Y-99878566D02*
X133978202Y-99645233D01*
X133978202Y-99645233D02*
X134111535Y-99645233D01*
X133678202Y-99945233D02*
X133678202Y-99245233D01*
X133678202Y-99245233D02*
X133278202Y-99945233D01*
X133278202Y-99945233D02*
X133278202Y-99245233D01*
X132944869Y-99945233D02*
X132944869Y-99245233D01*
X132944869Y-99245233D02*
X132778202Y-99245233D01*
X132778202Y-99245233D02*
X132678202Y-99278566D01*
X132678202Y-99278566D02*
X132611536Y-99345233D01*
X132611536Y-99345233D02*
X132578202Y-99411900D01*
X132578202Y-99411900D02*
X132544869Y-99545233D01*
X132544869Y-99545233D02*
X132544869Y-99645233D01*
X132544869Y-99645233D02*
X132578202Y-99778566D01*
X132578202Y-99778566D02*
X132611536Y-99845233D01*
X132611536Y-99845233D02*
X132678202Y-99911900D01*
X132678202Y-99911900D02*
X132778202Y-99945233D01*
X132778202Y-99945233D02*
X132944869Y-99945233D01*
X133878202Y-101785233D02*
X133644869Y-102485233D01*
X133644869Y-102485233D02*
X133411535Y-101785233D01*
X133178202Y-102485233D02*
X133178202Y-101785233D01*
X132844869Y-102485233D02*
X132844869Y-101785233D01*
X132844869Y-101785233D02*
X132444869Y-102485233D01*
X132444869Y-102485233D02*
X132444869Y-101785233D01*
X133778202Y-107198566D02*
X133544869Y-107198566D01*
X133444869Y-107565233D02*
X133778202Y-107565233D01*
X133778202Y-107565233D02*
X133778202Y-106865233D01*
X133778202Y-106865233D02*
X133444869Y-106865233D01*
X133144869Y-107565233D02*
X133144869Y-106865233D01*
X133144869Y-106865233D02*
X132744869Y-107565233D01*
X132744869Y-107565233D02*
X132744869Y-106865233D01*
X134478202Y-96705233D02*
X134244869Y-97405233D01*
X134244869Y-97405233D02*
X134011535Y-96705233D01*
X133644869Y-96705233D02*
X133511535Y-96705233D01*
X133511535Y-96705233D02*
X133444869Y-96738566D01*
X133444869Y-96738566D02*
X133378202Y-96805233D01*
X133378202Y-96805233D02*
X133344869Y-96938566D01*
X133344869Y-96938566D02*
X133344869Y-97171900D01*
X133344869Y-97171900D02*
X133378202Y-97305233D01*
X133378202Y-97305233D02*
X133444869Y-97371900D01*
X133444869Y-97371900D02*
X133511535Y-97405233D01*
X133511535Y-97405233D02*
X133644869Y-97405233D01*
X133644869Y-97405233D02*
X133711535Y-97371900D01*
X133711535Y-97371900D02*
X133778202Y-97305233D01*
X133778202Y-97305233D02*
X133811535Y-97171900D01*
X133811535Y-97171900D02*
X133811535Y-96938566D01*
X133811535Y-96938566D02*
X133778202Y-96805233D01*
X133778202Y-96805233D02*
X133711535Y-96738566D01*
X133711535Y-96738566D02*
X133644869Y-96705233D01*
X133044869Y-96705233D02*
X133044869Y-97271900D01*
X133044869Y-97271900D02*
X133011536Y-97338566D01*
X133011536Y-97338566D02*
X132978202Y-97371900D01*
X132978202Y-97371900D02*
X132911536Y-97405233D01*
X132911536Y-97405233D02*
X132778202Y-97405233D01*
X132778202Y-97405233D02*
X132711536Y-97371900D01*
X132711536Y-97371900D02*
X132678202Y-97338566D01*
X132678202Y-97338566D02*
X132644869Y-97271900D01*
X132644869Y-97271900D02*
X132644869Y-96705233D01*
X132411536Y-96705233D02*
X132011536Y-96705233D01*
X132211536Y-97405233D02*
X132211536Y-96705233D01*
D11*
X118479774Y-116120828D02*
X117622632Y-116120828D01*
X118051203Y-117620828D02*
X118051203Y-116120828D01*
X117122632Y-117620828D02*
X117122632Y-116120828D01*
X117122632Y-116120828D02*
X116551203Y-116120828D01*
X116551203Y-116120828D02*
X116408346Y-116192257D01*
X116408346Y-116192257D02*
X116336917Y-116263685D01*
X116336917Y-116263685D02*
X116265489Y-116406542D01*
X116265489Y-116406542D02*
X116265489Y-116620828D01*
X116265489Y-116620828D02*
X116336917Y-116763685D01*
X116336917Y-116763685D02*
X116408346Y-116835114D01*
X116408346Y-116835114D02*
X116551203Y-116906542D01*
X116551203Y-116906542D02*
X117122632Y-116906542D01*
X115694060Y-117549400D02*
X115479775Y-117620828D01*
X115479775Y-117620828D02*
X115122632Y-117620828D01*
X115122632Y-117620828D02*
X114979775Y-117549400D01*
X114979775Y-117549400D02*
X114908346Y-117477971D01*
X114908346Y-117477971D02*
X114836917Y-117335114D01*
X114836917Y-117335114D02*
X114836917Y-117192257D01*
X114836917Y-117192257D02*
X114908346Y-117049400D01*
X114908346Y-117049400D02*
X114979775Y-116977971D01*
X114979775Y-116977971D02*
X115122632Y-116906542D01*
X115122632Y-116906542D02*
X115408346Y-116835114D01*
X115408346Y-116835114D02*
X115551203Y-116763685D01*
X115551203Y-116763685D02*
X115622632Y-116692257D01*
X115622632Y-116692257D02*
X115694060Y-116549400D01*
X115694060Y-116549400D02*
X115694060Y-116406542D01*
X115694060Y-116406542D02*
X115622632Y-116263685D01*
X115622632Y-116263685D02*
X115551203Y-116192257D01*
X115551203Y-116192257D02*
X115408346Y-116120828D01*
X115408346Y-116120828D02*
X115051203Y-116120828D01*
X115051203Y-116120828D02*
X114836917Y-116192257D01*
X113551204Y-116120828D02*
X113836918Y-116120828D01*
X113836918Y-116120828D02*
X113979775Y-116192257D01*
X113979775Y-116192257D02*
X114051204Y-116263685D01*
X114051204Y-116263685D02*
X114194061Y-116477971D01*
X114194061Y-116477971D02*
X114265489Y-116763685D01*
X114265489Y-116763685D02*
X114265489Y-117335114D01*
X114265489Y-117335114D02*
X114194061Y-117477971D01*
X114194061Y-117477971D02*
X114122632Y-117549400D01*
X114122632Y-117549400D02*
X113979775Y-117620828D01*
X113979775Y-117620828D02*
X113694061Y-117620828D01*
X113694061Y-117620828D02*
X113551204Y-117549400D01*
X113551204Y-117549400D02*
X113479775Y-117477971D01*
X113479775Y-117477971D02*
X113408346Y-117335114D01*
X113408346Y-117335114D02*
X113408346Y-116977971D01*
X113408346Y-116977971D02*
X113479775Y-116835114D01*
X113479775Y-116835114D02*
X113551204Y-116763685D01*
X113551204Y-116763685D02*
X113694061Y-116692257D01*
X113694061Y-116692257D02*
X113979775Y-116692257D01*
X113979775Y-116692257D02*
X114122632Y-116763685D01*
X114122632Y-116763685D02*
X114194061Y-116835114D01*
X114194061Y-116835114D02*
X114265489Y-116977971D01*
X111979775Y-117620828D02*
X112836918Y-117620828D01*
X112408347Y-117620828D02*
X112408347Y-116120828D01*
X112408347Y-116120828D02*
X112551204Y-116335114D01*
X112551204Y-116335114D02*
X112694061Y-116477971D01*
X112694061Y-116477971D02*
X112836918Y-116549400D01*
X111051204Y-116120828D02*
X110908347Y-116120828D01*
X110908347Y-116120828D02*
X110765490Y-116192257D01*
X110765490Y-116192257D02*
X110694062Y-116263685D01*
X110694062Y-116263685D02*
X110622633Y-116406542D01*
X110622633Y-116406542D02*
X110551204Y-116692257D01*
X110551204Y-116692257D02*
X110551204Y-117049400D01*
X110551204Y-117049400D02*
X110622633Y-117335114D01*
X110622633Y-117335114D02*
X110694062Y-117477971D01*
X110694062Y-117477971D02*
X110765490Y-117549400D01*
X110765490Y-117549400D02*
X110908347Y-117620828D01*
X110908347Y-117620828D02*
X111051204Y-117620828D01*
X111051204Y-117620828D02*
X111194062Y-117549400D01*
X111194062Y-117549400D02*
X111265490Y-117477971D01*
X111265490Y-117477971D02*
X111336919Y-117335114D01*
X111336919Y-117335114D02*
X111408347Y-117049400D01*
X111408347Y-117049400D02*
X111408347Y-116692257D01*
X111408347Y-116692257D02*
X111336919Y-116406542D01*
X111336919Y-116406542D02*
X111265490Y-116263685D01*
X111265490Y-116263685D02*
X111194062Y-116192257D01*
X111194062Y-116192257D02*
X111051204Y-116120828D01*
X110051205Y-116120828D02*
X109122633Y-116120828D01*
X109122633Y-116120828D02*
X109622633Y-116692257D01*
X109622633Y-116692257D02*
X109408348Y-116692257D01*
X109408348Y-116692257D02*
X109265491Y-116763685D01*
X109265491Y-116763685D02*
X109194062Y-116835114D01*
X109194062Y-116835114D02*
X109122633Y-116977971D01*
X109122633Y-116977971D02*
X109122633Y-117335114D01*
X109122633Y-117335114D02*
X109194062Y-117477971D01*
X109194062Y-117477971D02*
X109265491Y-117549400D01*
X109265491Y-117549400D02*
X109408348Y-117620828D01*
X109408348Y-117620828D02*
X109836919Y-117620828D01*
X109836919Y-117620828D02*
X109979776Y-117549400D01*
X109979776Y-117549400D02*
X110051205Y-117477971D01*
X108622634Y-116120828D02*
X107622634Y-117620828D01*
X107622634Y-116120828D02*
X108622634Y-117620828D01*
D10*
X98444869Y-105025233D02*
X98778202Y-105025233D01*
X98778202Y-105025233D02*
X98778202Y-104325233D01*
X97978202Y-104658566D02*
X97878202Y-104691900D01*
X97878202Y-104691900D02*
X97844868Y-104725233D01*
X97844868Y-104725233D02*
X97811535Y-104791900D01*
X97811535Y-104791900D02*
X97811535Y-104891900D01*
X97811535Y-104891900D02*
X97844868Y-104958566D01*
X97844868Y-104958566D02*
X97878202Y-104991900D01*
X97878202Y-104991900D02*
X97944868Y-105025233D01*
X97944868Y-105025233D02*
X98211535Y-105025233D01*
X98211535Y-105025233D02*
X98211535Y-104325233D01*
X98211535Y-104325233D02*
X97978202Y-104325233D01*
X97978202Y-104325233D02*
X97911535Y-104358566D01*
X97911535Y-104358566D02*
X97878202Y-104391900D01*
X97878202Y-104391900D02*
X97844868Y-104458566D01*
X97844868Y-104458566D02*
X97844868Y-104525233D01*
X97844868Y-104525233D02*
X97878202Y-104591900D01*
X97878202Y-104591900D02*
X97911535Y-104625233D01*
X97911535Y-104625233D02*
X97978202Y-104658566D01*
X97978202Y-104658566D02*
X98211535Y-104658566D01*
X97378202Y-104325233D02*
X97244868Y-104325233D01*
X97244868Y-104325233D02*
X97178202Y-104358566D01*
X97178202Y-104358566D02*
X97111535Y-104425233D01*
X97111535Y-104425233D02*
X97078202Y-104558566D01*
X97078202Y-104558566D02*
X97078202Y-104791900D01*
X97078202Y-104791900D02*
X97111535Y-104925233D01*
X97111535Y-104925233D02*
X97178202Y-104991900D01*
X97178202Y-104991900D02*
X97244868Y-105025233D01*
X97244868Y-105025233D02*
X97378202Y-105025233D01*
X97378202Y-105025233D02*
X97444868Y-104991900D01*
X97444868Y-104991900D02*
X97511535Y-104925233D01*
X97511535Y-104925233D02*
X97544868Y-104791900D01*
X97544868Y-104791900D02*
X97544868Y-104558566D01*
X97544868Y-104558566D02*
X97511535Y-104425233D01*
X97511535Y-104425233D02*
X97444868Y-104358566D01*
X97444868Y-104358566D02*
X97378202Y-104325233D01*
X99011535Y-99278566D02*
X99078202Y-99245233D01*
X99078202Y-99245233D02*
X99178202Y-99245233D01*
X99178202Y-99245233D02*
X99278202Y-99278566D01*
X99278202Y-99278566D02*
X99344869Y-99345233D01*
X99344869Y-99345233D02*
X99378202Y-99411900D01*
X99378202Y-99411900D02*
X99411535Y-99545233D01*
X99411535Y-99545233D02*
X99411535Y-99645233D01*
X99411535Y-99645233D02*
X99378202Y-99778566D01*
X99378202Y-99778566D02*
X99344869Y-99845233D01*
X99344869Y-99845233D02*
X99278202Y-99911900D01*
X99278202Y-99911900D02*
X99178202Y-99945233D01*
X99178202Y-99945233D02*
X99111535Y-99945233D01*
X99111535Y-99945233D02*
X99011535Y-99911900D01*
X99011535Y-99911900D02*
X98978202Y-99878566D01*
X98978202Y-99878566D02*
X98978202Y-99645233D01*
X98978202Y-99645233D02*
X99111535Y-99645233D01*
X98678202Y-99945233D02*
X98678202Y-99245233D01*
X98678202Y-99245233D02*
X98278202Y-99945233D01*
X98278202Y-99945233D02*
X98278202Y-99245233D01*
X97944869Y-99945233D02*
X97944869Y-99245233D01*
X97944869Y-99245233D02*
X97778202Y-99245233D01*
X97778202Y-99245233D02*
X97678202Y-99278566D01*
X97678202Y-99278566D02*
X97611536Y-99345233D01*
X97611536Y-99345233D02*
X97578202Y-99411900D01*
X97578202Y-99411900D02*
X97544869Y-99545233D01*
X97544869Y-99545233D02*
X97544869Y-99645233D01*
X97544869Y-99645233D02*
X97578202Y-99778566D01*
X97578202Y-99778566D02*
X97611536Y-99845233D01*
X97611536Y-99845233D02*
X97678202Y-99911900D01*
X97678202Y-99911900D02*
X97778202Y-99945233D01*
X97778202Y-99945233D02*
X97944869Y-99945233D01*
X98878202Y-101785233D02*
X98644869Y-102485233D01*
X98644869Y-102485233D02*
X98411535Y-101785233D01*
X98178202Y-102485233D02*
X98178202Y-101785233D01*
X97844869Y-102485233D02*
X97844869Y-101785233D01*
X97844869Y-101785233D02*
X97444869Y-102485233D01*
X97444869Y-102485233D02*
X97444869Y-101785233D01*
X98778202Y-107198566D02*
X98544869Y-107198566D01*
X98444869Y-107565233D02*
X98778202Y-107565233D01*
X98778202Y-107565233D02*
X98778202Y-106865233D01*
X98778202Y-106865233D02*
X98444869Y-106865233D01*
X98144869Y-107565233D02*
X98144869Y-106865233D01*
X98144869Y-106865233D02*
X97744869Y-107565233D01*
X97744869Y-107565233D02*
X97744869Y-106865233D01*
X99478202Y-96705233D02*
X99244869Y-97405233D01*
X99244869Y-97405233D02*
X99011535Y-96705233D01*
X98644869Y-96705233D02*
X98511535Y-96705233D01*
X98511535Y-96705233D02*
X98444869Y-96738566D01*
X98444869Y-96738566D02*
X98378202Y-96805233D01*
X98378202Y-96805233D02*
X98344869Y-96938566D01*
X98344869Y-96938566D02*
X98344869Y-97171900D01*
X98344869Y-97171900D02*
X98378202Y-97305233D01*
X98378202Y-97305233D02*
X98444869Y-97371900D01*
X98444869Y-97371900D02*
X98511535Y-97405233D01*
X98511535Y-97405233D02*
X98644869Y-97405233D01*
X98644869Y-97405233D02*
X98711535Y-97371900D01*
X98711535Y-97371900D02*
X98778202Y-97305233D01*
X98778202Y-97305233D02*
X98811535Y-97171900D01*
X98811535Y-97171900D02*
X98811535Y-96938566D01*
X98811535Y-96938566D02*
X98778202Y-96805233D01*
X98778202Y-96805233D02*
X98711535Y-96738566D01*
X98711535Y-96738566D02*
X98644869Y-96705233D01*
X98044869Y-96705233D02*
X98044869Y-97271900D01*
X98044869Y-97271900D02*
X98011536Y-97338566D01*
X98011536Y-97338566D02*
X97978202Y-97371900D01*
X97978202Y-97371900D02*
X97911536Y-97405233D01*
X97911536Y-97405233D02*
X97778202Y-97405233D01*
X97778202Y-97405233D02*
X97711536Y-97371900D01*
X97711536Y-97371900D02*
X97678202Y-97338566D01*
X97678202Y-97338566D02*
X97644869Y-97271900D01*
X97644869Y-97271900D02*
X97644869Y-96705233D01*
X97411536Y-96705233D02*
X97011536Y-96705233D01*
X97211536Y-97405233D02*
X97211536Y-96705233D01*
D11*
X83479774Y-116120828D02*
X82622632Y-116120828D01*
X83051203Y-117620828D02*
X83051203Y-116120828D01*
X82122632Y-117620828D02*
X82122632Y-116120828D01*
X82122632Y-116120828D02*
X81551203Y-116120828D01*
X81551203Y-116120828D02*
X81408346Y-116192257D01*
X81408346Y-116192257D02*
X81336917Y-116263685D01*
X81336917Y-116263685D02*
X81265489Y-116406542D01*
X81265489Y-116406542D02*
X81265489Y-116620828D01*
X81265489Y-116620828D02*
X81336917Y-116763685D01*
X81336917Y-116763685D02*
X81408346Y-116835114D01*
X81408346Y-116835114D02*
X81551203Y-116906542D01*
X81551203Y-116906542D02*
X82122632Y-116906542D01*
X80694060Y-117549400D02*
X80479775Y-117620828D01*
X80479775Y-117620828D02*
X80122632Y-117620828D01*
X80122632Y-117620828D02*
X79979775Y-117549400D01*
X79979775Y-117549400D02*
X79908346Y-117477971D01*
X79908346Y-117477971D02*
X79836917Y-117335114D01*
X79836917Y-117335114D02*
X79836917Y-117192257D01*
X79836917Y-117192257D02*
X79908346Y-117049400D01*
X79908346Y-117049400D02*
X79979775Y-116977971D01*
X79979775Y-116977971D02*
X80122632Y-116906542D01*
X80122632Y-116906542D02*
X80408346Y-116835114D01*
X80408346Y-116835114D02*
X80551203Y-116763685D01*
X80551203Y-116763685D02*
X80622632Y-116692257D01*
X80622632Y-116692257D02*
X80694060Y-116549400D01*
X80694060Y-116549400D02*
X80694060Y-116406542D01*
X80694060Y-116406542D02*
X80622632Y-116263685D01*
X80622632Y-116263685D02*
X80551203Y-116192257D01*
X80551203Y-116192257D02*
X80408346Y-116120828D01*
X80408346Y-116120828D02*
X80051203Y-116120828D01*
X80051203Y-116120828D02*
X79836917Y-116192257D01*
X78551204Y-116120828D02*
X78836918Y-116120828D01*
X78836918Y-116120828D02*
X78979775Y-116192257D01*
X78979775Y-116192257D02*
X79051204Y-116263685D01*
X79051204Y-116263685D02*
X79194061Y-116477971D01*
X79194061Y-116477971D02*
X79265489Y-116763685D01*
X79265489Y-116763685D02*
X79265489Y-117335114D01*
X79265489Y-117335114D02*
X79194061Y-117477971D01*
X79194061Y-117477971D02*
X79122632Y-117549400D01*
X79122632Y-117549400D02*
X78979775Y-117620828D01*
X78979775Y-117620828D02*
X78694061Y-117620828D01*
X78694061Y-117620828D02*
X78551204Y-117549400D01*
X78551204Y-117549400D02*
X78479775Y-117477971D01*
X78479775Y-117477971D02*
X78408346Y-117335114D01*
X78408346Y-117335114D02*
X78408346Y-116977971D01*
X78408346Y-116977971D02*
X78479775Y-116835114D01*
X78479775Y-116835114D02*
X78551204Y-116763685D01*
X78551204Y-116763685D02*
X78694061Y-116692257D01*
X78694061Y-116692257D02*
X78979775Y-116692257D01*
X78979775Y-116692257D02*
X79122632Y-116763685D01*
X79122632Y-116763685D02*
X79194061Y-116835114D01*
X79194061Y-116835114D02*
X79265489Y-116977971D01*
X76979775Y-117620828D02*
X77836918Y-117620828D01*
X77408347Y-117620828D02*
X77408347Y-116120828D01*
X77408347Y-116120828D02*
X77551204Y-116335114D01*
X77551204Y-116335114D02*
X77694061Y-116477971D01*
X77694061Y-116477971D02*
X77836918Y-116549400D01*
X76051204Y-116120828D02*
X75908347Y-116120828D01*
X75908347Y-116120828D02*
X75765490Y-116192257D01*
X75765490Y-116192257D02*
X75694062Y-116263685D01*
X75694062Y-116263685D02*
X75622633Y-116406542D01*
X75622633Y-116406542D02*
X75551204Y-116692257D01*
X75551204Y-116692257D02*
X75551204Y-117049400D01*
X75551204Y-117049400D02*
X75622633Y-117335114D01*
X75622633Y-117335114D02*
X75694062Y-117477971D01*
X75694062Y-117477971D02*
X75765490Y-117549400D01*
X75765490Y-117549400D02*
X75908347Y-117620828D01*
X75908347Y-117620828D02*
X76051204Y-117620828D01*
X76051204Y-117620828D02*
X76194062Y-117549400D01*
X76194062Y-117549400D02*
X76265490Y-117477971D01*
X76265490Y-117477971D02*
X76336919Y-117335114D01*
X76336919Y-117335114D02*
X76408347Y-117049400D01*
X76408347Y-117049400D02*
X76408347Y-116692257D01*
X76408347Y-116692257D02*
X76336919Y-116406542D01*
X76336919Y-116406542D02*
X76265490Y-116263685D01*
X76265490Y-116263685D02*
X76194062Y-116192257D01*
X76194062Y-116192257D02*
X76051204Y-116120828D01*
X75051205Y-116120828D02*
X74122633Y-116120828D01*
X74122633Y-116120828D02*
X74622633Y-116692257D01*
X74622633Y-116692257D02*
X74408348Y-116692257D01*
X74408348Y-116692257D02*
X74265491Y-116763685D01*
X74265491Y-116763685D02*
X74194062Y-116835114D01*
X74194062Y-116835114D02*
X74122633Y-116977971D01*
X74122633Y-116977971D02*
X74122633Y-117335114D01*
X74122633Y-117335114D02*
X74194062Y-117477971D01*
X74194062Y-117477971D02*
X74265491Y-117549400D01*
X74265491Y-117549400D02*
X74408348Y-117620828D01*
X74408348Y-117620828D02*
X74836919Y-117620828D01*
X74836919Y-117620828D02*
X74979776Y-117549400D01*
X74979776Y-117549400D02*
X75051205Y-117477971D01*
X73622634Y-116120828D02*
X72622634Y-117620828D01*
X72622634Y-116120828D02*
X73622634Y-117620828D01*
D10*
X133444869Y-71025233D02*
X133778202Y-71025233D01*
X133778202Y-71025233D02*
X133778202Y-70325233D01*
X132978202Y-70658566D02*
X132878202Y-70691900D01*
X132878202Y-70691900D02*
X132844868Y-70725233D01*
X132844868Y-70725233D02*
X132811535Y-70791900D01*
X132811535Y-70791900D02*
X132811535Y-70891900D01*
X132811535Y-70891900D02*
X132844868Y-70958566D01*
X132844868Y-70958566D02*
X132878202Y-70991900D01*
X132878202Y-70991900D02*
X132944868Y-71025233D01*
X132944868Y-71025233D02*
X133211535Y-71025233D01*
X133211535Y-71025233D02*
X133211535Y-70325233D01*
X133211535Y-70325233D02*
X132978202Y-70325233D01*
X132978202Y-70325233D02*
X132911535Y-70358566D01*
X132911535Y-70358566D02*
X132878202Y-70391900D01*
X132878202Y-70391900D02*
X132844868Y-70458566D01*
X132844868Y-70458566D02*
X132844868Y-70525233D01*
X132844868Y-70525233D02*
X132878202Y-70591900D01*
X132878202Y-70591900D02*
X132911535Y-70625233D01*
X132911535Y-70625233D02*
X132978202Y-70658566D01*
X132978202Y-70658566D02*
X133211535Y-70658566D01*
X132378202Y-70325233D02*
X132244868Y-70325233D01*
X132244868Y-70325233D02*
X132178202Y-70358566D01*
X132178202Y-70358566D02*
X132111535Y-70425233D01*
X132111535Y-70425233D02*
X132078202Y-70558566D01*
X132078202Y-70558566D02*
X132078202Y-70791900D01*
X132078202Y-70791900D02*
X132111535Y-70925233D01*
X132111535Y-70925233D02*
X132178202Y-70991900D01*
X132178202Y-70991900D02*
X132244868Y-71025233D01*
X132244868Y-71025233D02*
X132378202Y-71025233D01*
X132378202Y-71025233D02*
X132444868Y-70991900D01*
X132444868Y-70991900D02*
X132511535Y-70925233D01*
X132511535Y-70925233D02*
X132544868Y-70791900D01*
X132544868Y-70791900D02*
X132544868Y-70558566D01*
X132544868Y-70558566D02*
X132511535Y-70425233D01*
X132511535Y-70425233D02*
X132444868Y-70358566D01*
X132444868Y-70358566D02*
X132378202Y-70325233D01*
X134011535Y-65278566D02*
X134078202Y-65245233D01*
X134078202Y-65245233D02*
X134178202Y-65245233D01*
X134178202Y-65245233D02*
X134278202Y-65278566D01*
X134278202Y-65278566D02*
X134344869Y-65345233D01*
X134344869Y-65345233D02*
X134378202Y-65411900D01*
X134378202Y-65411900D02*
X134411535Y-65545233D01*
X134411535Y-65545233D02*
X134411535Y-65645233D01*
X134411535Y-65645233D02*
X134378202Y-65778566D01*
X134378202Y-65778566D02*
X134344869Y-65845233D01*
X134344869Y-65845233D02*
X134278202Y-65911900D01*
X134278202Y-65911900D02*
X134178202Y-65945233D01*
X134178202Y-65945233D02*
X134111535Y-65945233D01*
X134111535Y-65945233D02*
X134011535Y-65911900D01*
X134011535Y-65911900D02*
X133978202Y-65878566D01*
X133978202Y-65878566D02*
X133978202Y-65645233D01*
X133978202Y-65645233D02*
X134111535Y-65645233D01*
X133678202Y-65945233D02*
X133678202Y-65245233D01*
X133678202Y-65245233D02*
X133278202Y-65945233D01*
X133278202Y-65945233D02*
X133278202Y-65245233D01*
X132944869Y-65945233D02*
X132944869Y-65245233D01*
X132944869Y-65245233D02*
X132778202Y-65245233D01*
X132778202Y-65245233D02*
X132678202Y-65278566D01*
X132678202Y-65278566D02*
X132611536Y-65345233D01*
X132611536Y-65345233D02*
X132578202Y-65411900D01*
X132578202Y-65411900D02*
X132544869Y-65545233D01*
X132544869Y-65545233D02*
X132544869Y-65645233D01*
X132544869Y-65645233D02*
X132578202Y-65778566D01*
X132578202Y-65778566D02*
X132611536Y-65845233D01*
X132611536Y-65845233D02*
X132678202Y-65911900D01*
X132678202Y-65911900D02*
X132778202Y-65945233D01*
X132778202Y-65945233D02*
X132944869Y-65945233D01*
X133878202Y-67785233D02*
X133644869Y-68485233D01*
X133644869Y-68485233D02*
X133411535Y-67785233D01*
X133178202Y-68485233D02*
X133178202Y-67785233D01*
X132844869Y-68485233D02*
X132844869Y-67785233D01*
X132844869Y-67785233D02*
X132444869Y-68485233D01*
X132444869Y-68485233D02*
X132444869Y-67785233D01*
X133778202Y-73198566D02*
X133544869Y-73198566D01*
X133444869Y-73565233D02*
X133778202Y-73565233D01*
X133778202Y-73565233D02*
X133778202Y-72865233D01*
X133778202Y-72865233D02*
X133444869Y-72865233D01*
X133144869Y-73565233D02*
X133144869Y-72865233D01*
X133144869Y-72865233D02*
X132744869Y-73565233D01*
X132744869Y-73565233D02*
X132744869Y-72865233D01*
X134478202Y-62705233D02*
X134244869Y-63405233D01*
X134244869Y-63405233D02*
X134011535Y-62705233D01*
X133644869Y-62705233D02*
X133511535Y-62705233D01*
X133511535Y-62705233D02*
X133444869Y-62738566D01*
X133444869Y-62738566D02*
X133378202Y-62805233D01*
X133378202Y-62805233D02*
X133344869Y-62938566D01*
X133344869Y-62938566D02*
X133344869Y-63171900D01*
X133344869Y-63171900D02*
X133378202Y-63305233D01*
X133378202Y-63305233D02*
X133444869Y-63371900D01*
X133444869Y-63371900D02*
X133511535Y-63405233D01*
X133511535Y-63405233D02*
X133644869Y-63405233D01*
X133644869Y-63405233D02*
X133711535Y-63371900D01*
X133711535Y-63371900D02*
X133778202Y-63305233D01*
X133778202Y-63305233D02*
X133811535Y-63171900D01*
X133811535Y-63171900D02*
X133811535Y-62938566D01*
X133811535Y-62938566D02*
X133778202Y-62805233D01*
X133778202Y-62805233D02*
X133711535Y-62738566D01*
X133711535Y-62738566D02*
X133644869Y-62705233D01*
X133044869Y-62705233D02*
X133044869Y-63271900D01*
X133044869Y-63271900D02*
X133011536Y-63338566D01*
X133011536Y-63338566D02*
X132978202Y-63371900D01*
X132978202Y-63371900D02*
X132911536Y-63405233D01*
X132911536Y-63405233D02*
X132778202Y-63405233D01*
X132778202Y-63405233D02*
X132711536Y-63371900D01*
X132711536Y-63371900D02*
X132678202Y-63338566D01*
X132678202Y-63338566D02*
X132644869Y-63271900D01*
X132644869Y-63271900D02*
X132644869Y-62705233D01*
X132411536Y-62705233D02*
X132011536Y-62705233D01*
X132211536Y-63405233D02*
X132211536Y-62705233D01*
D11*
X118479774Y-82120828D02*
X117622632Y-82120828D01*
X118051203Y-83620828D02*
X118051203Y-82120828D01*
X117122632Y-83620828D02*
X117122632Y-82120828D01*
X117122632Y-82120828D02*
X116551203Y-82120828D01*
X116551203Y-82120828D02*
X116408346Y-82192257D01*
X116408346Y-82192257D02*
X116336917Y-82263685D01*
X116336917Y-82263685D02*
X116265489Y-82406542D01*
X116265489Y-82406542D02*
X116265489Y-82620828D01*
X116265489Y-82620828D02*
X116336917Y-82763685D01*
X116336917Y-82763685D02*
X116408346Y-82835114D01*
X116408346Y-82835114D02*
X116551203Y-82906542D01*
X116551203Y-82906542D02*
X117122632Y-82906542D01*
X115694060Y-83549400D02*
X115479775Y-83620828D01*
X115479775Y-83620828D02*
X115122632Y-83620828D01*
X115122632Y-83620828D02*
X114979775Y-83549400D01*
X114979775Y-83549400D02*
X114908346Y-83477971D01*
X114908346Y-83477971D02*
X114836917Y-83335114D01*
X114836917Y-83335114D02*
X114836917Y-83192257D01*
X114836917Y-83192257D02*
X114908346Y-83049400D01*
X114908346Y-83049400D02*
X114979775Y-82977971D01*
X114979775Y-82977971D02*
X115122632Y-82906542D01*
X115122632Y-82906542D02*
X115408346Y-82835114D01*
X115408346Y-82835114D02*
X115551203Y-82763685D01*
X115551203Y-82763685D02*
X115622632Y-82692257D01*
X115622632Y-82692257D02*
X115694060Y-82549400D01*
X115694060Y-82549400D02*
X115694060Y-82406542D01*
X115694060Y-82406542D02*
X115622632Y-82263685D01*
X115622632Y-82263685D02*
X115551203Y-82192257D01*
X115551203Y-82192257D02*
X115408346Y-82120828D01*
X115408346Y-82120828D02*
X115051203Y-82120828D01*
X115051203Y-82120828D02*
X114836917Y-82192257D01*
X113551204Y-82120828D02*
X113836918Y-82120828D01*
X113836918Y-82120828D02*
X113979775Y-82192257D01*
X113979775Y-82192257D02*
X114051204Y-82263685D01*
X114051204Y-82263685D02*
X114194061Y-82477971D01*
X114194061Y-82477971D02*
X114265489Y-82763685D01*
X114265489Y-82763685D02*
X114265489Y-83335114D01*
X114265489Y-83335114D02*
X114194061Y-83477971D01*
X114194061Y-83477971D02*
X114122632Y-83549400D01*
X114122632Y-83549400D02*
X113979775Y-83620828D01*
X113979775Y-83620828D02*
X113694061Y-83620828D01*
X113694061Y-83620828D02*
X113551204Y-83549400D01*
X113551204Y-83549400D02*
X113479775Y-83477971D01*
X113479775Y-83477971D02*
X113408346Y-83335114D01*
X113408346Y-83335114D02*
X113408346Y-82977971D01*
X113408346Y-82977971D02*
X113479775Y-82835114D01*
X113479775Y-82835114D02*
X113551204Y-82763685D01*
X113551204Y-82763685D02*
X113694061Y-82692257D01*
X113694061Y-82692257D02*
X113979775Y-82692257D01*
X113979775Y-82692257D02*
X114122632Y-82763685D01*
X114122632Y-82763685D02*
X114194061Y-82835114D01*
X114194061Y-82835114D02*
X114265489Y-82977971D01*
X111979775Y-83620828D02*
X112836918Y-83620828D01*
X112408347Y-83620828D02*
X112408347Y-82120828D01*
X112408347Y-82120828D02*
X112551204Y-82335114D01*
X112551204Y-82335114D02*
X112694061Y-82477971D01*
X112694061Y-82477971D02*
X112836918Y-82549400D01*
X111051204Y-82120828D02*
X110908347Y-82120828D01*
X110908347Y-82120828D02*
X110765490Y-82192257D01*
X110765490Y-82192257D02*
X110694062Y-82263685D01*
X110694062Y-82263685D02*
X110622633Y-82406542D01*
X110622633Y-82406542D02*
X110551204Y-82692257D01*
X110551204Y-82692257D02*
X110551204Y-83049400D01*
X110551204Y-83049400D02*
X110622633Y-83335114D01*
X110622633Y-83335114D02*
X110694062Y-83477971D01*
X110694062Y-83477971D02*
X110765490Y-83549400D01*
X110765490Y-83549400D02*
X110908347Y-83620828D01*
X110908347Y-83620828D02*
X111051204Y-83620828D01*
X111051204Y-83620828D02*
X111194062Y-83549400D01*
X111194062Y-83549400D02*
X111265490Y-83477971D01*
X111265490Y-83477971D02*
X111336919Y-83335114D01*
X111336919Y-83335114D02*
X111408347Y-83049400D01*
X111408347Y-83049400D02*
X111408347Y-82692257D01*
X111408347Y-82692257D02*
X111336919Y-82406542D01*
X111336919Y-82406542D02*
X111265490Y-82263685D01*
X111265490Y-82263685D02*
X111194062Y-82192257D01*
X111194062Y-82192257D02*
X111051204Y-82120828D01*
X110051205Y-82120828D02*
X109122633Y-82120828D01*
X109122633Y-82120828D02*
X109622633Y-82692257D01*
X109622633Y-82692257D02*
X109408348Y-82692257D01*
X109408348Y-82692257D02*
X109265491Y-82763685D01*
X109265491Y-82763685D02*
X109194062Y-82835114D01*
X109194062Y-82835114D02*
X109122633Y-82977971D01*
X109122633Y-82977971D02*
X109122633Y-83335114D01*
X109122633Y-83335114D02*
X109194062Y-83477971D01*
X109194062Y-83477971D02*
X109265491Y-83549400D01*
X109265491Y-83549400D02*
X109408348Y-83620828D01*
X109408348Y-83620828D02*
X109836919Y-83620828D01*
X109836919Y-83620828D02*
X109979776Y-83549400D01*
X109979776Y-83549400D02*
X110051205Y-83477971D01*
X108622634Y-82120828D02*
X107622634Y-83620828D01*
X107622634Y-82120828D02*
X108622634Y-83620828D01*
D10*
X99478202Y-62705233D02*
X99244869Y-63405233D01*
X99244869Y-63405233D02*
X99011535Y-62705233D01*
X98644869Y-62705233D02*
X98511535Y-62705233D01*
X98511535Y-62705233D02*
X98444869Y-62738566D01*
X98444869Y-62738566D02*
X98378202Y-62805233D01*
X98378202Y-62805233D02*
X98344869Y-62938566D01*
X98344869Y-62938566D02*
X98344869Y-63171900D01*
X98344869Y-63171900D02*
X98378202Y-63305233D01*
X98378202Y-63305233D02*
X98444869Y-63371900D01*
X98444869Y-63371900D02*
X98511535Y-63405233D01*
X98511535Y-63405233D02*
X98644869Y-63405233D01*
X98644869Y-63405233D02*
X98711535Y-63371900D01*
X98711535Y-63371900D02*
X98778202Y-63305233D01*
X98778202Y-63305233D02*
X98811535Y-63171900D01*
X98811535Y-63171900D02*
X98811535Y-62938566D01*
X98811535Y-62938566D02*
X98778202Y-62805233D01*
X98778202Y-62805233D02*
X98711535Y-62738566D01*
X98711535Y-62738566D02*
X98644869Y-62705233D01*
X98044869Y-62705233D02*
X98044869Y-63271900D01*
X98044869Y-63271900D02*
X98011536Y-63338566D01*
X98011536Y-63338566D02*
X97978202Y-63371900D01*
X97978202Y-63371900D02*
X97911536Y-63405233D01*
X97911536Y-63405233D02*
X97778202Y-63405233D01*
X97778202Y-63405233D02*
X97711536Y-63371900D01*
X97711536Y-63371900D02*
X97678202Y-63338566D01*
X97678202Y-63338566D02*
X97644869Y-63271900D01*
X97644869Y-63271900D02*
X97644869Y-62705233D01*
X97411536Y-62705233D02*
X97011536Y-62705233D01*
X97211536Y-63405233D02*
X97211536Y-62705233D01*
X98778202Y-73198566D02*
X98544869Y-73198566D01*
X98444869Y-73565233D02*
X98778202Y-73565233D01*
X98778202Y-73565233D02*
X98778202Y-72865233D01*
X98778202Y-72865233D02*
X98444869Y-72865233D01*
X98144869Y-73565233D02*
X98144869Y-72865233D01*
X98144869Y-72865233D02*
X97744869Y-73565233D01*
X97744869Y-73565233D02*
X97744869Y-72865233D01*
X98878202Y-67785233D02*
X98644869Y-68485233D01*
X98644869Y-68485233D02*
X98411535Y-67785233D01*
X98178202Y-68485233D02*
X98178202Y-67785233D01*
X97844869Y-68485233D02*
X97844869Y-67785233D01*
X97844869Y-67785233D02*
X97444869Y-68485233D01*
X97444869Y-68485233D02*
X97444869Y-67785233D01*
D11*
X83479774Y-82120828D02*
X82622632Y-82120828D01*
X83051203Y-83620828D02*
X83051203Y-82120828D01*
X82122632Y-83620828D02*
X82122632Y-82120828D01*
X82122632Y-82120828D02*
X81551203Y-82120828D01*
X81551203Y-82120828D02*
X81408346Y-82192257D01*
X81408346Y-82192257D02*
X81336917Y-82263685D01*
X81336917Y-82263685D02*
X81265489Y-82406542D01*
X81265489Y-82406542D02*
X81265489Y-82620828D01*
X81265489Y-82620828D02*
X81336917Y-82763685D01*
X81336917Y-82763685D02*
X81408346Y-82835114D01*
X81408346Y-82835114D02*
X81551203Y-82906542D01*
X81551203Y-82906542D02*
X82122632Y-82906542D01*
X80694060Y-83549400D02*
X80479775Y-83620828D01*
X80479775Y-83620828D02*
X80122632Y-83620828D01*
X80122632Y-83620828D02*
X79979775Y-83549400D01*
X79979775Y-83549400D02*
X79908346Y-83477971D01*
X79908346Y-83477971D02*
X79836917Y-83335114D01*
X79836917Y-83335114D02*
X79836917Y-83192257D01*
X79836917Y-83192257D02*
X79908346Y-83049400D01*
X79908346Y-83049400D02*
X79979775Y-82977971D01*
X79979775Y-82977971D02*
X80122632Y-82906542D01*
X80122632Y-82906542D02*
X80408346Y-82835114D01*
X80408346Y-82835114D02*
X80551203Y-82763685D01*
X80551203Y-82763685D02*
X80622632Y-82692257D01*
X80622632Y-82692257D02*
X80694060Y-82549400D01*
X80694060Y-82549400D02*
X80694060Y-82406542D01*
X80694060Y-82406542D02*
X80622632Y-82263685D01*
X80622632Y-82263685D02*
X80551203Y-82192257D01*
X80551203Y-82192257D02*
X80408346Y-82120828D01*
X80408346Y-82120828D02*
X80051203Y-82120828D01*
X80051203Y-82120828D02*
X79836917Y-82192257D01*
X78551204Y-82120828D02*
X78836918Y-82120828D01*
X78836918Y-82120828D02*
X78979775Y-82192257D01*
X78979775Y-82192257D02*
X79051204Y-82263685D01*
X79051204Y-82263685D02*
X79194061Y-82477971D01*
X79194061Y-82477971D02*
X79265489Y-82763685D01*
X79265489Y-82763685D02*
X79265489Y-83335114D01*
X79265489Y-83335114D02*
X79194061Y-83477971D01*
X79194061Y-83477971D02*
X79122632Y-83549400D01*
X79122632Y-83549400D02*
X78979775Y-83620828D01*
X78979775Y-83620828D02*
X78694061Y-83620828D01*
X78694061Y-83620828D02*
X78551204Y-83549400D01*
X78551204Y-83549400D02*
X78479775Y-83477971D01*
X78479775Y-83477971D02*
X78408346Y-83335114D01*
X78408346Y-83335114D02*
X78408346Y-82977971D01*
X78408346Y-82977971D02*
X78479775Y-82835114D01*
X78479775Y-82835114D02*
X78551204Y-82763685D01*
X78551204Y-82763685D02*
X78694061Y-82692257D01*
X78694061Y-82692257D02*
X78979775Y-82692257D01*
X78979775Y-82692257D02*
X79122632Y-82763685D01*
X79122632Y-82763685D02*
X79194061Y-82835114D01*
X79194061Y-82835114D02*
X79265489Y-82977971D01*
X76979775Y-83620828D02*
X77836918Y-83620828D01*
X77408347Y-83620828D02*
X77408347Y-82120828D01*
X77408347Y-82120828D02*
X77551204Y-82335114D01*
X77551204Y-82335114D02*
X77694061Y-82477971D01*
X77694061Y-82477971D02*
X77836918Y-82549400D01*
X76051204Y-82120828D02*
X75908347Y-82120828D01*
X75908347Y-82120828D02*
X75765490Y-82192257D01*
X75765490Y-82192257D02*
X75694062Y-82263685D01*
X75694062Y-82263685D02*
X75622633Y-82406542D01*
X75622633Y-82406542D02*
X75551204Y-82692257D01*
X75551204Y-82692257D02*
X75551204Y-83049400D01*
X75551204Y-83049400D02*
X75622633Y-83335114D01*
X75622633Y-83335114D02*
X75694062Y-83477971D01*
X75694062Y-83477971D02*
X75765490Y-83549400D01*
X75765490Y-83549400D02*
X75908347Y-83620828D01*
X75908347Y-83620828D02*
X76051204Y-83620828D01*
X76051204Y-83620828D02*
X76194062Y-83549400D01*
X76194062Y-83549400D02*
X76265490Y-83477971D01*
X76265490Y-83477971D02*
X76336919Y-83335114D01*
X76336919Y-83335114D02*
X76408347Y-83049400D01*
X76408347Y-83049400D02*
X76408347Y-82692257D01*
X76408347Y-82692257D02*
X76336919Y-82406542D01*
X76336919Y-82406542D02*
X76265490Y-82263685D01*
X76265490Y-82263685D02*
X76194062Y-82192257D01*
X76194062Y-82192257D02*
X76051204Y-82120828D01*
X75051205Y-82120828D02*
X74122633Y-82120828D01*
X74122633Y-82120828D02*
X74622633Y-82692257D01*
X74622633Y-82692257D02*
X74408348Y-82692257D01*
X74408348Y-82692257D02*
X74265491Y-82763685D01*
X74265491Y-82763685D02*
X74194062Y-82835114D01*
X74194062Y-82835114D02*
X74122633Y-82977971D01*
X74122633Y-82977971D02*
X74122633Y-83335114D01*
X74122633Y-83335114D02*
X74194062Y-83477971D01*
X74194062Y-83477971D02*
X74265491Y-83549400D01*
X74265491Y-83549400D02*
X74408348Y-83620828D01*
X74408348Y-83620828D02*
X74836919Y-83620828D01*
X74836919Y-83620828D02*
X74979776Y-83549400D01*
X74979776Y-83549400D02*
X75051205Y-83477971D01*
X73622634Y-82120828D02*
X72622634Y-83620828D01*
X72622634Y-82120828D02*
X73622634Y-83620828D01*
D10*
X98444869Y-71025233D02*
X98778202Y-71025233D01*
X98778202Y-71025233D02*
X98778202Y-70325233D01*
X97978202Y-70658566D02*
X97878202Y-70691900D01*
X97878202Y-70691900D02*
X97844868Y-70725233D01*
X97844868Y-70725233D02*
X97811535Y-70791900D01*
X97811535Y-70791900D02*
X97811535Y-70891900D01*
X97811535Y-70891900D02*
X97844868Y-70958566D01*
X97844868Y-70958566D02*
X97878202Y-70991900D01*
X97878202Y-70991900D02*
X97944868Y-71025233D01*
X97944868Y-71025233D02*
X98211535Y-71025233D01*
X98211535Y-71025233D02*
X98211535Y-70325233D01*
X98211535Y-70325233D02*
X97978202Y-70325233D01*
X97978202Y-70325233D02*
X97911535Y-70358566D01*
X97911535Y-70358566D02*
X97878202Y-70391900D01*
X97878202Y-70391900D02*
X97844868Y-70458566D01*
X97844868Y-70458566D02*
X97844868Y-70525233D01*
X97844868Y-70525233D02*
X97878202Y-70591900D01*
X97878202Y-70591900D02*
X97911535Y-70625233D01*
X97911535Y-70625233D02*
X97978202Y-70658566D01*
X97978202Y-70658566D02*
X98211535Y-70658566D01*
X97378202Y-70325233D02*
X97244868Y-70325233D01*
X97244868Y-70325233D02*
X97178202Y-70358566D01*
X97178202Y-70358566D02*
X97111535Y-70425233D01*
X97111535Y-70425233D02*
X97078202Y-70558566D01*
X97078202Y-70558566D02*
X97078202Y-70791900D01*
X97078202Y-70791900D02*
X97111535Y-70925233D01*
X97111535Y-70925233D02*
X97178202Y-70991900D01*
X97178202Y-70991900D02*
X97244868Y-71025233D01*
X97244868Y-71025233D02*
X97378202Y-71025233D01*
X97378202Y-71025233D02*
X97444868Y-70991900D01*
X97444868Y-70991900D02*
X97511535Y-70925233D01*
X97511535Y-70925233D02*
X97544868Y-70791900D01*
X97544868Y-70791900D02*
X97544868Y-70558566D01*
X97544868Y-70558566D02*
X97511535Y-70425233D01*
X97511535Y-70425233D02*
X97444868Y-70358566D01*
X97444868Y-70358566D02*
X97378202Y-70325233D01*
X99011535Y-65278566D02*
X99078202Y-65245233D01*
X99078202Y-65245233D02*
X99178202Y-65245233D01*
X99178202Y-65245233D02*
X99278202Y-65278566D01*
X99278202Y-65278566D02*
X99344869Y-65345233D01*
X99344869Y-65345233D02*
X99378202Y-65411900D01*
X99378202Y-65411900D02*
X99411535Y-65545233D01*
X99411535Y-65545233D02*
X99411535Y-65645233D01*
X99411535Y-65645233D02*
X99378202Y-65778566D01*
X99378202Y-65778566D02*
X99344869Y-65845233D01*
X99344869Y-65845233D02*
X99278202Y-65911900D01*
X99278202Y-65911900D02*
X99178202Y-65945233D01*
X99178202Y-65945233D02*
X99111535Y-65945233D01*
X99111535Y-65945233D02*
X99011535Y-65911900D01*
X99011535Y-65911900D02*
X98978202Y-65878566D01*
X98978202Y-65878566D02*
X98978202Y-65645233D01*
X98978202Y-65645233D02*
X99111535Y-65645233D01*
X98678202Y-65945233D02*
X98678202Y-65245233D01*
X98678202Y-65245233D02*
X98278202Y-65945233D01*
X98278202Y-65945233D02*
X98278202Y-65245233D01*
X97944869Y-65945233D02*
X97944869Y-65245233D01*
X97944869Y-65245233D02*
X97778202Y-65245233D01*
X97778202Y-65245233D02*
X97678202Y-65278566D01*
X97678202Y-65278566D02*
X97611536Y-65345233D01*
X97611536Y-65345233D02*
X97578202Y-65411900D01*
X97578202Y-65411900D02*
X97544869Y-65545233D01*
X97544869Y-65545233D02*
X97544869Y-65645233D01*
X97544869Y-65645233D02*
X97578202Y-65778566D01*
X97578202Y-65778566D02*
X97611536Y-65845233D01*
X97611536Y-65845233D02*
X97678202Y-65911900D01*
X97678202Y-65911900D02*
X97778202Y-65945233D01*
X97778202Y-65945233D02*
X97944869Y-65945233D01*
M02*
