%TF.GenerationSoftware,KiCad,Pcbnew,7.0.11+dfsg-1build4*%
%TF.CreationDate,2026-01-16T21:08:39-05:00*%
%TF.ProjectId,,58585858-5858-4585-9858-585858585858,rev?*%
%TF.SameCoordinates,Original*%
%TF.FileFunction,Soldermask,Top*%
%TF.FilePolarity,Negative*%
%FSLAX46Y46*%
G04 Gerber Fmt 4.6, Leading zero omitted, Abs format (unit mm)*
G04 Created by KiCad (PCBNEW 7.0.11+dfsg-1build4) date 2026-01-16 21:08:39*
%MOMM*%
%LPD*%
G01*
G04 APERTURE LIST*
G04 Aperture macros list*
%AMRoundRect*
0 Rectangle with rounded corners*
0 $1 Rounding radius*
0 $2 $3 $4 $5 $6 $7 $8 $9 X,Y pos of 4 corners*
0 Add a 4 corners polygon primitive as box body*
4,1,4,$2,$3,$4,$5,$6,$7,$8,$9,$2,$3,0*
0 Add four circle primitives for the rounded corners*
1,1,$1+$1,$2,$3*
1,1,$1+$1,$4,$5*
1,1,$1+$1,$6,$7*
1,1,$1+$1,$8,$9*
0 Add four rect primitives between the rounded corners*
20,1,$1+$1,$2,$3,$4,$5,0*
20,1,$1+$1,$4,$5,$6,$7,0*
20,1,$1+$1,$6,$7,$8,$9,0*
20,1,$1+$1,$8,$9,$2,$3,0*%
G04 Aperture macros list end*
%ADD10RoundRect,0.250000X-0.350000X-0.450000X0.350000X-0.450000X0.350000X0.450000X-0.350000X0.450000X0*%
%ADD11RoundRect,0.250000X0.350000X0.450000X-0.350000X0.450000X-0.350000X-0.450000X0.350000X-0.450000X0*%
%ADD12R,1.700000X1.700000*%
%ADD13O,1.700000X1.700000*%
%ADD14RoundRect,0.250000X-1.950000X-1.000000X1.950000X-1.000000X1.950000X1.000000X-1.950000X1.000000X0*%
%ADD15R,1.050000X0.450000*%
%ADD16R,3.400000X5.000000*%
%ADD17R,5.400000X2.800000*%
%ADD18RoundRect,0.250000X-0.337500X-0.475000X0.337500X-0.475000X0.337500X0.475000X-0.337500X0.475000X0*%
G04 APERTURE END LIST*
D10*
%TO.C,R4*%
X131520000Y-112740000D03*
X133520000Y-112740000D03*
%TD*%
D11*
%TO.C,R3*%
X133520000Y-107660000D03*
X131520000Y-107660000D03*
%TD*%
D12*
%TO.C,J1*%
X139140000Y-97500000D03*
D13*
X139140000Y-100040000D03*
X139140000Y-102580000D03*
X139140000Y-105120000D03*
X139140000Y-107660000D03*
%TD*%
D14*
%TO.C,C3*%
X110360000Y-90740000D03*
X117760000Y-90740000D03*
%TD*%
D10*
%TO.C,R5*%
X131520000Y-102580000D03*
X133520000Y-102580000D03*
%TD*%
D14*
%TO.C,C4*%
X110360000Y-114740000D03*
X117760000Y-114740000D03*
%TD*%
D15*
%TO.C,U1*%
X122285000Y-100465000D03*
X122285000Y-101115000D03*
X122285000Y-101765000D03*
X122285000Y-102415000D03*
X122285000Y-103065000D03*
X122285000Y-103715000D03*
X122285000Y-104365000D03*
X122285000Y-105015000D03*
X127835000Y-105015000D03*
X127835000Y-104365000D03*
X127835000Y-103715000D03*
X127835000Y-103065000D03*
X127835000Y-102415000D03*
X127835000Y-101765000D03*
X127835000Y-101115000D03*
X127835000Y-100465000D03*
D16*
X125060000Y-102740000D03*
%TD*%
D17*
%TO.C,L1*%
X113740000Y-107640000D03*
X113740000Y-97840000D03*
%TD*%
D18*
%TO.C,C1*%
X123900000Y-110200000D03*
X125975000Y-110200000D03*
%TD*%
D11*
%TO.C,R1*%
X133520000Y-92420000D03*
X131520000Y-92420000D03*
%TD*%
D10*
%TO.C,R2*%
X131520000Y-97500000D03*
X133520000Y-97500000D03*
%TD*%
D18*
%TO.C,C2*%
X123900000Y-97500000D03*
X125975000Y-97500000D03*
%TD*%
D10*
%TO.C,R4*%
X96520000Y-112740000D03*
X98520000Y-112740000D03*
%TD*%
D11*
%TO.C,R3*%
X98520000Y-107660000D03*
X96520000Y-107660000D03*
%TD*%
D12*
%TO.C,J1*%
X104140000Y-97500000D03*
D13*
X104140000Y-100040000D03*
X104140000Y-102580000D03*
X104140000Y-105120000D03*
X104140000Y-107660000D03*
%TD*%
D14*
%TO.C,C3*%
X75360000Y-90740000D03*
X82760000Y-90740000D03*
%TD*%
D10*
%TO.C,R5*%
X96520000Y-102580000D03*
X98520000Y-102580000D03*
%TD*%
D14*
%TO.C,C4*%
X75360000Y-114740000D03*
X82760000Y-114740000D03*
%TD*%
D15*
%TO.C,U1*%
X87285000Y-100465000D03*
X87285000Y-101115000D03*
X87285000Y-101765000D03*
X87285000Y-102415000D03*
X87285000Y-103065000D03*
X87285000Y-103715000D03*
X87285000Y-104365000D03*
X87285000Y-105015000D03*
X92835000Y-105015000D03*
X92835000Y-104365000D03*
X92835000Y-103715000D03*
X92835000Y-103065000D03*
X92835000Y-102415000D03*
X92835000Y-101765000D03*
X92835000Y-101115000D03*
X92835000Y-100465000D03*
D16*
X90060000Y-102740000D03*
%TD*%
D17*
%TO.C,L1*%
X78740000Y-107640000D03*
X78740000Y-97840000D03*
%TD*%
D18*
%TO.C,C1*%
X88900000Y-110200000D03*
X90975000Y-110200000D03*
%TD*%
D11*
%TO.C,R1*%
X98520000Y-92420000D03*
X96520000Y-92420000D03*
%TD*%
D10*
%TO.C,R2*%
X96520000Y-97500000D03*
X98520000Y-97500000D03*
%TD*%
D18*
%TO.C,C2*%
X88900000Y-97500000D03*
X90975000Y-97500000D03*
%TD*%
D10*
%TO.C,R4*%
X131520000Y-78740000D03*
X133520000Y-78740000D03*
%TD*%
D11*
%TO.C,R3*%
X133520000Y-73660000D03*
X131520000Y-73660000D03*
%TD*%
D12*
%TO.C,J1*%
X139140000Y-63500000D03*
D13*
X139140000Y-66040000D03*
X139140000Y-68580000D03*
X139140000Y-71120000D03*
X139140000Y-73660000D03*
%TD*%
D14*
%TO.C,C3*%
X110360000Y-56740000D03*
X117760000Y-56740000D03*
%TD*%
D10*
%TO.C,R5*%
X131520000Y-68580000D03*
X133520000Y-68580000D03*
%TD*%
D14*
%TO.C,C4*%
X110360000Y-80740000D03*
X117760000Y-80740000D03*
%TD*%
D15*
%TO.C,U1*%
X122285000Y-66465000D03*
X122285000Y-67115000D03*
X122285000Y-67765000D03*
X122285000Y-68415000D03*
X122285000Y-69065000D03*
X122285000Y-69715000D03*
X122285000Y-70365000D03*
X122285000Y-71015000D03*
X127835000Y-71015000D03*
X127835000Y-70365000D03*
X127835000Y-69715000D03*
X127835000Y-69065000D03*
X127835000Y-68415000D03*
X127835000Y-67765000D03*
X127835000Y-67115000D03*
X127835000Y-66465000D03*
D16*
X125060000Y-68740000D03*
%TD*%
D17*
%TO.C,L1*%
X113740000Y-73640000D03*
X113740000Y-63840000D03*
%TD*%
D18*
%TO.C,C1*%
X123900000Y-76200000D03*
X125975000Y-76200000D03*
%TD*%
D11*
%TO.C,R1*%
X133520000Y-58420000D03*
X131520000Y-58420000D03*
%TD*%
D10*
%TO.C,R2*%
X131520000Y-63500000D03*
X133520000Y-63500000D03*
%TD*%
D18*
%TO.C,C2*%
X123900000Y-63500000D03*
X125975000Y-63500000D03*
%TD*%
D15*
%TO.C,U1*%
X87285000Y-66465000D03*
X87285000Y-67115000D03*
X87285000Y-67765000D03*
X87285000Y-68415000D03*
X87285000Y-69065000D03*
X87285000Y-69715000D03*
X87285000Y-70365000D03*
X87285000Y-71015000D03*
X92835000Y-71015000D03*
X92835000Y-70365000D03*
X92835000Y-69715000D03*
X92835000Y-69065000D03*
X92835000Y-68415000D03*
X92835000Y-67765000D03*
X92835000Y-67115000D03*
X92835000Y-66465000D03*
D16*
X90060000Y-68740000D03*
%TD*%
D14*
%TO.C,C4*%
X75360000Y-80740000D03*
X82760000Y-80740000D03*
%TD*%
D11*
%TO.C,R3*%
X98520000Y-73660000D03*
X96520000Y-73660000D03*
%TD*%
D18*
%TO.C,C1*%
X88900000Y-76200000D03*
X90975000Y-76200000D03*
%TD*%
D17*
%TO.C,L1*%
X78740000Y-73640000D03*
X78740000Y-63840000D03*
%TD*%
D11*
%TO.C,R1*%
X98520000Y-58420000D03*
X96520000Y-58420000D03*
%TD*%
D10*
%TO.C,R5*%
X96520000Y-68580000D03*
X98520000Y-68580000D03*
%TD*%
D14*
%TO.C,C3*%
X75360000Y-56740000D03*
X82760000Y-56740000D03*
%TD*%
D10*
%TO.C,R4*%
X96520000Y-78740000D03*
X98520000Y-78740000D03*
%TD*%
D12*
%TO.C,J1*%
X104140000Y-63500000D03*
D13*
X104140000Y-66040000D03*
X104140000Y-68580000D03*
X104140000Y-71120000D03*
X104140000Y-73660000D03*
%TD*%
D18*
%TO.C,C2*%
X88900000Y-63500000D03*
X90975000Y-63500000D03*
%TD*%
D10*
%TO.C,R2*%
X96520000Y-63500000D03*
X98520000Y-63500000D03*
%TD*%
M02*
