%TF.GenerationSoftware,KiCad,Pcbnew,7.0.11+dfsg-1build4*%
%TF.CreationDate,2026-01-16T21:08:39-05:00*%
%TF.ProjectId,,58585858-5858-4585-9858-585858585858,rev?*%
%TF.SameCoordinates,Original*%
%TF.FileFunction,Legend,Top*%
%TF.FilePolarity,Positive*%
%FSLAX46Y46*%
G04 Gerber Fmt 4.6, Leading zero omitted, Abs format (unit mm)*
G04 Created by KiCad (PCBNEW 7.0.11+dfsg-1build4) date 2026-01-16 21:08:39*
%MOMM*%
%LPD*%
G01*
G04 APERTURE LIST*
%ADD10C,0.175000*%
%ADD11C,0.300000*%
%ADD12C,0.150000*%
%ADD13C,0.120000*%
G04 APERTURE END LIST*
D10*
X135675131Y-105025233D02*
X135341797Y-105025233D01*
X135341797Y-105025233D02*
X135341797Y-104325233D01*
X136141798Y-104658566D02*
X136241798Y-104691900D01*
X136241798Y-104691900D02*
X136275131Y-104725233D01*
X136275131Y-104725233D02*
X136308464Y-104791900D01*
X136308464Y-104791900D02*
X136308464Y-104891900D01*
X136308464Y-104891900D02*
X136275131Y-104958566D01*
X136275131Y-104958566D02*
X136241798Y-104991900D01*
X136241798Y-104991900D02*
X136175131Y-105025233D01*
X136175131Y-105025233D02*
X135908464Y-105025233D01*
X135908464Y-105025233D02*
X135908464Y-104325233D01*
X135908464Y-104325233D02*
X136141798Y-104325233D01*
X136141798Y-104325233D02*
X136208464Y-104358566D01*
X136208464Y-104358566D02*
X136241798Y-104391900D01*
X136241798Y-104391900D02*
X136275131Y-104458566D01*
X136275131Y-104458566D02*
X136275131Y-104525233D01*
X136275131Y-104525233D02*
X136241798Y-104591900D01*
X136241798Y-104591900D02*
X136208464Y-104625233D01*
X136208464Y-104625233D02*
X136141798Y-104658566D01*
X136141798Y-104658566D02*
X135908464Y-104658566D01*
X136741798Y-104325233D02*
X136875131Y-104325233D01*
X136875131Y-104325233D02*
X136941798Y-104358566D01*
X136941798Y-104358566D02*
X137008464Y-104425233D01*
X137008464Y-104425233D02*
X137041798Y-104558566D01*
X137041798Y-104558566D02*
X137041798Y-104791900D01*
X137041798Y-104791900D02*
X137008464Y-104925233D01*
X137008464Y-104925233D02*
X136941798Y-104991900D01*
X136941798Y-104991900D02*
X136875131Y-105025233D01*
X136875131Y-105025233D02*
X136741798Y-105025233D01*
X136741798Y-105025233D02*
X136675131Y-104991900D01*
X136675131Y-104991900D02*
X136608464Y-104925233D01*
X136608464Y-104925233D02*
X136575131Y-104791900D01*
X136575131Y-104791900D02*
X136575131Y-104558566D01*
X136575131Y-104558566D02*
X136608464Y-104425233D01*
X136608464Y-104425233D02*
X136675131Y-104358566D01*
X136675131Y-104358566D02*
X136741798Y-104325233D01*
D11*
X129320225Y-116120828D02*
X130177368Y-116120828D01*
X129748796Y-117620828D02*
X129748796Y-116120828D01*
X130677367Y-117620828D02*
X130677367Y-116120828D01*
X130677367Y-116120828D02*
X131248796Y-116120828D01*
X131248796Y-116120828D02*
X131391653Y-116192257D01*
X131391653Y-116192257D02*
X131463082Y-116263685D01*
X131463082Y-116263685D02*
X131534510Y-116406542D01*
X131534510Y-116406542D02*
X131534510Y-116620828D01*
X131534510Y-116620828D02*
X131463082Y-116763685D01*
X131463082Y-116763685D02*
X131391653Y-116835114D01*
X131391653Y-116835114D02*
X131248796Y-116906542D01*
X131248796Y-116906542D02*
X130677367Y-116906542D01*
X132105939Y-117549400D02*
X132320225Y-117620828D01*
X132320225Y-117620828D02*
X132677367Y-117620828D01*
X132677367Y-117620828D02*
X132820225Y-117549400D01*
X132820225Y-117549400D02*
X132891653Y-117477971D01*
X132891653Y-117477971D02*
X132963082Y-117335114D01*
X132963082Y-117335114D02*
X132963082Y-117192257D01*
X132963082Y-117192257D02*
X132891653Y-117049400D01*
X132891653Y-117049400D02*
X132820225Y-116977971D01*
X132820225Y-116977971D02*
X132677367Y-116906542D01*
X132677367Y-116906542D02*
X132391653Y-116835114D01*
X132391653Y-116835114D02*
X132248796Y-116763685D01*
X132248796Y-116763685D02*
X132177367Y-116692257D01*
X132177367Y-116692257D02*
X132105939Y-116549400D01*
X132105939Y-116549400D02*
X132105939Y-116406542D01*
X132105939Y-116406542D02*
X132177367Y-116263685D01*
X132177367Y-116263685D02*
X132248796Y-116192257D01*
X132248796Y-116192257D02*
X132391653Y-116120828D01*
X132391653Y-116120828D02*
X132748796Y-116120828D01*
X132748796Y-116120828D02*
X132963082Y-116192257D01*
X134248796Y-116120828D02*
X133963081Y-116120828D01*
X133963081Y-116120828D02*
X133820224Y-116192257D01*
X133820224Y-116192257D02*
X133748796Y-116263685D01*
X133748796Y-116263685D02*
X133605938Y-116477971D01*
X133605938Y-116477971D02*
X133534510Y-116763685D01*
X133534510Y-116763685D02*
X133534510Y-117335114D01*
X133534510Y-117335114D02*
X133605938Y-117477971D01*
X133605938Y-117477971D02*
X133677367Y-117549400D01*
X133677367Y-117549400D02*
X133820224Y-117620828D01*
X133820224Y-117620828D02*
X134105938Y-117620828D01*
X134105938Y-117620828D02*
X134248796Y-117549400D01*
X134248796Y-117549400D02*
X134320224Y-117477971D01*
X134320224Y-117477971D02*
X134391653Y-117335114D01*
X134391653Y-117335114D02*
X134391653Y-116977971D01*
X134391653Y-116977971D02*
X134320224Y-116835114D01*
X134320224Y-116835114D02*
X134248796Y-116763685D01*
X134248796Y-116763685D02*
X134105938Y-116692257D01*
X134105938Y-116692257D02*
X133820224Y-116692257D01*
X133820224Y-116692257D02*
X133677367Y-116763685D01*
X133677367Y-116763685D02*
X133605938Y-116835114D01*
X133605938Y-116835114D02*
X133534510Y-116977971D01*
X135820224Y-117620828D02*
X134963081Y-117620828D01*
X135391652Y-117620828D02*
X135391652Y-116120828D01*
X135391652Y-116120828D02*
X135248795Y-116335114D01*
X135248795Y-116335114D02*
X135105938Y-116477971D01*
X135105938Y-116477971D02*
X134963081Y-116549400D01*
X136748795Y-116120828D02*
X136891652Y-116120828D01*
X136891652Y-116120828D02*
X137034509Y-116192257D01*
X137034509Y-116192257D02*
X137105938Y-116263685D01*
X137105938Y-116263685D02*
X137177366Y-116406542D01*
X137177366Y-116406542D02*
X137248795Y-116692257D01*
X137248795Y-116692257D02*
X137248795Y-117049400D01*
X137248795Y-117049400D02*
X137177366Y-117335114D01*
X137177366Y-117335114D02*
X137105938Y-117477971D01*
X137105938Y-117477971D02*
X137034509Y-117549400D01*
X137034509Y-117549400D02*
X136891652Y-117620828D01*
X136891652Y-117620828D02*
X136748795Y-117620828D01*
X136748795Y-117620828D02*
X136605938Y-117549400D01*
X136605938Y-117549400D02*
X136534509Y-117477971D01*
X136534509Y-117477971D02*
X136463080Y-117335114D01*
X136463080Y-117335114D02*
X136391652Y-117049400D01*
X136391652Y-117049400D02*
X136391652Y-116692257D01*
X136391652Y-116692257D02*
X136463080Y-116406542D01*
X136463080Y-116406542D02*
X136534509Y-116263685D01*
X136534509Y-116263685D02*
X136605938Y-116192257D01*
X136605938Y-116192257D02*
X136748795Y-116120828D01*
X137748794Y-116120828D02*
X138677366Y-116120828D01*
X138677366Y-116120828D02*
X138177366Y-116692257D01*
X138177366Y-116692257D02*
X138391651Y-116692257D01*
X138391651Y-116692257D02*
X138534509Y-116763685D01*
X138534509Y-116763685D02*
X138605937Y-116835114D01*
X138605937Y-116835114D02*
X138677366Y-116977971D01*
X138677366Y-116977971D02*
X138677366Y-117335114D01*
X138677366Y-117335114D02*
X138605937Y-117477971D01*
X138605937Y-117477971D02*
X138534509Y-117549400D01*
X138534509Y-117549400D02*
X138391651Y-117620828D01*
X138391651Y-117620828D02*
X137963080Y-117620828D01*
X137963080Y-117620828D02*
X137820223Y-117549400D01*
X137820223Y-117549400D02*
X137748794Y-117477971D01*
X139177365Y-116120828D02*
X140177365Y-117620828D01*
X140177365Y-116120828D02*
X139177365Y-117620828D01*
D10*
X135341797Y-107198566D02*
X135575131Y-107198566D01*
X135675131Y-107565233D02*
X135341797Y-107565233D01*
X135341797Y-107565233D02*
X135341797Y-106865233D01*
X135341797Y-106865233D02*
X135675131Y-106865233D01*
X135975130Y-107565233D02*
X135975130Y-106865233D01*
X135975130Y-106865233D02*
X136375130Y-107565233D01*
X136375130Y-107565233D02*
X136375130Y-106865233D01*
X135108464Y-99278566D02*
X135041797Y-99245233D01*
X135041797Y-99245233D02*
X134941797Y-99245233D01*
X134941797Y-99245233D02*
X134841797Y-99278566D01*
X134841797Y-99278566D02*
X134775131Y-99345233D01*
X134775131Y-99345233D02*
X134741797Y-99411900D01*
X134741797Y-99411900D02*
X134708464Y-99545233D01*
X134708464Y-99545233D02*
X134708464Y-99645233D01*
X134708464Y-99645233D02*
X134741797Y-99778566D01*
X134741797Y-99778566D02*
X134775131Y-99845233D01*
X134775131Y-99845233D02*
X134841797Y-99911900D01*
X134841797Y-99911900D02*
X134941797Y-99945233D01*
X134941797Y-99945233D02*
X135008464Y-99945233D01*
X135008464Y-99945233D02*
X135108464Y-99911900D01*
X135108464Y-99911900D02*
X135141797Y-99878566D01*
X135141797Y-99878566D02*
X135141797Y-99645233D01*
X135141797Y-99645233D02*
X135008464Y-99645233D01*
X135441797Y-99945233D02*
X135441797Y-99245233D01*
X135441797Y-99245233D02*
X135841797Y-99945233D01*
X135841797Y-99945233D02*
X135841797Y-99245233D01*
X136175130Y-99945233D02*
X136175130Y-99245233D01*
X136175130Y-99245233D02*
X136341797Y-99245233D01*
X136341797Y-99245233D02*
X136441797Y-99278566D01*
X136441797Y-99278566D02*
X136508464Y-99345233D01*
X136508464Y-99345233D02*
X136541797Y-99411900D01*
X136541797Y-99411900D02*
X136575130Y-99545233D01*
X136575130Y-99545233D02*
X136575130Y-99645233D01*
X136575130Y-99645233D02*
X136541797Y-99778566D01*
X136541797Y-99778566D02*
X136508464Y-99845233D01*
X136508464Y-99845233D02*
X136441797Y-99911900D01*
X136441797Y-99911900D02*
X136341797Y-99945233D01*
X136341797Y-99945233D02*
X136175130Y-99945233D01*
X135241797Y-101785233D02*
X135475131Y-102485233D01*
X135475131Y-102485233D02*
X135708464Y-101785233D01*
X135941797Y-102485233D02*
X135941797Y-101785233D01*
X136275130Y-102485233D02*
X136275130Y-101785233D01*
X136275130Y-101785233D02*
X136675130Y-102485233D01*
X136675130Y-102485233D02*
X136675130Y-101785233D01*
X134641797Y-96705233D02*
X134875131Y-97405233D01*
X134875131Y-97405233D02*
X135108464Y-96705233D01*
X135475131Y-96705233D02*
X135608464Y-96705233D01*
X135608464Y-96705233D02*
X135675131Y-96738566D01*
X135675131Y-96738566D02*
X135741797Y-96805233D01*
X135741797Y-96805233D02*
X135775131Y-96938566D01*
X135775131Y-96938566D02*
X135775131Y-97171900D01*
X135775131Y-97171900D02*
X135741797Y-97305233D01*
X135741797Y-97305233D02*
X135675131Y-97371900D01*
X135675131Y-97371900D02*
X135608464Y-97405233D01*
X135608464Y-97405233D02*
X135475131Y-97405233D01*
X135475131Y-97405233D02*
X135408464Y-97371900D01*
X135408464Y-97371900D02*
X135341797Y-97305233D01*
X135341797Y-97305233D02*
X135308464Y-97171900D01*
X135308464Y-97171900D02*
X135308464Y-96938566D01*
X135308464Y-96938566D02*
X135341797Y-96805233D01*
X135341797Y-96805233D02*
X135408464Y-96738566D01*
X135408464Y-96738566D02*
X135475131Y-96705233D01*
X136075130Y-96705233D02*
X136075130Y-97271900D01*
X136075130Y-97271900D02*
X136108464Y-97338566D01*
X136108464Y-97338566D02*
X136141797Y-97371900D01*
X136141797Y-97371900D02*
X136208464Y-97405233D01*
X136208464Y-97405233D02*
X136341797Y-97405233D01*
X136341797Y-97405233D02*
X136408464Y-97371900D01*
X136408464Y-97371900D02*
X136441797Y-97338566D01*
X136441797Y-97338566D02*
X136475130Y-97271900D01*
X136475130Y-97271900D02*
X136475130Y-96705233D01*
X136708463Y-96705233D02*
X137108463Y-96705233D01*
X136908463Y-97405233D02*
X136908463Y-96705233D01*
X100675131Y-105025233D02*
X100341797Y-105025233D01*
X100341797Y-105025233D02*
X100341797Y-104325233D01*
X101141798Y-104658566D02*
X101241798Y-104691900D01*
X101241798Y-104691900D02*
X101275131Y-104725233D01*
X101275131Y-104725233D02*
X101308464Y-104791900D01*
X101308464Y-104791900D02*
X101308464Y-104891900D01*
X101308464Y-104891900D02*
X101275131Y-104958566D01*
X101275131Y-104958566D02*
X101241798Y-104991900D01*
X101241798Y-104991900D02*
X101175131Y-105025233D01*
X101175131Y-105025233D02*
X100908464Y-105025233D01*
X100908464Y-105025233D02*
X100908464Y-104325233D01*
X100908464Y-104325233D02*
X101141798Y-104325233D01*
X101141798Y-104325233D02*
X101208464Y-104358566D01*
X101208464Y-104358566D02*
X101241798Y-104391900D01*
X101241798Y-104391900D02*
X101275131Y-104458566D01*
X101275131Y-104458566D02*
X101275131Y-104525233D01*
X101275131Y-104525233D02*
X101241798Y-104591900D01*
X101241798Y-104591900D02*
X101208464Y-104625233D01*
X101208464Y-104625233D02*
X101141798Y-104658566D01*
X101141798Y-104658566D02*
X100908464Y-104658566D01*
X101741798Y-104325233D02*
X101875131Y-104325233D01*
X101875131Y-104325233D02*
X101941798Y-104358566D01*
X101941798Y-104358566D02*
X102008464Y-104425233D01*
X102008464Y-104425233D02*
X102041798Y-104558566D01*
X102041798Y-104558566D02*
X102041798Y-104791900D01*
X102041798Y-104791900D02*
X102008464Y-104925233D01*
X102008464Y-104925233D02*
X101941798Y-104991900D01*
X101941798Y-104991900D02*
X101875131Y-105025233D01*
X101875131Y-105025233D02*
X101741798Y-105025233D01*
X101741798Y-105025233D02*
X101675131Y-104991900D01*
X101675131Y-104991900D02*
X101608464Y-104925233D01*
X101608464Y-104925233D02*
X101575131Y-104791900D01*
X101575131Y-104791900D02*
X101575131Y-104558566D01*
X101575131Y-104558566D02*
X101608464Y-104425233D01*
X101608464Y-104425233D02*
X101675131Y-104358566D01*
X101675131Y-104358566D02*
X101741798Y-104325233D01*
D11*
X94320225Y-116120828D02*
X95177368Y-116120828D01*
X94748796Y-117620828D02*
X94748796Y-116120828D01*
X95677367Y-117620828D02*
X95677367Y-116120828D01*
X95677367Y-116120828D02*
X96248796Y-116120828D01*
X96248796Y-116120828D02*
X96391653Y-116192257D01*
X96391653Y-116192257D02*
X96463082Y-116263685D01*
X96463082Y-116263685D02*
X96534510Y-116406542D01*
X96534510Y-116406542D02*
X96534510Y-116620828D01*
X96534510Y-116620828D02*
X96463082Y-116763685D01*
X96463082Y-116763685D02*
X96391653Y-116835114D01*
X96391653Y-116835114D02*
X96248796Y-116906542D01*
X96248796Y-116906542D02*
X95677367Y-116906542D01*
X97105939Y-117549400D02*
X97320225Y-117620828D01*
X97320225Y-117620828D02*
X97677367Y-117620828D01*
X97677367Y-117620828D02*
X97820225Y-117549400D01*
X97820225Y-117549400D02*
X97891653Y-117477971D01*
X97891653Y-117477971D02*
X97963082Y-117335114D01*
X97963082Y-117335114D02*
X97963082Y-117192257D01*
X97963082Y-117192257D02*
X97891653Y-117049400D01*
X97891653Y-117049400D02*
X97820225Y-116977971D01*
X97820225Y-116977971D02*
X97677367Y-116906542D01*
X97677367Y-116906542D02*
X97391653Y-116835114D01*
X97391653Y-116835114D02*
X97248796Y-116763685D01*
X97248796Y-116763685D02*
X97177367Y-116692257D01*
X97177367Y-116692257D02*
X97105939Y-116549400D01*
X97105939Y-116549400D02*
X97105939Y-116406542D01*
X97105939Y-116406542D02*
X97177367Y-116263685D01*
X97177367Y-116263685D02*
X97248796Y-116192257D01*
X97248796Y-116192257D02*
X97391653Y-116120828D01*
X97391653Y-116120828D02*
X97748796Y-116120828D01*
X97748796Y-116120828D02*
X97963082Y-116192257D01*
X99248796Y-116120828D02*
X98963081Y-116120828D01*
X98963081Y-116120828D02*
X98820224Y-116192257D01*
X98820224Y-116192257D02*
X98748796Y-116263685D01*
X98748796Y-116263685D02*
X98605938Y-116477971D01*
X98605938Y-116477971D02*
X98534510Y-116763685D01*
X98534510Y-116763685D02*
X98534510Y-117335114D01*
X98534510Y-117335114D02*
X98605938Y-117477971D01*
X98605938Y-117477971D02*
X98677367Y-117549400D01*
X98677367Y-117549400D02*
X98820224Y-117620828D01*
X98820224Y-117620828D02*
X99105938Y-117620828D01*
X99105938Y-117620828D02*
X99248796Y-117549400D01*
X99248796Y-117549400D02*
X99320224Y-117477971D01*
X99320224Y-117477971D02*
X99391653Y-117335114D01*
X99391653Y-117335114D02*
X99391653Y-116977971D01*
X99391653Y-116977971D02*
X99320224Y-116835114D01*
X99320224Y-116835114D02*
X99248796Y-116763685D01*
X99248796Y-116763685D02*
X99105938Y-116692257D01*
X99105938Y-116692257D02*
X98820224Y-116692257D01*
X98820224Y-116692257D02*
X98677367Y-116763685D01*
X98677367Y-116763685D02*
X98605938Y-116835114D01*
X98605938Y-116835114D02*
X98534510Y-116977971D01*
X100820224Y-117620828D02*
X99963081Y-117620828D01*
X100391652Y-117620828D02*
X100391652Y-116120828D01*
X100391652Y-116120828D02*
X100248795Y-116335114D01*
X100248795Y-116335114D02*
X100105938Y-116477971D01*
X100105938Y-116477971D02*
X99963081Y-116549400D01*
X101748795Y-116120828D02*
X101891652Y-116120828D01*
X101891652Y-116120828D02*
X102034509Y-116192257D01*
X102034509Y-116192257D02*
X102105938Y-116263685D01*
X102105938Y-116263685D02*
X102177366Y-116406542D01*
X102177366Y-116406542D02*
X102248795Y-116692257D01*
X102248795Y-116692257D02*
X102248795Y-117049400D01*
X102248795Y-117049400D02*
X102177366Y-117335114D01*
X102177366Y-117335114D02*
X102105938Y-117477971D01*
X102105938Y-117477971D02*
X102034509Y-117549400D01*
X102034509Y-117549400D02*
X101891652Y-117620828D01*
X101891652Y-117620828D02*
X101748795Y-117620828D01*
X101748795Y-117620828D02*
X101605938Y-117549400D01*
X101605938Y-117549400D02*
X101534509Y-117477971D01*
X101534509Y-117477971D02*
X101463080Y-117335114D01*
X101463080Y-117335114D02*
X101391652Y-117049400D01*
X101391652Y-117049400D02*
X101391652Y-116692257D01*
X101391652Y-116692257D02*
X101463080Y-116406542D01*
X101463080Y-116406542D02*
X101534509Y-116263685D01*
X101534509Y-116263685D02*
X101605938Y-116192257D01*
X101605938Y-116192257D02*
X101748795Y-116120828D01*
X102748794Y-116120828D02*
X103677366Y-116120828D01*
X103677366Y-116120828D02*
X103177366Y-116692257D01*
X103177366Y-116692257D02*
X103391651Y-116692257D01*
X103391651Y-116692257D02*
X103534509Y-116763685D01*
X103534509Y-116763685D02*
X103605937Y-116835114D01*
X103605937Y-116835114D02*
X103677366Y-116977971D01*
X103677366Y-116977971D02*
X103677366Y-117335114D01*
X103677366Y-117335114D02*
X103605937Y-117477971D01*
X103605937Y-117477971D02*
X103534509Y-117549400D01*
X103534509Y-117549400D02*
X103391651Y-117620828D01*
X103391651Y-117620828D02*
X102963080Y-117620828D01*
X102963080Y-117620828D02*
X102820223Y-117549400D01*
X102820223Y-117549400D02*
X102748794Y-117477971D01*
X104177365Y-116120828D02*
X105177365Y-117620828D01*
X105177365Y-116120828D02*
X104177365Y-117620828D01*
D10*
X100341797Y-107198566D02*
X100575131Y-107198566D01*
X100675131Y-107565233D02*
X100341797Y-107565233D01*
X100341797Y-107565233D02*
X100341797Y-106865233D01*
X100341797Y-106865233D02*
X100675131Y-106865233D01*
X100975130Y-107565233D02*
X100975130Y-106865233D01*
X100975130Y-106865233D02*
X101375130Y-107565233D01*
X101375130Y-107565233D02*
X101375130Y-106865233D01*
X100108464Y-99278566D02*
X100041797Y-99245233D01*
X100041797Y-99245233D02*
X99941797Y-99245233D01*
X99941797Y-99245233D02*
X99841797Y-99278566D01*
X99841797Y-99278566D02*
X99775131Y-99345233D01*
X99775131Y-99345233D02*
X99741797Y-99411900D01*
X99741797Y-99411900D02*
X99708464Y-99545233D01*
X99708464Y-99545233D02*
X99708464Y-99645233D01*
X99708464Y-99645233D02*
X99741797Y-99778566D01*
X99741797Y-99778566D02*
X99775131Y-99845233D01*
X99775131Y-99845233D02*
X99841797Y-99911900D01*
X99841797Y-99911900D02*
X99941797Y-99945233D01*
X99941797Y-99945233D02*
X100008464Y-99945233D01*
X100008464Y-99945233D02*
X100108464Y-99911900D01*
X100108464Y-99911900D02*
X100141797Y-99878566D01*
X100141797Y-99878566D02*
X100141797Y-99645233D01*
X100141797Y-99645233D02*
X100008464Y-99645233D01*
X100441797Y-99945233D02*
X100441797Y-99245233D01*
X100441797Y-99245233D02*
X100841797Y-99945233D01*
X100841797Y-99945233D02*
X100841797Y-99245233D01*
X101175130Y-99945233D02*
X101175130Y-99245233D01*
X101175130Y-99245233D02*
X101341797Y-99245233D01*
X101341797Y-99245233D02*
X101441797Y-99278566D01*
X101441797Y-99278566D02*
X101508464Y-99345233D01*
X101508464Y-99345233D02*
X101541797Y-99411900D01*
X101541797Y-99411900D02*
X101575130Y-99545233D01*
X101575130Y-99545233D02*
X101575130Y-99645233D01*
X101575130Y-99645233D02*
X101541797Y-99778566D01*
X101541797Y-99778566D02*
X101508464Y-99845233D01*
X101508464Y-99845233D02*
X101441797Y-99911900D01*
X101441797Y-99911900D02*
X101341797Y-99945233D01*
X101341797Y-99945233D02*
X101175130Y-99945233D01*
X100241797Y-101785233D02*
X100475131Y-102485233D01*
X100475131Y-102485233D02*
X100708464Y-101785233D01*
X100941797Y-102485233D02*
X100941797Y-101785233D01*
X101275130Y-102485233D02*
X101275130Y-101785233D01*
X101275130Y-101785233D02*
X101675130Y-102485233D01*
X101675130Y-102485233D02*
X101675130Y-101785233D01*
X99641797Y-96705233D02*
X99875131Y-97405233D01*
X99875131Y-97405233D02*
X100108464Y-96705233D01*
X100475131Y-96705233D02*
X100608464Y-96705233D01*
X100608464Y-96705233D02*
X100675131Y-96738566D01*
X100675131Y-96738566D02*
X100741797Y-96805233D01*
X100741797Y-96805233D02*
X100775131Y-96938566D01*
X100775131Y-96938566D02*
X100775131Y-97171900D01*
X100775131Y-97171900D02*
X100741797Y-97305233D01*
X100741797Y-97305233D02*
X100675131Y-97371900D01*
X100675131Y-97371900D02*
X100608464Y-97405233D01*
X100608464Y-97405233D02*
X100475131Y-97405233D01*
X100475131Y-97405233D02*
X100408464Y-97371900D01*
X100408464Y-97371900D02*
X100341797Y-97305233D01*
X100341797Y-97305233D02*
X100308464Y-97171900D01*
X100308464Y-97171900D02*
X100308464Y-96938566D01*
X100308464Y-96938566D02*
X100341797Y-96805233D01*
X100341797Y-96805233D02*
X100408464Y-96738566D01*
X100408464Y-96738566D02*
X100475131Y-96705233D01*
X101075130Y-96705233D02*
X101075130Y-97271900D01*
X101075130Y-97271900D02*
X101108464Y-97338566D01*
X101108464Y-97338566D02*
X101141797Y-97371900D01*
X101141797Y-97371900D02*
X101208464Y-97405233D01*
X101208464Y-97405233D02*
X101341797Y-97405233D01*
X101341797Y-97405233D02*
X101408464Y-97371900D01*
X101408464Y-97371900D02*
X101441797Y-97338566D01*
X101441797Y-97338566D02*
X101475130Y-97271900D01*
X101475130Y-97271900D02*
X101475130Y-96705233D01*
X101708463Y-96705233D02*
X102108463Y-96705233D01*
X101908463Y-97405233D02*
X101908463Y-96705233D01*
X135675131Y-71025233D02*
X135341797Y-71025233D01*
X135341797Y-71025233D02*
X135341797Y-70325233D01*
X136141798Y-70658566D02*
X136241798Y-70691900D01*
X136241798Y-70691900D02*
X136275131Y-70725233D01*
X136275131Y-70725233D02*
X136308464Y-70791900D01*
X136308464Y-70791900D02*
X136308464Y-70891900D01*
X136308464Y-70891900D02*
X136275131Y-70958566D01*
X136275131Y-70958566D02*
X136241798Y-70991900D01*
X136241798Y-70991900D02*
X136175131Y-71025233D01*
X136175131Y-71025233D02*
X135908464Y-71025233D01*
X135908464Y-71025233D02*
X135908464Y-70325233D01*
X135908464Y-70325233D02*
X136141798Y-70325233D01*
X136141798Y-70325233D02*
X136208464Y-70358566D01*
X136208464Y-70358566D02*
X136241798Y-70391900D01*
X136241798Y-70391900D02*
X136275131Y-70458566D01*
X136275131Y-70458566D02*
X136275131Y-70525233D01*
X136275131Y-70525233D02*
X136241798Y-70591900D01*
X136241798Y-70591900D02*
X136208464Y-70625233D01*
X136208464Y-70625233D02*
X136141798Y-70658566D01*
X136141798Y-70658566D02*
X135908464Y-70658566D01*
X136741798Y-70325233D02*
X136875131Y-70325233D01*
X136875131Y-70325233D02*
X136941798Y-70358566D01*
X136941798Y-70358566D02*
X137008464Y-70425233D01*
X137008464Y-70425233D02*
X137041798Y-70558566D01*
X137041798Y-70558566D02*
X137041798Y-70791900D01*
X137041798Y-70791900D02*
X137008464Y-70925233D01*
X137008464Y-70925233D02*
X136941798Y-70991900D01*
X136941798Y-70991900D02*
X136875131Y-71025233D01*
X136875131Y-71025233D02*
X136741798Y-71025233D01*
X136741798Y-71025233D02*
X136675131Y-70991900D01*
X136675131Y-70991900D02*
X136608464Y-70925233D01*
X136608464Y-70925233D02*
X136575131Y-70791900D01*
X136575131Y-70791900D02*
X136575131Y-70558566D01*
X136575131Y-70558566D02*
X136608464Y-70425233D01*
X136608464Y-70425233D02*
X136675131Y-70358566D01*
X136675131Y-70358566D02*
X136741798Y-70325233D01*
D11*
X129320225Y-82120828D02*
X130177368Y-82120828D01*
X129748796Y-83620828D02*
X129748796Y-82120828D01*
X130677367Y-83620828D02*
X130677367Y-82120828D01*
X130677367Y-82120828D02*
X131248796Y-82120828D01*
X131248796Y-82120828D02*
X131391653Y-82192257D01*
X131391653Y-82192257D02*
X131463082Y-82263685D01*
X131463082Y-82263685D02*
X131534510Y-82406542D01*
X131534510Y-82406542D02*
X131534510Y-82620828D01*
X131534510Y-82620828D02*
X131463082Y-82763685D01*
X131463082Y-82763685D02*
X131391653Y-82835114D01*
X131391653Y-82835114D02*
X131248796Y-82906542D01*
X131248796Y-82906542D02*
X130677367Y-82906542D01*
X132105939Y-83549400D02*
X132320225Y-83620828D01*
X132320225Y-83620828D02*
X132677367Y-83620828D01*
X132677367Y-83620828D02*
X132820225Y-83549400D01*
X132820225Y-83549400D02*
X132891653Y-83477971D01*
X132891653Y-83477971D02*
X132963082Y-83335114D01*
X132963082Y-83335114D02*
X132963082Y-83192257D01*
X132963082Y-83192257D02*
X132891653Y-83049400D01*
X132891653Y-83049400D02*
X132820225Y-82977971D01*
X132820225Y-82977971D02*
X132677367Y-82906542D01*
X132677367Y-82906542D02*
X132391653Y-82835114D01*
X132391653Y-82835114D02*
X132248796Y-82763685D01*
X132248796Y-82763685D02*
X132177367Y-82692257D01*
X132177367Y-82692257D02*
X132105939Y-82549400D01*
X132105939Y-82549400D02*
X132105939Y-82406542D01*
X132105939Y-82406542D02*
X132177367Y-82263685D01*
X132177367Y-82263685D02*
X132248796Y-82192257D01*
X132248796Y-82192257D02*
X132391653Y-82120828D01*
X132391653Y-82120828D02*
X132748796Y-82120828D01*
X132748796Y-82120828D02*
X132963082Y-82192257D01*
X134248796Y-82120828D02*
X133963081Y-82120828D01*
X133963081Y-82120828D02*
X133820224Y-82192257D01*
X133820224Y-82192257D02*
X133748796Y-82263685D01*
X133748796Y-82263685D02*
X133605938Y-82477971D01*
X133605938Y-82477971D02*
X133534510Y-82763685D01*
X133534510Y-82763685D02*
X133534510Y-83335114D01*
X133534510Y-83335114D02*
X133605938Y-83477971D01*
X133605938Y-83477971D02*
X133677367Y-83549400D01*
X133677367Y-83549400D02*
X133820224Y-83620828D01*
X133820224Y-83620828D02*
X134105938Y-83620828D01*
X134105938Y-83620828D02*
X134248796Y-83549400D01*
X134248796Y-83549400D02*
X134320224Y-83477971D01*
X134320224Y-83477971D02*
X134391653Y-83335114D01*
X134391653Y-83335114D02*
X134391653Y-82977971D01*
X134391653Y-82977971D02*
X134320224Y-82835114D01*
X134320224Y-82835114D02*
X134248796Y-82763685D01*
X134248796Y-82763685D02*
X134105938Y-82692257D01*
X134105938Y-82692257D02*
X133820224Y-82692257D01*
X133820224Y-82692257D02*
X133677367Y-82763685D01*
X133677367Y-82763685D02*
X133605938Y-82835114D01*
X133605938Y-82835114D02*
X133534510Y-82977971D01*
X135820224Y-83620828D02*
X134963081Y-83620828D01*
X135391652Y-83620828D02*
X135391652Y-82120828D01*
X135391652Y-82120828D02*
X135248795Y-82335114D01*
X135248795Y-82335114D02*
X135105938Y-82477971D01*
X135105938Y-82477971D02*
X134963081Y-82549400D01*
X136748795Y-82120828D02*
X136891652Y-82120828D01*
X136891652Y-82120828D02*
X137034509Y-82192257D01*
X137034509Y-82192257D02*
X137105938Y-82263685D01*
X137105938Y-82263685D02*
X137177366Y-82406542D01*
X137177366Y-82406542D02*
X137248795Y-82692257D01*
X137248795Y-82692257D02*
X137248795Y-83049400D01*
X137248795Y-83049400D02*
X137177366Y-83335114D01*
X137177366Y-83335114D02*
X137105938Y-83477971D01*
X137105938Y-83477971D02*
X137034509Y-83549400D01*
X137034509Y-83549400D02*
X136891652Y-83620828D01*
X136891652Y-83620828D02*
X136748795Y-83620828D01*
X136748795Y-83620828D02*
X136605938Y-83549400D01*
X136605938Y-83549400D02*
X136534509Y-83477971D01*
X136534509Y-83477971D02*
X136463080Y-83335114D01*
X136463080Y-83335114D02*
X136391652Y-83049400D01*
X136391652Y-83049400D02*
X136391652Y-82692257D01*
X136391652Y-82692257D02*
X136463080Y-82406542D01*
X136463080Y-82406542D02*
X136534509Y-82263685D01*
X136534509Y-82263685D02*
X136605938Y-82192257D01*
X136605938Y-82192257D02*
X136748795Y-82120828D01*
X137748794Y-82120828D02*
X138677366Y-82120828D01*
X138677366Y-82120828D02*
X138177366Y-82692257D01*
X138177366Y-82692257D02*
X138391651Y-82692257D01*
X138391651Y-82692257D02*
X138534509Y-82763685D01*
X138534509Y-82763685D02*
X138605937Y-82835114D01*
X138605937Y-82835114D02*
X138677366Y-82977971D01*
X138677366Y-82977971D02*
X138677366Y-83335114D01*
X138677366Y-83335114D02*
X138605937Y-83477971D01*
X138605937Y-83477971D02*
X138534509Y-83549400D01*
X138534509Y-83549400D02*
X138391651Y-83620828D01*
X138391651Y-83620828D02*
X137963080Y-83620828D01*
X137963080Y-83620828D02*
X137820223Y-83549400D01*
X137820223Y-83549400D02*
X137748794Y-83477971D01*
X139177365Y-82120828D02*
X140177365Y-83620828D01*
X140177365Y-82120828D02*
X139177365Y-83620828D01*
D10*
X135341797Y-73198566D02*
X135575131Y-73198566D01*
X135675131Y-73565233D02*
X135341797Y-73565233D01*
X135341797Y-73565233D02*
X135341797Y-72865233D01*
X135341797Y-72865233D02*
X135675131Y-72865233D01*
X135975130Y-73565233D02*
X135975130Y-72865233D01*
X135975130Y-72865233D02*
X136375130Y-73565233D01*
X136375130Y-73565233D02*
X136375130Y-72865233D01*
X135108464Y-65278566D02*
X135041797Y-65245233D01*
X135041797Y-65245233D02*
X134941797Y-65245233D01*
X134941797Y-65245233D02*
X134841797Y-65278566D01*
X134841797Y-65278566D02*
X134775131Y-65345233D01*
X134775131Y-65345233D02*
X134741797Y-65411900D01*
X134741797Y-65411900D02*
X134708464Y-65545233D01*
X134708464Y-65545233D02*
X134708464Y-65645233D01*
X134708464Y-65645233D02*
X134741797Y-65778566D01*
X134741797Y-65778566D02*
X134775131Y-65845233D01*
X134775131Y-65845233D02*
X134841797Y-65911900D01*
X134841797Y-65911900D02*
X134941797Y-65945233D01*
X134941797Y-65945233D02*
X135008464Y-65945233D01*
X135008464Y-65945233D02*
X135108464Y-65911900D01*
X135108464Y-65911900D02*
X135141797Y-65878566D01*
X135141797Y-65878566D02*
X135141797Y-65645233D01*
X135141797Y-65645233D02*
X135008464Y-65645233D01*
X135441797Y-65945233D02*
X135441797Y-65245233D01*
X135441797Y-65245233D02*
X135841797Y-65945233D01*
X135841797Y-65945233D02*
X135841797Y-65245233D01*
X136175130Y-65945233D02*
X136175130Y-65245233D01*
X136175130Y-65245233D02*
X136341797Y-65245233D01*
X136341797Y-65245233D02*
X136441797Y-65278566D01*
X136441797Y-65278566D02*
X136508464Y-65345233D01*
X136508464Y-65345233D02*
X136541797Y-65411900D01*
X136541797Y-65411900D02*
X136575130Y-65545233D01*
X136575130Y-65545233D02*
X136575130Y-65645233D01*
X136575130Y-65645233D02*
X136541797Y-65778566D01*
X136541797Y-65778566D02*
X136508464Y-65845233D01*
X136508464Y-65845233D02*
X136441797Y-65911900D01*
X136441797Y-65911900D02*
X136341797Y-65945233D01*
X136341797Y-65945233D02*
X136175130Y-65945233D01*
X135241797Y-67785233D02*
X135475131Y-68485233D01*
X135475131Y-68485233D02*
X135708464Y-67785233D01*
X135941797Y-68485233D02*
X135941797Y-67785233D01*
X136275130Y-68485233D02*
X136275130Y-67785233D01*
X136275130Y-67785233D02*
X136675130Y-68485233D01*
X136675130Y-68485233D02*
X136675130Y-67785233D01*
X134641797Y-62705233D02*
X134875131Y-63405233D01*
X134875131Y-63405233D02*
X135108464Y-62705233D01*
X135475131Y-62705233D02*
X135608464Y-62705233D01*
X135608464Y-62705233D02*
X135675131Y-62738566D01*
X135675131Y-62738566D02*
X135741797Y-62805233D01*
X135741797Y-62805233D02*
X135775131Y-62938566D01*
X135775131Y-62938566D02*
X135775131Y-63171900D01*
X135775131Y-63171900D02*
X135741797Y-63305233D01*
X135741797Y-63305233D02*
X135675131Y-63371900D01*
X135675131Y-63371900D02*
X135608464Y-63405233D01*
X135608464Y-63405233D02*
X135475131Y-63405233D01*
X135475131Y-63405233D02*
X135408464Y-63371900D01*
X135408464Y-63371900D02*
X135341797Y-63305233D01*
X135341797Y-63305233D02*
X135308464Y-63171900D01*
X135308464Y-63171900D02*
X135308464Y-62938566D01*
X135308464Y-62938566D02*
X135341797Y-62805233D01*
X135341797Y-62805233D02*
X135408464Y-62738566D01*
X135408464Y-62738566D02*
X135475131Y-62705233D01*
X136075130Y-62705233D02*
X136075130Y-63271900D01*
X136075130Y-63271900D02*
X136108464Y-63338566D01*
X136108464Y-63338566D02*
X136141797Y-63371900D01*
X136141797Y-63371900D02*
X136208464Y-63405233D01*
X136208464Y-63405233D02*
X136341797Y-63405233D01*
X136341797Y-63405233D02*
X136408464Y-63371900D01*
X136408464Y-63371900D02*
X136441797Y-63338566D01*
X136441797Y-63338566D02*
X136475130Y-63271900D01*
X136475130Y-63271900D02*
X136475130Y-62705233D01*
X136708463Y-62705233D02*
X137108463Y-62705233D01*
X136908463Y-63405233D02*
X136908463Y-62705233D01*
X100341797Y-73198566D02*
X100575131Y-73198566D01*
X100675131Y-73565233D02*
X100341797Y-73565233D01*
X100341797Y-73565233D02*
X100341797Y-72865233D01*
X100341797Y-72865233D02*
X100675131Y-72865233D01*
X100975130Y-73565233D02*
X100975130Y-72865233D01*
X100975130Y-72865233D02*
X101375130Y-73565233D01*
X101375130Y-73565233D02*
X101375130Y-72865233D01*
D11*
X94320225Y-82120828D02*
X95177368Y-82120828D01*
X94748796Y-83620828D02*
X94748796Y-82120828D01*
X95677367Y-83620828D02*
X95677367Y-82120828D01*
X95677367Y-82120828D02*
X96248796Y-82120828D01*
X96248796Y-82120828D02*
X96391653Y-82192257D01*
X96391653Y-82192257D02*
X96463082Y-82263685D01*
X96463082Y-82263685D02*
X96534510Y-82406542D01*
X96534510Y-82406542D02*
X96534510Y-82620828D01*
X96534510Y-82620828D02*
X96463082Y-82763685D01*
X96463082Y-82763685D02*
X96391653Y-82835114D01*
X96391653Y-82835114D02*
X96248796Y-82906542D01*
X96248796Y-82906542D02*
X95677367Y-82906542D01*
X97105939Y-83549400D02*
X97320225Y-83620828D01*
X97320225Y-83620828D02*
X97677367Y-83620828D01*
X97677367Y-83620828D02*
X97820225Y-83549400D01*
X97820225Y-83549400D02*
X97891653Y-83477971D01*
X97891653Y-83477971D02*
X97963082Y-83335114D01*
X97963082Y-83335114D02*
X97963082Y-83192257D01*
X97963082Y-83192257D02*
X97891653Y-83049400D01*
X97891653Y-83049400D02*
X97820225Y-82977971D01*
X97820225Y-82977971D02*
X97677367Y-82906542D01*
X97677367Y-82906542D02*
X97391653Y-82835114D01*
X97391653Y-82835114D02*
X97248796Y-82763685D01*
X97248796Y-82763685D02*
X97177367Y-82692257D01*
X97177367Y-82692257D02*
X97105939Y-82549400D01*
X97105939Y-82549400D02*
X97105939Y-82406542D01*
X97105939Y-82406542D02*
X97177367Y-82263685D01*
X97177367Y-82263685D02*
X97248796Y-82192257D01*
X97248796Y-82192257D02*
X97391653Y-82120828D01*
X97391653Y-82120828D02*
X97748796Y-82120828D01*
X97748796Y-82120828D02*
X97963082Y-82192257D01*
X99248796Y-82120828D02*
X98963081Y-82120828D01*
X98963081Y-82120828D02*
X98820224Y-82192257D01*
X98820224Y-82192257D02*
X98748796Y-82263685D01*
X98748796Y-82263685D02*
X98605938Y-82477971D01*
X98605938Y-82477971D02*
X98534510Y-82763685D01*
X98534510Y-82763685D02*
X98534510Y-83335114D01*
X98534510Y-83335114D02*
X98605938Y-83477971D01*
X98605938Y-83477971D02*
X98677367Y-83549400D01*
X98677367Y-83549400D02*
X98820224Y-83620828D01*
X98820224Y-83620828D02*
X99105938Y-83620828D01*
X99105938Y-83620828D02*
X99248796Y-83549400D01*
X99248796Y-83549400D02*
X99320224Y-83477971D01*
X99320224Y-83477971D02*
X99391653Y-83335114D01*
X99391653Y-83335114D02*
X99391653Y-82977971D01*
X99391653Y-82977971D02*
X99320224Y-82835114D01*
X99320224Y-82835114D02*
X99248796Y-82763685D01*
X99248796Y-82763685D02*
X99105938Y-82692257D01*
X99105938Y-82692257D02*
X98820224Y-82692257D01*
X98820224Y-82692257D02*
X98677367Y-82763685D01*
X98677367Y-82763685D02*
X98605938Y-82835114D01*
X98605938Y-82835114D02*
X98534510Y-82977971D01*
X100820224Y-83620828D02*
X99963081Y-83620828D01*
X100391652Y-83620828D02*
X100391652Y-82120828D01*
X100391652Y-82120828D02*
X100248795Y-82335114D01*
X100248795Y-82335114D02*
X100105938Y-82477971D01*
X100105938Y-82477971D02*
X99963081Y-82549400D01*
X101748795Y-82120828D02*
X101891652Y-82120828D01*
X101891652Y-82120828D02*
X102034509Y-82192257D01*
X102034509Y-82192257D02*
X102105938Y-82263685D01*
X102105938Y-82263685D02*
X102177366Y-82406542D01*
X102177366Y-82406542D02*
X102248795Y-82692257D01*
X102248795Y-82692257D02*
X102248795Y-83049400D01*
X102248795Y-83049400D02*
X102177366Y-83335114D01*
X102177366Y-83335114D02*
X102105938Y-83477971D01*
X102105938Y-83477971D02*
X102034509Y-83549400D01*
X102034509Y-83549400D02*
X101891652Y-83620828D01*
X101891652Y-83620828D02*
X101748795Y-83620828D01*
X101748795Y-83620828D02*
X101605938Y-83549400D01*
X101605938Y-83549400D02*
X101534509Y-83477971D01*
X101534509Y-83477971D02*
X101463080Y-83335114D01*
X101463080Y-83335114D02*
X101391652Y-83049400D01*
X101391652Y-83049400D02*
X101391652Y-82692257D01*
X101391652Y-82692257D02*
X101463080Y-82406542D01*
X101463080Y-82406542D02*
X101534509Y-82263685D01*
X101534509Y-82263685D02*
X101605938Y-82192257D01*
X101605938Y-82192257D02*
X101748795Y-82120828D01*
X102748794Y-82120828D02*
X103677366Y-82120828D01*
X103677366Y-82120828D02*
X103177366Y-82692257D01*
X103177366Y-82692257D02*
X103391651Y-82692257D01*
X103391651Y-82692257D02*
X103534509Y-82763685D01*
X103534509Y-82763685D02*
X103605937Y-82835114D01*
X103605937Y-82835114D02*
X103677366Y-82977971D01*
X103677366Y-82977971D02*
X103677366Y-83335114D01*
X103677366Y-83335114D02*
X103605937Y-83477971D01*
X103605937Y-83477971D02*
X103534509Y-83549400D01*
X103534509Y-83549400D02*
X103391651Y-83620828D01*
X103391651Y-83620828D02*
X102963080Y-83620828D01*
X102963080Y-83620828D02*
X102820223Y-83549400D01*
X102820223Y-83549400D02*
X102748794Y-83477971D01*
X104177365Y-82120828D02*
X105177365Y-83620828D01*
X105177365Y-82120828D02*
X104177365Y-83620828D01*
D10*
X100675131Y-71025233D02*
X100341797Y-71025233D01*
X100341797Y-71025233D02*
X100341797Y-70325233D01*
X101141798Y-70658566D02*
X101241798Y-70691900D01*
X101241798Y-70691900D02*
X101275131Y-70725233D01*
X101275131Y-70725233D02*
X101308464Y-70791900D01*
X101308464Y-70791900D02*
X101308464Y-70891900D01*
X101308464Y-70891900D02*
X101275131Y-70958566D01*
X101275131Y-70958566D02*
X101241798Y-70991900D01*
X101241798Y-70991900D02*
X101175131Y-71025233D01*
X101175131Y-71025233D02*
X100908464Y-71025233D01*
X100908464Y-71025233D02*
X100908464Y-70325233D01*
X100908464Y-70325233D02*
X101141798Y-70325233D01*
X101141798Y-70325233D02*
X101208464Y-70358566D01*
X101208464Y-70358566D02*
X101241798Y-70391900D01*
X101241798Y-70391900D02*
X101275131Y-70458566D01*
X101275131Y-70458566D02*
X101275131Y-70525233D01*
X101275131Y-70525233D02*
X101241798Y-70591900D01*
X101241798Y-70591900D02*
X101208464Y-70625233D01*
X101208464Y-70625233D02*
X101141798Y-70658566D01*
X101141798Y-70658566D02*
X100908464Y-70658566D01*
X101741798Y-70325233D02*
X101875131Y-70325233D01*
X101875131Y-70325233D02*
X101941798Y-70358566D01*
X101941798Y-70358566D02*
X102008464Y-70425233D01*
X102008464Y-70425233D02*
X102041798Y-70558566D01*
X102041798Y-70558566D02*
X102041798Y-70791900D01*
X102041798Y-70791900D02*
X102008464Y-70925233D01*
X102008464Y-70925233D02*
X101941798Y-70991900D01*
X101941798Y-70991900D02*
X101875131Y-71025233D01*
X101875131Y-71025233D02*
X101741798Y-71025233D01*
X101741798Y-71025233D02*
X101675131Y-70991900D01*
X101675131Y-70991900D02*
X101608464Y-70925233D01*
X101608464Y-70925233D02*
X101575131Y-70791900D01*
X101575131Y-70791900D02*
X101575131Y-70558566D01*
X101575131Y-70558566D02*
X101608464Y-70425233D01*
X101608464Y-70425233D02*
X101675131Y-70358566D01*
X101675131Y-70358566D02*
X101741798Y-70325233D01*
X99641797Y-62705233D02*
X99875131Y-63405233D01*
X99875131Y-63405233D02*
X100108464Y-62705233D01*
X100475131Y-62705233D02*
X100608464Y-62705233D01*
X100608464Y-62705233D02*
X100675131Y-62738566D01*
X100675131Y-62738566D02*
X100741797Y-62805233D01*
X100741797Y-62805233D02*
X100775131Y-62938566D01*
X100775131Y-62938566D02*
X100775131Y-63171900D01*
X100775131Y-63171900D02*
X100741797Y-63305233D01*
X100741797Y-63305233D02*
X100675131Y-63371900D01*
X100675131Y-63371900D02*
X100608464Y-63405233D01*
X100608464Y-63405233D02*
X100475131Y-63405233D01*
X100475131Y-63405233D02*
X100408464Y-63371900D01*
X100408464Y-63371900D02*
X100341797Y-63305233D01*
X100341797Y-63305233D02*
X100308464Y-63171900D01*
X100308464Y-63171900D02*
X100308464Y-62938566D01*
X100308464Y-62938566D02*
X100341797Y-62805233D01*
X100341797Y-62805233D02*
X100408464Y-62738566D01*
X100408464Y-62738566D02*
X100475131Y-62705233D01*
X101075130Y-62705233D02*
X101075130Y-63271900D01*
X101075130Y-63271900D02*
X101108464Y-63338566D01*
X101108464Y-63338566D02*
X101141797Y-63371900D01*
X101141797Y-63371900D02*
X101208464Y-63405233D01*
X101208464Y-63405233D02*
X101341797Y-63405233D01*
X101341797Y-63405233D02*
X101408464Y-63371900D01*
X101408464Y-63371900D02*
X101441797Y-63338566D01*
X101441797Y-63338566D02*
X101475130Y-63271900D01*
X101475130Y-63271900D02*
X101475130Y-62705233D01*
X101708463Y-62705233D02*
X102108463Y-62705233D01*
X101908463Y-63405233D02*
X101908463Y-62705233D01*
X100241797Y-67785233D02*
X100475131Y-68485233D01*
X100475131Y-68485233D02*
X100708464Y-67785233D01*
X100941797Y-68485233D02*
X100941797Y-67785233D01*
X101275130Y-68485233D02*
X101275130Y-67785233D01*
X101275130Y-67785233D02*
X101675130Y-68485233D01*
X101675130Y-68485233D02*
X101675130Y-67785233D01*
X100108464Y-65278566D02*
X100041797Y-65245233D01*
X100041797Y-65245233D02*
X99941797Y-65245233D01*
X99941797Y-65245233D02*
X99841797Y-65278566D01*
X99841797Y-65278566D02*
X99775131Y-65345233D01*
X99775131Y-65345233D02*
X99741797Y-65411900D01*
X99741797Y-65411900D02*
X99708464Y-65545233D01*
X99708464Y-65545233D02*
X99708464Y-65645233D01*
X99708464Y-65645233D02*
X99741797Y-65778566D01*
X99741797Y-65778566D02*
X99775131Y-65845233D01*
X99775131Y-65845233D02*
X99841797Y-65911900D01*
X99841797Y-65911900D02*
X99941797Y-65945233D01*
X99941797Y-65945233D02*
X100008464Y-65945233D01*
X100008464Y-65945233D02*
X100108464Y-65911900D01*
X100108464Y-65911900D02*
X100141797Y-65878566D01*
X100141797Y-65878566D02*
X100141797Y-65645233D01*
X100141797Y-65645233D02*
X100008464Y-65645233D01*
X100441797Y-65945233D02*
X100441797Y-65245233D01*
X100441797Y-65245233D02*
X100841797Y-65945233D01*
X100841797Y-65945233D02*
X100841797Y-65245233D01*
X101175130Y-65945233D02*
X101175130Y-65245233D01*
X101175130Y-65245233D02*
X101341797Y-65245233D01*
X101341797Y-65245233D02*
X101441797Y-65278566D01*
X101441797Y-65278566D02*
X101508464Y-65345233D01*
X101508464Y-65345233D02*
X101541797Y-65411900D01*
X101541797Y-65411900D02*
X101575130Y-65545233D01*
X101575130Y-65545233D02*
X101575130Y-65645233D01*
X101575130Y-65645233D02*
X101541797Y-65778566D01*
X101541797Y-65778566D02*
X101508464Y-65845233D01*
X101508464Y-65845233D02*
X101441797Y-65911900D01*
X101441797Y-65911900D02*
X101341797Y-65945233D01*
X101341797Y-65945233D02*
X101175130Y-65945233D01*
D12*
X132353333Y-111544819D02*
X132020000Y-111068628D01*
X131781905Y-111544819D02*
X131781905Y-110544819D01*
X131781905Y-110544819D02*
X132162857Y-110544819D01*
X132162857Y-110544819D02*
X132258095Y-110592438D01*
X132258095Y-110592438D02*
X132305714Y-110640057D01*
X132305714Y-110640057D02*
X132353333Y-110735295D01*
X132353333Y-110735295D02*
X132353333Y-110878152D01*
X132353333Y-110878152D02*
X132305714Y-110973390D01*
X132305714Y-110973390D02*
X132258095Y-111021009D01*
X132258095Y-111021009D02*
X132162857Y-111068628D01*
X132162857Y-111068628D02*
X131781905Y-111068628D01*
X133210476Y-110878152D02*
X133210476Y-111544819D01*
X132972381Y-110497200D02*
X132734286Y-111211485D01*
X132734286Y-111211485D02*
X133353333Y-111211485D01*
X132353333Y-109764819D02*
X132020000Y-109288628D01*
X131781905Y-109764819D02*
X131781905Y-108764819D01*
X131781905Y-108764819D02*
X132162857Y-108764819D01*
X132162857Y-108764819D02*
X132258095Y-108812438D01*
X132258095Y-108812438D02*
X132305714Y-108860057D01*
X132305714Y-108860057D02*
X132353333Y-108955295D01*
X132353333Y-108955295D02*
X132353333Y-109098152D01*
X132353333Y-109098152D02*
X132305714Y-109193390D01*
X132305714Y-109193390D02*
X132258095Y-109241009D01*
X132258095Y-109241009D02*
X132162857Y-109288628D01*
X132162857Y-109288628D02*
X131781905Y-109288628D01*
X132686667Y-108764819D02*
X133305714Y-108764819D01*
X133305714Y-108764819D02*
X132972381Y-109145771D01*
X132972381Y-109145771D02*
X133115238Y-109145771D01*
X133115238Y-109145771D02*
X133210476Y-109193390D01*
X133210476Y-109193390D02*
X133258095Y-109241009D01*
X133258095Y-109241009D02*
X133305714Y-109336247D01*
X133305714Y-109336247D02*
X133305714Y-109574342D01*
X133305714Y-109574342D02*
X133258095Y-109669580D01*
X133258095Y-109669580D02*
X133210476Y-109717200D01*
X133210476Y-109717200D02*
X133115238Y-109764819D01*
X133115238Y-109764819D02*
X132829524Y-109764819D01*
X132829524Y-109764819D02*
X132734286Y-109717200D01*
X132734286Y-109717200D02*
X132686667Y-109669580D01*
X138806666Y-94624819D02*
X138806666Y-95339104D01*
X138806666Y-95339104D02*
X138759047Y-95481961D01*
X138759047Y-95481961D02*
X138663809Y-95577200D01*
X138663809Y-95577200D02*
X138520952Y-95624819D01*
X138520952Y-95624819D02*
X138425714Y-95624819D01*
X139806666Y-95624819D02*
X139235238Y-95624819D01*
X139520952Y-95624819D02*
X139520952Y-94624819D01*
X139520952Y-94624819D02*
X139425714Y-94767676D01*
X139425714Y-94767676D02*
X139330476Y-94862914D01*
X139330476Y-94862914D02*
X139235238Y-94910533D01*
X121193333Y-87699580D02*
X121145714Y-87747200D01*
X121145714Y-87747200D02*
X121002857Y-87794819D01*
X121002857Y-87794819D02*
X120907619Y-87794819D01*
X120907619Y-87794819D02*
X120764762Y-87747200D01*
X120764762Y-87747200D02*
X120669524Y-87651961D01*
X120669524Y-87651961D02*
X120621905Y-87556723D01*
X120621905Y-87556723D02*
X120574286Y-87366247D01*
X120574286Y-87366247D02*
X120574286Y-87223390D01*
X120574286Y-87223390D02*
X120621905Y-87032914D01*
X120621905Y-87032914D02*
X120669524Y-86937676D01*
X120669524Y-86937676D02*
X120764762Y-86842438D01*
X120764762Y-86842438D02*
X120907619Y-86794819D01*
X120907619Y-86794819D02*
X121002857Y-86794819D01*
X121002857Y-86794819D02*
X121145714Y-86842438D01*
X121145714Y-86842438D02*
X121193333Y-86890057D01*
X121526667Y-86794819D02*
X122145714Y-86794819D01*
X122145714Y-86794819D02*
X121812381Y-87175771D01*
X121812381Y-87175771D02*
X121955238Y-87175771D01*
X121955238Y-87175771D02*
X122050476Y-87223390D01*
X122050476Y-87223390D02*
X122098095Y-87271009D01*
X122098095Y-87271009D02*
X122145714Y-87366247D01*
X122145714Y-87366247D02*
X122145714Y-87604342D01*
X122145714Y-87604342D02*
X122098095Y-87699580D01*
X122098095Y-87699580D02*
X122050476Y-87747200D01*
X122050476Y-87747200D02*
X121955238Y-87794819D01*
X121955238Y-87794819D02*
X121669524Y-87794819D01*
X121669524Y-87794819D02*
X121574286Y-87747200D01*
X121574286Y-87747200D02*
X121526667Y-87699580D01*
X132353333Y-101384819D02*
X132020000Y-100908628D01*
X131781905Y-101384819D02*
X131781905Y-100384819D01*
X131781905Y-100384819D02*
X132162857Y-100384819D01*
X132162857Y-100384819D02*
X132258095Y-100432438D01*
X132258095Y-100432438D02*
X132305714Y-100480057D01*
X132305714Y-100480057D02*
X132353333Y-100575295D01*
X132353333Y-100575295D02*
X132353333Y-100718152D01*
X132353333Y-100718152D02*
X132305714Y-100813390D01*
X132305714Y-100813390D02*
X132258095Y-100861009D01*
X132258095Y-100861009D02*
X132162857Y-100908628D01*
X132162857Y-100908628D02*
X131781905Y-100908628D01*
X133258095Y-100384819D02*
X132781905Y-100384819D01*
X132781905Y-100384819D02*
X132734286Y-100861009D01*
X132734286Y-100861009D02*
X132781905Y-100813390D01*
X132781905Y-100813390D02*
X132877143Y-100765771D01*
X132877143Y-100765771D02*
X133115238Y-100765771D01*
X133115238Y-100765771D02*
X133210476Y-100813390D01*
X133210476Y-100813390D02*
X133258095Y-100861009D01*
X133258095Y-100861009D02*
X133305714Y-100956247D01*
X133305714Y-100956247D02*
X133305714Y-101194342D01*
X133305714Y-101194342D02*
X133258095Y-101289580D01*
X133258095Y-101289580D02*
X133210476Y-101337200D01*
X133210476Y-101337200D02*
X133115238Y-101384819D01*
X133115238Y-101384819D02*
X132877143Y-101384819D01*
X132877143Y-101384819D02*
X132781905Y-101337200D01*
X132781905Y-101337200D02*
X132734286Y-101289580D01*
X121193333Y-118179580D02*
X121145714Y-118227200D01*
X121145714Y-118227200D02*
X121002857Y-118274819D01*
X121002857Y-118274819D02*
X120907619Y-118274819D01*
X120907619Y-118274819D02*
X120764762Y-118227200D01*
X120764762Y-118227200D02*
X120669524Y-118131961D01*
X120669524Y-118131961D02*
X120621905Y-118036723D01*
X120621905Y-118036723D02*
X120574286Y-117846247D01*
X120574286Y-117846247D02*
X120574286Y-117703390D01*
X120574286Y-117703390D02*
X120621905Y-117512914D01*
X120621905Y-117512914D02*
X120669524Y-117417676D01*
X120669524Y-117417676D02*
X120764762Y-117322438D01*
X120764762Y-117322438D02*
X120907619Y-117274819D01*
X120907619Y-117274819D02*
X121002857Y-117274819D01*
X121002857Y-117274819D02*
X121145714Y-117322438D01*
X121145714Y-117322438D02*
X121193333Y-117370057D01*
X122050476Y-117608152D02*
X122050476Y-118274819D01*
X121812381Y-117227200D02*
X121574286Y-117941485D01*
X121574286Y-117941485D02*
X122193333Y-117941485D01*
X124298095Y-98644819D02*
X124298095Y-99454342D01*
X124298095Y-99454342D02*
X124345714Y-99549580D01*
X124345714Y-99549580D02*
X124393333Y-99597200D01*
X124393333Y-99597200D02*
X124488571Y-99644819D01*
X124488571Y-99644819D02*
X124679047Y-99644819D01*
X124679047Y-99644819D02*
X124774285Y-99597200D01*
X124774285Y-99597200D02*
X124821904Y-99549580D01*
X124821904Y-99549580D02*
X124869523Y-99454342D01*
X124869523Y-99454342D02*
X124869523Y-98644819D01*
X125869523Y-99644819D02*
X125298095Y-99644819D01*
X125583809Y-99644819D02*
X125583809Y-98644819D01*
X125583809Y-98644819D02*
X125488571Y-98787676D01*
X125488571Y-98787676D02*
X125393333Y-98882914D01*
X125393333Y-98882914D02*
X125298095Y-98930533D01*
X121193333Y-110814819D02*
X120717143Y-110814819D01*
X120717143Y-110814819D02*
X120717143Y-109814819D01*
X122050476Y-110814819D02*
X121479048Y-110814819D01*
X121764762Y-110814819D02*
X121764762Y-109814819D01*
X121764762Y-109814819D02*
X121669524Y-109957676D01*
X121669524Y-109957676D02*
X121574286Y-110052914D01*
X121574286Y-110052914D02*
X121479048Y-110100533D01*
X124770833Y-108879580D02*
X124723214Y-108927200D01*
X124723214Y-108927200D02*
X124580357Y-108974819D01*
X124580357Y-108974819D02*
X124485119Y-108974819D01*
X124485119Y-108974819D02*
X124342262Y-108927200D01*
X124342262Y-108927200D02*
X124247024Y-108831961D01*
X124247024Y-108831961D02*
X124199405Y-108736723D01*
X124199405Y-108736723D02*
X124151786Y-108546247D01*
X124151786Y-108546247D02*
X124151786Y-108403390D01*
X124151786Y-108403390D02*
X124199405Y-108212914D01*
X124199405Y-108212914D02*
X124247024Y-108117676D01*
X124247024Y-108117676D02*
X124342262Y-108022438D01*
X124342262Y-108022438D02*
X124485119Y-107974819D01*
X124485119Y-107974819D02*
X124580357Y-107974819D01*
X124580357Y-107974819D02*
X124723214Y-108022438D01*
X124723214Y-108022438D02*
X124770833Y-108070057D01*
X125723214Y-108974819D02*
X125151786Y-108974819D01*
X125437500Y-108974819D02*
X125437500Y-107974819D01*
X125437500Y-107974819D02*
X125342262Y-108117676D01*
X125342262Y-108117676D02*
X125247024Y-108212914D01*
X125247024Y-108212914D02*
X125151786Y-108260533D01*
X132353333Y-94524819D02*
X132020000Y-94048628D01*
X131781905Y-94524819D02*
X131781905Y-93524819D01*
X131781905Y-93524819D02*
X132162857Y-93524819D01*
X132162857Y-93524819D02*
X132258095Y-93572438D01*
X132258095Y-93572438D02*
X132305714Y-93620057D01*
X132305714Y-93620057D02*
X132353333Y-93715295D01*
X132353333Y-93715295D02*
X132353333Y-93858152D01*
X132353333Y-93858152D02*
X132305714Y-93953390D01*
X132305714Y-93953390D02*
X132258095Y-94001009D01*
X132258095Y-94001009D02*
X132162857Y-94048628D01*
X132162857Y-94048628D02*
X131781905Y-94048628D01*
X133305714Y-94524819D02*
X132734286Y-94524819D01*
X133020000Y-94524819D02*
X133020000Y-93524819D01*
X133020000Y-93524819D02*
X132924762Y-93667676D01*
X132924762Y-93667676D02*
X132829524Y-93762914D01*
X132829524Y-93762914D02*
X132734286Y-93810533D01*
X132353333Y-96304819D02*
X132020000Y-95828628D01*
X131781905Y-96304819D02*
X131781905Y-95304819D01*
X131781905Y-95304819D02*
X132162857Y-95304819D01*
X132162857Y-95304819D02*
X132258095Y-95352438D01*
X132258095Y-95352438D02*
X132305714Y-95400057D01*
X132305714Y-95400057D02*
X132353333Y-95495295D01*
X132353333Y-95495295D02*
X132353333Y-95638152D01*
X132353333Y-95638152D02*
X132305714Y-95733390D01*
X132305714Y-95733390D02*
X132258095Y-95781009D01*
X132258095Y-95781009D02*
X132162857Y-95828628D01*
X132162857Y-95828628D02*
X131781905Y-95828628D01*
X132734286Y-95400057D02*
X132781905Y-95352438D01*
X132781905Y-95352438D02*
X132877143Y-95304819D01*
X132877143Y-95304819D02*
X133115238Y-95304819D01*
X133115238Y-95304819D02*
X133210476Y-95352438D01*
X133210476Y-95352438D02*
X133258095Y-95400057D01*
X133258095Y-95400057D02*
X133305714Y-95495295D01*
X133305714Y-95495295D02*
X133305714Y-95590533D01*
X133305714Y-95590533D02*
X133258095Y-95733390D01*
X133258095Y-95733390D02*
X132686667Y-96304819D01*
X132686667Y-96304819D02*
X133305714Y-96304819D01*
X124770833Y-96179580D02*
X124723214Y-96227200D01*
X124723214Y-96227200D02*
X124580357Y-96274819D01*
X124580357Y-96274819D02*
X124485119Y-96274819D01*
X124485119Y-96274819D02*
X124342262Y-96227200D01*
X124342262Y-96227200D02*
X124247024Y-96131961D01*
X124247024Y-96131961D02*
X124199405Y-96036723D01*
X124199405Y-96036723D02*
X124151786Y-95846247D01*
X124151786Y-95846247D02*
X124151786Y-95703390D01*
X124151786Y-95703390D02*
X124199405Y-95512914D01*
X124199405Y-95512914D02*
X124247024Y-95417676D01*
X124247024Y-95417676D02*
X124342262Y-95322438D01*
X124342262Y-95322438D02*
X124485119Y-95274819D01*
X124485119Y-95274819D02*
X124580357Y-95274819D01*
X124580357Y-95274819D02*
X124723214Y-95322438D01*
X124723214Y-95322438D02*
X124770833Y-95370057D01*
X125151786Y-95370057D02*
X125199405Y-95322438D01*
X125199405Y-95322438D02*
X125294643Y-95274819D01*
X125294643Y-95274819D02*
X125532738Y-95274819D01*
X125532738Y-95274819D02*
X125627976Y-95322438D01*
X125627976Y-95322438D02*
X125675595Y-95370057D01*
X125675595Y-95370057D02*
X125723214Y-95465295D01*
X125723214Y-95465295D02*
X125723214Y-95560533D01*
X125723214Y-95560533D02*
X125675595Y-95703390D01*
X125675595Y-95703390D02*
X125104167Y-96274819D01*
X125104167Y-96274819D02*
X125723214Y-96274819D01*
X97353333Y-111544819D02*
X97020000Y-111068628D01*
X96781905Y-111544819D02*
X96781905Y-110544819D01*
X96781905Y-110544819D02*
X97162857Y-110544819D01*
X97162857Y-110544819D02*
X97258095Y-110592438D01*
X97258095Y-110592438D02*
X97305714Y-110640057D01*
X97305714Y-110640057D02*
X97353333Y-110735295D01*
X97353333Y-110735295D02*
X97353333Y-110878152D01*
X97353333Y-110878152D02*
X97305714Y-110973390D01*
X97305714Y-110973390D02*
X97258095Y-111021009D01*
X97258095Y-111021009D02*
X97162857Y-111068628D01*
X97162857Y-111068628D02*
X96781905Y-111068628D01*
X98210476Y-110878152D02*
X98210476Y-111544819D01*
X97972381Y-110497200D02*
X97734286Y-111211485D01*
X97734286Y-111211485D02*
X98353333Y-111211485D01*
X97353333Y-109764819D02*
X97020000Y-109288628D01*
X96781905Y-109764819D02*
X96781905Y-108764819D01*
X96781905Y-108764819D02*
X97162857Y-108764819D01*
X97162857Y-108764819D02*
X97258095Y-108812438D01*
X97258095Y-108812438D02*
X97305714Y-108860057D01*
X97305714Y-108860057D02*
X97353333Y-108955295D01*
X97353333Y-108955295D02*
X97353333Y-109098152D01*
X97353333Y-109098152D02*
X97305714Y-109193390D01*
X97305714Y-109193390D02*
X97258095Y-109241009D01*
X97258095Y-109241009D02*
X97162857Y-109288628D01*
X97162857Y-109288628D02*
X96781905Y-109288628D01*
X97686667Y-108764819D02*
X98305714Y-108764819D01*
X98305714Y-108764819D02*
X97972381Y-109145771D01*
X97972381Y-109145771D02*
X98115238Y-109145771D01*
X98115238Y-109145771D02*
X98210476Y-109193390D01*
X98210476Y-109193390D02*
X98258095Y-109241009D01*
X98258095Y-109241009D02*
X98305714Y-109336247D01*
X98305714Y-109336247D02*
X98305714Y-109574342D01*
X98305714Y-109574342D02*
X98258095Y-109669580D01*
X98258095Y-109669580D02*
X98210476Y-109717200D01*
X98210476Y-109717200D02*
X98115238Y-109764819D01*
X98115238Y-109764819D02*
X97829524Y-109764819D01*
X97829524Y-109764819D02*
X97734286Y-109717200D01*
X97734286Y-109717200D02*
X97686667Y-109669580D01*
X103806666Y-94624819D02*
X103806666Y-95339104D01*
X103806666Y-95339104D02*
X103759047Y-95481961D01*
X103759047Y-95481961D02*
X103663809Y-95577200D01*
X103663809Y-95577200D02*
X103520952Y-95624819D01*
X103520952Y-95624819D02*
X103425714Y-95624819D01*
X104806666Y-95624819D02*
X104235238Y-95624819D01*
X104520952Y-95624819D02*
X104520952Y-94624819D01*
X104520952Y-94624819D02*
X104425714Y-94767676D01*
X104425714Y-94767676D02*
X104330476Y-94862914D01*
X104330476Y-94862914D02*
X104235238Y-94910533D01*
X86193333Y-87699580D02*
X86145714Y-87747200D01*
X86145714Y-87747200D02*
X86002857Y-87794819D01*
X86002857Y-87794819D02*
X85907619Y-87794819D01*
X85907619Y-87794819D02*
X85764762Y-87747200D01*
X85764762Y-87747200D02*
X85669524Y-87651961D01*
X85669524Y-87651961D02*
X85621905Y-87556723D01*
X85621905Y-87556723D02*
X85574286Y-87366247D01*
X85574286Y-87366247D02*
X85574286Y-87223390D01*
X85574286Y-87223390D02*
X85621905Y-87032914D01*
X85621905Y-87032914D02*
X85669524Y-86937676D01*
X85669524Y-86937676D02*
X85764762Y-86842438D01*
X85764762Y-86842438D02*
X85907619Y-86794819D01*
X85907619Y-86794819D02*
X86002857Y-86794819D01*
X86002857Y-86794819D02*
X86145714Y-86842438D01*
X86145714Y-86842438D02*
X86193333Y-86890057D01*
X86526667Y-86794819D02*
X87145714Y-86794819D01*
X87145714Y-86794819D02*
X86812381Y-87175771D01*
X86812381Y-87175771D02*
X86955238Y-87175771D01*
X86955238Y-87175771D02*
X87050476Y-87223390D01*
X87050476Y-87223390D02*
X87098095Y-87271009D01*
X87098095Y-87271009D02*
X87145714Y-87366247D01*
X87145714Y-87366247D02*
X87145714Y-87604342D01*
X87145714Y-87604342D02*
X87098095Y-87699580D01*
X87098095Y-87699580D02*
X87050476Y-87747200D01*
X87050476Y-87747200D02*
X86955238Y-87794819D01*
X86955238Y-87794819D02*
X86669524Y-87794819D01*
X86669524Y-87794819D02*
X86574286Y-87747200D01*
X86574286Y-87747200D02*
X86526667Y-87699580D01*
X97353333Y-101384819D02*
X97020000Y-100908628D01*
X96781905Y-101384819D02*
X96781905Y-100384819D01*
X96781905Y-100384819D02*
X97162857Y-100384819D01*
X97162857Y-100384819D02*
X97258095Y-100432438D01*
X97258095Y-100432438D02*
X97305714Y-100480057D01*
X97305714Y-100480057D02*
X97353333Y-100575295D01*
X97353333Y-100575295D02*
X97353333Y-100718152D01*
X97353333Y-100718152D02*
X97305714Y-100813390D01*
X97305714Y-100813390D02*
X97258095Y-100861009D01*
X97258095Y-100861009D02*
X97162857Y-100908628D01*
X97162857Y-100908628D02*
X96781905Y-100908628D01*
X98258095Y-100384819D02*
X97781905Y-100384819D01*
X97781905Y-100384819D02*
X97734286Y-100861009D01*
X97734286Y-100861009D02*
X97781905Y-100813390D01*
X97781905Y-100813390D02*
X97877143Y-100765771D01*
X97877143Y-100765771D02*
X98115238Y-100765771D01*
X98115238Y-100765771D02*
X98210476Y-100813390D01*
X98210476Y-100813390D02*
X98258095Y-100861009D01*
X98258095Y-100861009D02*
X98305714Y-100956247D01*
X98305714Y-100956247D02*
X98305714Y-101194342D01*
X98305714Y-101194342D02*
X98258095Y-101289580D01*
X98258095Y-101289580D02*
X98210476Y-101337200D01*
X98210476Y-101337200D02*
X98115238Y-101384819D01*
X98115238Y-101384819D02*
X97877143Y-101384819D01*
X97877143Y-101384819D02*
X97781905Y-101337200D01*
X97781905Y-101337200D02*
X97734286Y-101289580D01*
X86193333Y-118179580D02*
X86145714Y-118227200D01*
X86145714Y-118227200D02*
X86002857Y-118274819D01*
X86002857Y-118274819D02*
X85907619Y-118274819D01*
X85907619Y-118274819D02*
X85764762Y-118227200D01*
X85764762Y-118227200D02*
X85669524Y-118131961D01*
X85669524Y-118131961D02*
X85621905Y-118036723D01*
X85621905Y-118036723D02*
X85574286Y-117846247D01*
X85574286Y-117846247D02*
X85574286Y-117703390D01*
X85574286Y-117703390D02*
X85621905Y-117512914D01*
X85621905Y-117512914D02*
X85669524Y-117417676D01*
X85669524Y-117417676D02*
X85764762Y-117322438D01*
X85764762Y-117322438D02*
X85907619Y-117274819D01*
X85907619Y-117274819D02*
X86002857Y-117274819D01*
X86002857Y-117274819D02*
X86145714Y-117322438D01*
X86145714Y-117322438D02*
X86193333Y-117370057D01*
X87050476Y-117608152D02*
X87050476Y-118274819D01*
X86812381Y-117227200D02*
X86574286Y-117941485D01*
X86574286Y-117941485D02*
X87193333Y-117941485D01*
X89298095Y-98644819D02*
X89298095Y-99454342D01*
X89298095Y-99454342D02*
X89345714Y-99549580D01*
X89345714Y-99549580D02*
X89393333Y-99597200D01*
X89393333Y-99597200D02*
X89488571Y-99644819D01*
X89488571Y-99644819D02*
X89679047Y-99644819D01*
X89679047Y-99644819D02*
X89774285Y-99597200D01*
X89774285Y-99597200D02*
X89821904Y-99549580D01*
X89821904Y-99549580D02*
X89869523Y-99454342D01*
X89869523Y-99454342D02*
X89869523Y-98644819D01*
X90869523Y-99644819D02*
X90298095Y-99644819D01*
X90583809Y-99644819D02*
X90583809Y-98644819D01*
X90583809Y-98644819D02*
X90488571Y-98787676D01*
X90488571Y-98787676D02*
X90393333Y-98882914D01*
X90393333Y-98882914D02*
X90298095Y-98930533D01*
X86193333Y-110814819D02*
X85717143Y-110814819D01*
X85717143Y-110814819D02*
X85717143Y-109814819D01*
X87050476Y-110814819D02*
X86479048Y-110814819D01*
X86764762Y-110814819D02*
X86764762Y-109814819D01*
X86764762Y-109814819D02*
X86669524Y-109957676D01*
X86669524Y-109957676D02*
X86574286Y-110052914D01*
X86574286Y-110052914D02*
X86479048Y-110100533D01*
X89770833Y-108879580D02*
X89723214Y-108927200D01*
X89723214Y-108927200D02*
X89580357Y-108974819D01*
X89580357Y-108974819D02*
X89485119Y-108974819D01*
X89485119Y-108974819D02*
X89342262Y-108927200D01*
X89342262Y-108927200D02*
X89247024Y-108831961D01*
X89247024Y-108831961D02*
X89199405Y-108736723D01*
X89199405Y-108736723D02*
X89151786Y-108546247D01*
X89151786Y-108546247D02*
X89151786Y-108403390D01*
X89151786Y-108403390D02*
X89199405Y-108212914D01*
X89199405Y-108212914D02*
X89247024Y-108117676D01*
X89247024Y-108117676D02*
X89342262Y-108022438D01*
X89342262Y-108022438D02*
X89485119Y-107974819D01*
X89485119Y-107974819D02*
X89580357Y-107974819D01*
X89580357Y-107974819D02*
X89723214Y-108022438D01*
X89723214Y-108022438D02*
X89770833Y-108070057D01*
X90723214Y-108974819D02*
X90151786Y-108974819D01*
X90437500Y-108974819D02*
X90437500Y-107974819D01*
X90437500Y-107974819D02*
X90342262Y-108117676D01*
X90342262Y-108117676D02*
X90247024Y-108212914D01*
X90247024Y-108212914D02*
X90151786Y-108260533D01*
X97353333Y-94524819D02*
X97020000Y-94048628D01*
X96781905Y-94524819D02*
X96781905Y-93524819D01*
X96781905Y-93524819D02*
X97162857Y-93524819D01*
X97162857Y-93524819D02*
X97258095Y-93572438D01*
X97258095Y-93572438D02*
X97305714Y-93620057D01*
X97305714Y-93620057D02*
X97353333Y-93715295D01*
X97353333Y-93715295D02*
X97353333Y-93858152D01*
X97353333Y-93858152D02*
X97305714Y-93953390D01*
X97305714Y-93953390D02*
X97258095Y-94001009D01*
X97258095Y-94001009D02*
X97162857Y-94048628D01*
X97162857Y-94048628D02*
X96781905Y-94048628D01*
X98305714Y-94524819D02*
X97734286Y-94524819D01*
X98020000Y-94524819D02*
X98020000Y-93524819D01*
X98020000Y-93524819D02*
X97924762Y-93667676D01*
X97924762Y-93667676D02*
X97829524Y-93762914D01*
X97829524Y-93762914D02*
X97734286Y-93810533D01*
X97353333Y-96304819D02*
X97020000Y-95828628D01*
X96781905Y-96304819D02*
X96781905Y-95304819D01*
X96781905Y-95304819D02*
X97162857Y-95304819D01*
X97162857Y-95304819D02*
X97258095Y-95352438D01*
X97258095Y-95352438D02*
X97305714Y-95400057D01*
X97305714Y-95400057D02*
X97353333Y-95495295D01*
X97353333Y-95495295D02*
X97353333Y-95638152D01*
X97353333Y-95638152D02*
X97305714Y-95733390D01*
X97305714Y-95733390D02*
X97258095Y-95781009D01*
X97258095Y-95781009D02*
X97162857Y-95828628D01*
X97162857Y-95828628D02*
X96781905Y-95828628D01*
X97734286Y-95400057D02*
X97781905Y-95352438D01*
X97781905Y-95352438D02*
X97877143Y-95304819D01*
X97877143Y-95304819D02*
X98115238Y-95304819D01*
X98115238Y-95304819D02*
X98210476Y-95352438D01*
X98210476Y-95352438D02*
X98258095Y-95400057D01*
X98258095Y-95400057D02*
X98305714Y-95495295D01*
X98305714Y-95495295D02*
X98305714Y-95590533D01*
X98305714Y-95590533D02*
X98258095Y-95733390D01*
X98258095Y-95733390D02*
X97686667Y-96304819D01*
X97686667Y-96304819D02*
X98305714Y-96304819D01*
X89770833Y-96179580D02*
X89723214Y-96227200D01*
X89723214Y-96227200D02*
X89580357Y-96274819D01*
X89580357Y-96274819D02*
X89485119Y-96274819D01*
X89485119Y-96274819D02*
X89342262Y-96227200D01*
X89342262Y-96227200D02*
X89247024Y-96131961D01*
X89247024Y-96131961D02*
X89199405Y-96036723D01*
X89199405Y-96036723D02*
X89151786Y-95846247D01*
X89151786Y-95846247D02*
X89151786Y-95703390D01*
X89151786Y-95703390D02*
X89199405Y-95512914D01*
X89199405Y-95512914D02*
X89247024Y-95417676D01*
X89247024Y-95417676D02*
X89342262Y-95322438D01*
X89342262Y-95322438D02*
X89485119Y-95274819D01*
X89485119Y-95274819D02*
X89580357Y-95274819D01*
X89580357Y-95274819D02*
X89723214Y-95322438D01*
X89723214Y-95322438D02*
X89770833Y-95370057D01*
X90151786Y-95370057D02*
X90199405Y-95322438D01*
X90199405Y-95322438D02*
X90294643Y-95274819D01*
X90294643Y-95274819D02*
X90532738Y-95274819D01*
X90532738Y-95274819D02*
X90627976Y-95322438D01*
X90627976Y-95322438D02*
X90675595Y-95370057D01*
X90675595Y-95370057D02*
X90723214Y-95465295D01*
X90723214Y-95465295D02*
X90723214Y-95560533D01*
X90723214Y-95560533D02*
X90675595Y-95703390D01*
X90675595Y-95703390D02*
X90104167Y-96274819D01*
X90104167Y-96274819D02*
X90723214Y-96274819D01*
X132353333Y-77544819D02*
X132020000Y-77068628D01*
X131781905Y-77544819D02*
X131781905Y-76544819D01*
X131781905Y-76544819D02*
X132162857Y-76544819D01*
X132162857Y-76544819D02*
X132258095Y-76592438D01*
X132258095Y-76592438D02*
X132305714Y-76640057D01*
X132305714Y-76640057D02*
X132353333Y-76735295D01*
X132353333Y-76735295D02*
X132353333Y-76878152D01*
X132353333Y-76878152D02*
X132305714Y-76973390D01*
X132305714Y-76973390D02*
X132258095Y-77021009D01*
X132258095Y-77021009D02*
X132162857Y-77068628D01*
X132162857Y-77068628D02*
X131781905Y-77068628D01*
X133210476Y-76878152D02*
X133210476Y-77544819D01*
X132972381Y-76497200D02*
X132734286Y-77211485D01*
X132734286Y-77211485D02*
X133353333Y-77211485D01*
X132353333Y-75764819D02*
X132020000Y-75288628D01*
X131781905Y-75764819D02*
X131781905Y-74764819D01*
X131781905Y-74764819D02*
X132162857Y-74764819D01*
X132162857Y-74764819D02*
X132258095Y-74812438D01*
X132258095Y-74812438D02*
X132305714Y-74860057D01*
X132305714Y-74860057D02*
X132353333Y-74955295D01*
X132353333Y-74955295D02*
X132353333Y-75098152D01*
X132353333Y-75098152D02*
X132305714Y-75193390D01*
X132305714Y-75193390D02*
X132258095Y-75241009D01*
X132258095Y-75241009D02*
X132162857Y-75288628D01*
X132162857Y-75288628D02*
X131781905Y-75288628D01*
X132686667Y-74764819D02*
X133305714Y-74764819D01*
X133305714Y-74764819D02*
X132972381Y-75145771D01*
X132972381Y-75145771D02*
X133115238Y-75145771D01*
X133115238Y-75145771D02*
X133210476Y-75193390D01*
X133210476Y-75193390D02*
X133258095Y-75241009D01*
X133258095Y-75241009D02*
X133305714Y-75336247D01*
X133305714Y-75336247D02*
X133305714Y-75574342D01*
X133305714Y-75574342D02*
X133258095Y-75669580D01*
X133258095Y-75669580D02*
X133210476Y-75717200D01*
X133210476Y-75717200D02*
X133115238Y-75764819D01*
X133115238Y-75764819D02*
X132829524Y-75764819D01*
X132829524Y-75764819D02*
X132734286Y-75717200D01*
X132734286Y-75717200D02*
X132686667Y-75669580D01*
X138806666Y-60624819D02*
X138806666Y-61339104D01*
X138806666Y-61339104D02*
X138759047Y-61481961D01*
X138759047Y-61481961D02*
X138663809Y-61577200D01*
X138663809Y-61577200D02*
X138520952Y-61624819D01*
X138520952Y-61624819D02*
X138425714Y-61624819D01*
X139806666Y-61624819D02*
X139235238Y-61624819D01*
X139520952Y-61624819D02*
X139520952Y-60624819D01*
X139520952Y-60624819D02*
X139425714Y-60767676D01*
X139425714Y-60767676D02*
X139330476Y-60862914D01*
X139330476Y-60862914D02*
X139235238Y-60910533D01*
X121193333Y-53699580D02*
X121145714Y-53747200D01*
X121145714Y-53747200D02*
X121002857Y-53794819D01*
X121002857Y-53794819D02*
X120907619Y-53794819D01*
X120907619Y-53794819D02*
X120764762Y-53747200D01*
X120764762Y-53747200D02*
X120669524Y-53651961D01*
X120669524Y-53651961D02*
X120621905Y-53556723D01*
X120621905Y-53556723D02*
X120574286Y-53366247D01*
X120574286Y-53366247D02*
X120574286Y-53223390D01*
X120574286Y-53223390D02*
X120621905Y-53032914D01*
X120621905Y-53032914D02*
X120669524Y-52937676D01*
X120669524Y-52937676D02*
X120764762Y-52842438D01*
X120764762Y-52842438D02*
X120907619Y-52794819D01*
X120907619Y-52794819D02*
X121002857Y-52794819D01*
X121002857Y-52794819D02*
X121145714Y-52842438D01*
X121145714Y-52842438D02*
X121193333Y-52890057D01*
X121526667Y-52794819D02*
X122145714Y-52794819D01*
X122145714Y-52794819D02*
X121812381Y-53175771D01*
X121812381Y-53175771D02*
X121955238Y-53175771D01*
X121955238Y-53175771D02*
X122050476Y-53223390D01*
X122050476Y-53223390D02*
X122098095Y-53271009D01*
X122098095Y-53271009D02*
X122145714Y-53366247D01*
X122145714Y-53366247D02*
X122145714Y-53604342D01*
X122145714Y-53604342D02*
X122098095Y-53699580D01*
X122098095Y-53699580D02*
X122050476Y-53747200D01*
X122050476Y-53747200D02*
X121955238Y-53794819D01*
X121955238Y-53794819D02*
X121669524Y-53794819D01*
X121669524Y-53794819D02*
X121574286Y-53747200D01*
X121574286Y-53747200D02*
X121526667Y-53699580D01*
X132353333Y-67384819D02*
X132020000Y-66908628D01*
X131781905Y-67384819D02*
X131781905Y-66384819D01*
X131781905Y-66384819D02*
X132162857Y-66384819D01*
X132162857Y-66384819D02*
X132258095Y-66432438D01*
X132258095Y-66432438D02*
X132305714Y-66480057D01*
X132305714Y-66480057D02*
X132353333Y-66575295D01*
X132353333Y-66575295D02*
X132353333Y-66718152D01*
X132353333Y-66718152D02*
X132305714Y-66813390D01*
X132305714Y-66813390D02*
X132258095Y-66861009D01*
X132258095Y-66861009D02*
X132162857Y-66908628D01*
X132162857Y-66908628D02*
X131781905Y-66908628D01*
X133258095Y-66384819D02*
X132781905Y-66384819D01*
X132781905Y-66384819D02*
X132734286Y-66861009D01*
X132734286Y-66861009D02*
X132781905Y-66813390D01*
X132781905Y-66813390D02*
X132877143Y-66765771D01*
X132877143Y-66765771D02*
X133115238Y-66765771D01*
X133115238Y-66765771D02*
X133210476Y-66813390D01*
X133210476Y-66813390D02*
X133258095Y-66861009D01*
X133258095Y-66861009D02*
X133305714Y-66956247D01*
X133305714Y-66956247D02*
X133305714Y-67194342D01*
X133305714Y-67194342D02*
X133258095Y-67289580D01*
X133258095Y-67289580D02*
X133210476Y-67337200D01*
X133210476Y-67337200D02*
X133115238Y-67384819D01*
X133115238Y-67384819D02*
X132877143Y-67384819D01*
X132877143Y-67384819D02*
X132781905Y-67337200D01*
X132781905Y-67337200D02*
X132734286Y-67289580D01*
X121193333Y-84179580D02*
X121145714Y-84227200D01*
X121145714Y-84227200D02*
X121002857Y-84274819D01*
X121002857Y-84274819D02*
X120907619Y-84274819D01*
X120907619Y-84274819D02*
X120764762Y-84227200D01*
X120764762Y-84227200D02*
X120669524Y-84131961D01*
X120669524Y-84131961D02*
X120621905Y-84036723D01*
X120621905Y-84036723D02*
X120574286Y-83846247D01*
X120574286Y-83846247D02*
X120574286Y-83703390D01*
X120574286Y-83703390D02*
X120621905Y-83512914D01*
X120621905Y-83512914D02*
X120669524Y-83417676D01*
X120669524Y-83417676D02*
X120764762Y-83322438D01*
X120764762Y-83322438D02*
X120907619Y-83274819D01*
X120907619Y-83274819D02*
X121002857Y-83274819D01*
X121002857Y-83274819D02*
X121145714Y-83322438D01*
X121145714Y-83322438D02*
X121193333Y-83370057D01*
X122050476Y-83608152D02*
X122050476Y-84274819D01*
X121812381Y-83227200D02*
X121574286Y-83941485D01*
X121574286Y-83941485D02*
X122193333Y-83941485D01*
X124298095Y-64644819D02*
X124298095Y-65454342D01*
X124298095Y-65454342D02*
X124345714Y-65549580D01*
X124345714Y-65549580D02*
X124393333Y-65597200D01*
X124393333Y-65597200D02*
X124488571Y-65644819D01*
X124488571Y-65644819D02*
X124679047Y-65644819D01*
X124679047Y-65644819D02*
X124774285Y-65597200D01*
X124774285Y-65597200D02*
X124821904Y-65549580D01*
X124821904Y-65549580D02*
X124869523Y-65454342D01*
X124869523Y-65454342D02*
X124869523Y-64644819D01*
X125869523Y-65644819D02*
X125298095Y-65644819D01*
X125583809Y-65644819D02*
X125583809Y-64644819D01*
X125583809Y-64644819D02*
X125488571Y-64787676D01*
X125488571Y-64787676D02*
X125393333Y-64882914D01*
X125393333Y-64882914D02*
X125298095Y-64930533D01*
X121193333Y-76814819D02*
X120717143Y-76814819D01*
X120717143Y-76814819D02*
X120717143Y-75814819D01*
X122050476Y-76814819D02*
X121479048Y-76814819D01*
X121764762Y-76814819D02*
X121764762Y-75814819D01*
X121764762Y-75814819D02*
X121669524Y-75957676D01*
X121669524Y-75957676D02*
X121574286Y-76052914D01*
X121574286Y-76052914D02*
X121479048Y-76100533D01*
X124770833Y-74879580D02*
X124723214Y-74927200D01*
X124723214Y-74927200D02*
X124580357Y-74974819D01*
X124580357Y-74974819D02*
X124485119Y-74974819D01*
X124485119Y-74974819D02*
X124342262Y-74927200D01*
X124342262Y-74927200D02*
X124247024Y-74831961D01*
X124247024Y-74831961D02*
X124199405Y-74736723D01*
X124199405Y-74736723D02*
X124151786Y-74546247D01*
X124151786Y-74546247D02*
X124151786Y-74403390D01*
X124151786Y-74403390D02*
X124199405Y-74212914D01*
X124199405Y-74212914D02*
X124247024Y-74117676D01*
X124247024Y-74117676D02*
X124342262Y-74022438D01*
X124342262Y-74022438D02*
X124485119Y-73974819D01*
X124485119Y-73974819D02*
X124580357Y-73974819D01*
X124580357Y-73974819D02*
X124723214Y-74022438D01*
X124723214Y-74022438D02*
X124770833Y-74070057D01*
X125723214Y-74974819D02*
X125151786Y-74974819D01*
X125437500Y-74974819D02*
X125437500Y-73974819D01*
X125437500Y-73974819D02*
X125342262Y-74117676D01*
X125342262Y-74117676D02*
X125247024Y-74212914D01*
X125247024Y-74212914D02*
X125151786Y-74260533D01*
X132353333Y-60524819D02*
X132020000Y-60048628D01*
X131781905Y-60524819D02*
X131781905Y-59524819D01*
X131781905Y-59524819D02*
X132162857Y-59524819D01*
X132162857Y-59524819D02*
X132258095Y-59572438D01*
X132258095Y-59572438D02*
X132305714Y-59620057D01*
X132305714Y-59620057D02*
X132353333Y-59715295D01*
X132353333Y-59715295D02*
X132353333Y-59858152D01*
X132353333Y-59858152D02*
X132305714Y-59953390D01*
X132305714Y-59953390D02*
X132258095Y-60001009D01*
X132258095Y-60001009D02*
X132162857Y-60048628D01*
X132162857Y-60048628D02*
X131781905Y-60048628D01*
X133305714Y-60524819D02*
X132734286Y-60524819D01*
X133020000Y-60524819D02*
X133020000Y-59524819D01*
X133020000Y-59524819D02*
X132924762Y-59667676D01*
X132924762Y-59667676D02*
X132829524Y-59762914D01*
X132829524Y-59762914D02*
X132734286Y-59810533D01*
X132353333Y-62304819D02*
X132020000Y-61828628D01*
X131781905Y-62304819D02*
X131781905Y-61304819D01*
X131781905Y-61304819D02*
X132162857Y-61304819D01*
X132162857Y-61304819D02*
X132258095Y-61352438D01*
X132258095Y-61352438D02*
X132305714Y-61400057D01*
X132305714Y-61400057D02*
X132353333Y-61495295D01*
X132353333Y-61495295D02*
X132353333Y-61638152D01*
X132353333Y-61638152D02*
X132305714Y-61733390D01*
X132305714Y-61733390D02*
X132258095Y-61781009D01*
X132258095Y-61781009D02*
X132162857Y-61828628D01*
X132162857Y-61828628D02*
X131781905Y-61828628D01*
X132734286Y-61400057D02*
X132781905Y-61352438D01*
X132781905Y-61352438D02*
X132877143Y-61304819D01*
X132877143Y-61304819D02*
X133115238Y-61304819D01*
X133115238Y-61304819D02*
X133210476Y-61352438D01*
X133210476Y-61352438D02*
X133258095Y-61400057D01*
X133258095Y-61400057D02*
X133305714Y-61495295D01*
X133305714Y-61495295D02*
X133305714Y-61590533D01*
X133305714Y-61590533D02*
X133258095Y-61733390D01*
X133258095Y-61733390D02*
X132686667Y-62304819D01*
X132686667Y-62304819D02*
X133305714Y-62304819D01*
X124770833Y-62179580D02*
X124723214Y-62227200D01*
X124723214Y-62227200D02*
X124580357Y-62274819D01*
X124580357Y-62274819D02*
X124485119Y-62274819D01*
X124485119Y-62274819D02*
X124342262Y-62227200D01*
X124342262Y-62227200D02*
X124247024Y-62131961D01*
X124247024Y-62131961D02*
X124199405Y-62036723D01*
X124199405Y-62036723D02*
X124151786Y-61846247D01*
X124151786Y-61846247D02*
X124151786Y-61703390D01*
X124151786Y-61703390D02*
X124199405Y-61512914D01*
X124199405Y-61512914D02*
X124247024Y-61417676D01*
X124247024Y-61417676D02*
X124342262Y-61322438D01*
X124342262Y-61322438D02*
X124485119Y-61274819D01*
X124485119Y-61274819D02*
X124580357Y-61274819D01*
X124580357Y-61274819D02*
X124723214Y-61322438D01*
X124723214Y-61322438D02*
X124770833Y-61370057D01*
X125151786Y-61370057D02*
X125199405Y-61322438D01*
X125199405Y-61322438D02*
X125294643Y-61274819D01*
X125294643Y-61274819D02*
X125532738Y-61274819D01*
X125532738Y-61274819D02*
X125627976Y-61322438D01*
X125627976Y-61322438D02*
X125675595Y-61370057D01*
X125675595Y-61370057D02*
X125723214Y-61465295D01*
X125723214Y-61465295D02*
X125723214Y-61560533D01*
X125723214Y-61560533D02*
X125675595Y-61703390D01*
X125675595Y-61703390D02*
X125104167Y-62274819D01*
X125104167Y-62274819D02*
X125723214Y-62274819D01*
X89298095Y-64644819D02*
X89298095Y-65454342D01*
X89298095Y-65454342D02*
X89345714Y-65549580D01*
X89345714Y-65549580D02*
X89393333Y-65597200D01*
X89393333Y-65597200D02*
X89488571Y-65644819D01*
X89488571Y-65644819D02*
X89679047Y-65644819D01*
X89679047Y-65644819D02*
X89774285Y-65597200D01*
X89774285Y-65597200D02*
X89821904Y-65549580D01*
X89821904Y-65549580D02*
X89869523Y-65454342D01*
X89869523Y-65454342D02*
X89869523Y-64644819D01*
X90869523Y-65644819D02*
X90298095Y-65644819D01*
X90583809Y-65644819D02*
X90583809Y-64644819D01*
X90583809Y-64644819D02*
X90488571Y-64787676D01*
X90488571Y-64787676D02*
X90393333Y-64882914D01*
X90393333Y-64882914D02*
X90298095Y-64930533D01*
X86193333Y-84179580D02*
X86145714Y-84227200D01*
X86145714Y-84227200D02*
X86002857Y-84274819D01*
X86002857Y-84274819D02*
X85907619Y-84274819D01*
X85907619Y-84274819D02*
X85764762Y-84227200D01*
X85764762Y-84227200D02*
X85669524Y-84131961D01*
X85669524Y-84131961D02*
X85621905Y-84036723D01*
X85621905Y-84036723D02*
X85574286Y-83846247D01*
X85574286Y-83846247D02*
X85574286Y-83703390D01*
X85574286Y-83703390D02*
X85621905Y-83512914D01*
X85621905Y-83512914D02*
X85669524Y-83417676D01*
X85669524Y-83417676D02*
X85764762Y-83322438D01*
X85764762Y-83322438D02*
X85907619Y-83274819D01*
X85907619Y-83274819D02*
X86002857Y-83274819D01*
X86002857Y-83274819D02*
X86145714Y-83322438D01*
X86145714Y-83322438D02*
X86193333Y-83370057D01*
X87050476Y-83608152D02*
X87050476Y-84274819D01*
X86812381Y-83227200D02*
X86574286Y-83941485D01*
X86574286Y-83941485D02*
X87193333Y-83941485D01*
X97353333Y-75764819D02*
X97020000Y-75288628D01*
X96781905Y-75764819D02*
X96781905Y-74764819D01*
X96781905Y-74764819D02*
X97162857Y-74764819D01*
X97162857Y-74764819D02*
X97258095Y-74812438D01*
X97258095Y-74812438D02*
X97305714Y-74860057D01*
X97305714Y-74860057D02*
X97353333Y-74955295D01*
X97353333Y-74955295D02*
X97353333Y-75098152D01*
X97353333Y-75098152D02*
X97305714Y-75193390D01*
X97305714Y-75193390D02*
X97258095Y-75241009D01*
X97258095Y-75241009D02*
X97162857Y-75288628D01*
X97162857Y-75288628D02*
X96781905Y-75288628D01*
X97686667Y-74764819D02*
X98305714Y-74764819D01*
X98305714Y-74764819D02*
X97972381Y-75145771D01*
X97972381Y-75145771D02*
X98115238Y-75145771D01*
X98115238Y-75145771D02*
X98210476Y-75193390D01*
X98210476Y-75193390D02*
X98258095Y-75241009D01*
X98258095Y-75241009D02*
X98305714Y-75336247D01*
X98305714Y-75336247D02*
X98305714Y-75574342D01*
X98305714Y-75574342D02*
X98258095Y-75669580D01*
X98258095Y-75669580D02*
X98210476Y-75717200D01*
X98210476Y-75717200D02*
X98115238Y-75764819D01*
X98115238Y-75764819D02*
X97829524Y-75764819D01*
X97829524Y-75764819D02*
X97734286Y-75717200D01*
X97734286Y-75717200D02*
X97686667Y-75669580D01*
X89770833Y-74879580D02*
X89723214Y-74927200D01*
X89723214Y-74927200D02*
X89580357Y-74974819D01*
X89580357Y-74974819D02*
X89485119Y-74974819D01*
X89485119Y-74974819D02*
X89342262Y-74927200D01*
X89342262Y-74927200D02*
X89247024Y-74831961D01*
X89247024Y-74831961D02*
X89199405Y-74736723D01*
X89199405Y-74736723D02*
X89151786Y-74546247D01*
X89151786Y-74546247D02*
X89151786Y-74403390D01*
X89151786Y-74403390D02*
X89199405Y-74212914D01*
X89199405Y-74212914D02*
X89247024Y-74117676D01*
X89247024Y-74117676D02*
X89342262Y-74022438D01*
X89342262Y-74022438D02*
X89485119Y-73974819D01*
X89485119Y-73974819D02*
X89580357Y-73974819D01*
X89580357Y-73974819D02*
X89723214Y-74022438D01*
X89723214Y-74022438D02*
X89770833Y-74070057D01*
X90723214Y-74974819D02*
X90151786Y-74974819D01*
X90437500Y-74974819D02*
X90437500Y-73974819D01*
X90437500Y-73974819D02*
X90342262Y-74117676D01*
X90342262Y-74117676D02*
X90247024Y-74212914D01*
X90247024Y-74212914D02*
X90151786Y-74260533D01*
X86193333Y-76814819D02*
X85717143Y-76814819D01*
X85717143Y-76814819D02*
X85717143Y-75814819D01*
X87050476Y-76814819D02*
X86479048Y-76814819D01*
X86764762Y-76814819D02*
X86764762Y-75814819D01*
X86764762Y-75814819D02*
X86669524Y-75957676D01*
X86669524Y-75957676D02*
X86574286Y-76052914D01*
X86574286Y-76052914D02*
X86479048Y-76100533D01*
X97353333Y-60524819D02*
X97020000Y-60048628D01*
X96781905Y-60524819D02*
X96781905Y-59524819D01*
X96781905Y-59524819D02*
X97162857Y-59524819D01*
X97162857Y-59524819D02*
X97258095Y-59572438D01*
X97258095Y-59572438D02*
X97305714Y-59620057D01*
X97305714Y-59620057D02*
X97353333Y-59715295D01*
X97353333Y-59715295D02*
X97353333Y-59858152D01*
X97353333Y-59858152D02*
X97305714Y-59953390D01*
X97305714Y-59953390D02*
X97258095Y-60001009D01*
X97258095Y-60001009D02*
X97162857Y-60048628D01*
X97162857Y-60048628D02*
X96781905Y-60048628D01*
X98305714Y-60524819D02*
X97734286Y-60524819D01*
X98020000Y-60524819D02*
X98020000Y-59524819D01*
X98020000Y-59524819D02*
X97924762Y-59667676D01*
X97924762Y-59667676D02*
X97829524Y-59762914D01*
X97829524Y-59762914D02*
X97734286Y-59810533D01*
X97353333Y-67384819D02*
X97020000Y-66908628D01*
X96781905Y-67384819D02*
X96781905Y-66384819D01*
X96781905Y-66384819D02*
X97162857Y-66384819D01*
X97162857Y-66384819D02*
X97258095Y-66432438D01*
X97258095Y-66432438D02*
X97305714Y-66480057D01*
X97305714Y-66480057D02*
X97353333Y-66575295D01*
X97353333Y-66575295D02*
X97353333Y-66718152D01*
X97353333Y-66718152D02*
X97305714Y-66813390D01*
X97305714Y-66813390D02*
X97258095Y-66861009D01*
X97258095Y-66861009D02*
X97162857Y-66908628D01*
X97162857Y-66908628D02*
X96781905Y-66908628D01*
X98258095Y-66384819D02*
X97781905Y-66384819D01*
X97781905Y-66384819D02*
X97734286Y-66861009D01*
X97734286Y-66861009D02*
X97781905Y-66813390D01*
X97781905Y-66813390D02*
X97877143Y-66765771D01*
X97877143Y-66765771D02*
X98115238Y-66765771D01*
X98115238Y-66765771D02*
X98210476Y-66813390D01*
X98210476Y-66813390D02*
X98258095Y-66861009D01*
X98258095Y-66861009D02*
X98305714Y-66956247D01*
X98305714Y-66956247D02*
X98305714Y-67194342D01*
X98305714Y-67194342D02*
X98258095Y-67289580D01*
X98258095Y-67289580D02*
X98210476Y-67337200D01*
X98210476Y-67337200D02*
X98115238Y-67384819D01*
X98115238Y-67384819D02*
X97877143Y-67384819D01*
X97877143Y-67384819D02*
X97781905Y-67337200D01*
X97781905Y-67337200D02*
X97734286Y-67289580D01*
X86193333Y-53699580D02*
X86145714Y-53747200D01*
X86145714Y-53747200D02*
X86002857Y-53794819D01*
X86002857Y-53794819D02*
X85907619Y-53794819D01*
X85907619Y-53794819D02*
X85764762Y-53747200D01*
X85764762Y-53747200D02*
X85669524Y-53651961D01*
X85669524Y-53651961D02*
X85621905Y-53556723D01*
X85621905Y-53556723D02*
X85574286Y-53366247D01*
X85574286Y-53366247D02*
X85574286Y-53223390D01*
X85574286Y-53223390D02*
X85621905Y-53032914D01*
X85621905Y-53032914D02*
X85669524Y-52937676D01*
X85669524Y-52937676D02*
X85764762Y-52842438D01*
X85764762Y-52842438D02*
X85907619Y-52794819D01*
X85907619Y-52794819D02*
X86002857Y-52794819D01*
X86002857Y-52794819D02*
X86145714Y-52842438D01*
X86145714Y-52842438D02*
X86193333Y-52890057D01*
X86526667Y-52794819D02*
X87145714Y-52794819D01*
X87145714Y-52794819D02*
X86812381Y-53175771D01*
X86812381Y-53175771D02*
X86955238Y-53175771D01*
X86955238Y-53175771D02*
X87050476Y-53223390D01*
X87050476Y-53223390D02*
X87098095Y-53271009D01*
X87098095Y-53271009D02*
X87145714Y-53366247D01*
X87145714Y-53366247D02*
X87145714Y-53604342D01*
X87145714Y-53604342D02*
X87098095Y-53699580D01*
X87098095Y-53699580D02*
X87050476Y-53747200D01*
X87050476Y-53747200D02*
X86955238Y-53794819D01*
X86955238Y-53794819D02*
X86669524Y-53794819D01*
X86669524Y-53794819D02*
X86574286Y-53747200D01*
X86574286Y-53747200D02*
X86526667Y-53699580D01*
X97353333Y-77544819D02*
X97020000Y-77068628D01*
X96781905Y-77544819D02*
X96781905Y-76544819D01*
X96781905Y-76544819D02*
X97162857Y-76544819D01*
X97162857Y-76544819D02*
X97258095Y-76592438D01*
X97258095Y-76592438D02*
X97305714Y-76640057D01*
X97305714Y-76640057D02*
X97353333Y-76735295D01*
X97353333Y-76735295D02*
X97353333Y-76878152D01*
X97353333Y-76878152D02*
X97305714Y-76973390D01*
X97305714Y-76973390D02*
X97258095Y-77021009D01*
X97258095Y-77021009D02*
X97162857Y-77068628D01*
X97162857Y-77068628D02*
X96781905Y-77068628D01*
X98210476Y-76878152D02*
X98210476Y-77544819D01*
X97972381Y-76497200D02*
X97734286Y-77211485D01*
X97734286Y-77211485D02*
X98353333Y-77211485D01*
X103806666Y-60624819D02*
X103806666Y-61339104D01*
X103806666Y-61339104D02*
X103759047Y-61481961D01*
X103759047Y-61481961D02*
X103663809Y-61577200D01*
X103663809Y-61577200D02*
X103520952Y-61624819D01*
X103520952Y-61624819D02*
X103425714Y-61624819D01*
X104806666Y-61624819D02*
X104235238Y-61624819D01*
X104520952Y-61624819D02*
X104520952Y-60624819D01*
X104520952Y-60624819D02*
X104425714Y-60767676D01*
X104425714Y-60767676D02*
X104330476Y-60862914D01*
X104330476Y-60862914D02*
X104235238Y-60910533D01*
X89770833Y-62179580D02*
X89723214Y-62227200D01*
X89723214Y-62227200D02*
X89580357Y-62274819D01*
X89580357Y-62274819D02*
X89485119Y-62274819D01*
X89485119Y-62274819D02*
X89342262Y-62227200D01*
X89342262Y-62227200D02*
X89247024Y-62131961D01*
X89247024Y-62131961D02*
X89199405Y-62036723D01*
X89199405Y-62036723D02*
X89151786Y-61846247D01*
X89151786Y-61846247D02*
X89151786Y-61703390D01*
X89151786Y-61703390D02*
X89199405Y-61512914D01*
X89199405Y-61512914D02*
X89247024Y-61417676D01*
X89247024Y-61417676D02*
X89342262Y-61322438D01*
X89342262Y-61322438D02*
X89485119Y-61274819D01*
X89485119Y-61274819D02*
X89580357Y-61274819D01*
X89580357Y-61274819D02*
X89723214Y-61322438D01*
X89723214Y-61322438D02*
X89770833Y-61370057D01*
X90151786Y-61370057D02*
X90199405Y-61322438D01*
X90199405Y-61322438D02*
X90294643Y-61274819D01*
X90294643Y-61274819D02*
X90532738Y-61274819D01*
X90532738Y-61274819D02*
X90627976Y-61322438D01*
X90627976Y-61322438D02*
X90675595Y-61370057D01*
X90675595Y-61370057D02*
X90723214Y-61465295D01*
X90723214Y-61465295D02*
X90723214Y-61560533D01*
X90723214Y-61560533D02*
X90675595Y-61703390D01*
X90675595Y-61703390D02*
X90104167Y-62274819D01*
X90104167Y-62274819D02*
X90723214Y-62274819D01*
X97353333Y-62304819D02*
X97020000Y-61828628D01*
X96781905Y-62304819D02*
X96781905Y-61304819D01*
X96781905Y-61304819D02*
X97162857Y-61304819D01*
X97162857Y-61304819D02*
X97258095Y-61352438D01*
X97258095Y-61352438D02*
X97305714Y-61400057D01*
X97305714Y-61400057D02*
X97353333Y-61495295D01*
X97353333Y-61495295D02*
X97353333Y-61638152D01*
X97353333Y-61638152D02*
X97305714Y-61733390D01*
X97305714Y-61733390D02*
X97258095Y-61781009D01*
X97258095Y-61781009D02*
X97162857Y-61828628D01*
X97162857Y-61828628D02*
X96781905Y-61828628D01*
X97734286Y-61400057D02*
X97781905Y-61352438D01*
X97781905Y-61352438D02*
X97877143Y-61304819D01*
X97877143Y-61304819D02*
X98115238Y-61304819D01*
X98115238Y-61304819D02*
X98210476Y-61352438D01*
X98210476Y-61352438D02*
X98258095Y-61400057D01*
X98258095Y-61400057D02*
X98305714Y-61495295D01*
X98305714Y-61495295D02*
X98305714Y-61590533D01*
X98305714Y-61590533D02*
X98258095Y-61733390D01*
X98258095Y-61733390D02*
X97686667Y-62304819D01*
X97686667Y-62304819D02*
X98305714Y-62304819D01*
D13*
%TO.C,R4*%
X132292936Y-112005000D02*
X132747064Y-112005000D01*
X132292936Y-113475000D02*
X132747064Y-113475000D01*
%TO.C,R3*%
X132747064Y-108395000D02*
X132292936Y-108395000D01*
X132747064Y-106925000D02*
X132292936Y-106925000D01*
%TO.C,J1*%
X137810000Y-96170000D02*
X139140000Y-96170000D01*
X137810000Y-97500000D02*
X137810000Y-96170000D01*
X137810000Y-98770000D02*
X137810000Y-108990000D01*
X137810000Y-98770000D02*
X140470000Y-98770000D01*
X137810000Y-108990000D02*
X140470000Y-108990000D01*
X140470000Y-98770000D02*
X140470000Y-108990000D01*
%TO.C,C3*%
X108460000Y-88230000D02*
X109460000Y-88230000D01*
X108960000Y-87730000D02*
X108960000Y-88730000D01*
X109700000Y-87444437D02*
X109700000Y-89230000D01*
X109700000Y-87444437D02*
X110764437Y-86380000D01*
X109700000Y-94035563D02*
X109700000Y-92250000D01*
X109700000Y-94035563D02*
X110764437Y-95100000D01*
X110764437Y-86380000D02*
X118420000Y-86380000D01*
X110764437Y-95100000D02*
X118420000Y-95100000D01*
X118420000Y-86380000D02*
X118420000Y-89230000D01*
X118420000Y-95100000D02*
X118420000Y-92250000D01*
%TO.C,R5*%
X132292936Y-101845000D02*
X132747064Y-101845000D01*
X132292936Y-103315000D02*
X132747064Y-103315000D01*
%TO.C,C4*%
X108460000Y-112230000D02*
X109460000Y-112230000D01*
X108960000Y-111730000D02*
X108960000Y-112730000D01*
X109700000Y-111444437D02*
X109700000Y-113230000D01*
X109700000Y-111444437D02*
X110764437Y-110380000D01*
X109700000Y-118035563D02*
X109700000Y-116250000D01*
X109700000Y-118035563D02*
X110764437Y-119100000D01*
X110764437Y-110380000D02*
X118420000Y-110380000D01*
X110764437Y-119100000D02*
X118420000Y-119100000D01*
X118420000Y-110380000D02*
X118420000Y-113230000D01*
X118420000Y-119100000D02*
X118420000Y-116250000D01*
D12*
%TO.C,U1*%
X122810000Y-100015000D02*
X127310000Y-100015000D01*
X122810000Y-105465000D02*
X127310000Y-105465000D01*
D13*
X122260000Y-99990000D02*
X122020000Y-99660000D01*
X122500000Y-99660000D01*
X122260000Y-99990000D01*
G36*
X122260000Y-99990000D02*
G01*
X122020000Y-99660000D01*
X122500000Y-99660000D01*
X122260000Y-99990000D01*
G37*
%TO.C,L1*%
X119990000Y-109390000D02*
X107490000Y-109390000D01*
X119990000Y-96090000D02*
X119990000Y-109390000D01*
X107490000Y-109390000D02*
X107490000Y-96090000D01*
X107490000Y-96090000D02*
X119990000Y-96090000D01*
%TO.C,C1*%
X124676248Y-109465000D02*
X125198752Y-109465000D01*
X124676248Y-110935000D02*
X125198752Y-110935000D01*
%TO.C,R1*%
X132747064Y-93155000D02*
X132292936Y-93155000D01*
X132747064Y-91685000D02*
X132292936Y-91685000D01*
%TO.C,R2*%
X132292936Y-96765000D02*
X132747064Y-96765000D01*
X132292936Y-98235000D02*
X132747064Y-98235000D01*
%TO.C,C2*%
X124676248Y-96765000D02*
X125198752Y-96765000D01*
X124676248Y-98235000D02*
X125198752Y-98235000D01*
%TO.C,R4*%
X97292936Y-112005000D02*
X97747064Y-112005000D01*
X97292936Y-113475000D02*
X97747064Y-113475000D01*
%TO.C,R3*%
X97747064Y-108395000D02*
X97292936Y-108395000D01*
X97747064Y-106925000D02*
X97292936Y-106925000D01*
%TO.C,J1*%
X102810000Y-96170000D02*
X104140000Y-96170000D01*
X102810000Y-97500000D02*
X102810000Y-96170000D01*
X102810000Y-98770000D02*
X102810000Y-108990000D01*
X102810000Y-98770000D02*
X105470000Y-98770000D01*
X102810000Y-108990000D02*
X105470000Y-108990000D01*
X105470000Y-98770000D02*
X105470000Y-108990000D01*
%TO.C,C3*%
X73460000Y-88230000D02*
X74460000Y-88230000D01*
X73960000Y-87730000D02*
X73960000Y-88730000D01*
X74700000Y-87444437D02*
X74700000Y-89230000D01*
X74700000Y-87444437D02*
X75764437Y-86380000D01*
X74700000Y-94035563D02*
X74700000Y-92250000D01*
X74700000Y-94035563D02*
X75764437Y-95100000D01*
X75764437Y-86380000D02*
X83420000Y-86380000D01*
X75764437Y-95100000D02*
X83420000Y-95100000D01*
X83420000Y-86380000D02*
X83420000Y-89230000D01*
X83420000Y-95100000D02*
X83420000Y-92250000D01*
%TO.C,R5*%
X97292936Y-101845000D02*
X97747064Y-101845000D01*
X97292936Y-103315000D02*
X97747064Y-103315000D01*
%TO.C,C4*%
X73460000Y-112230000D02*
X74460000Y-112230000D01*
X73960000Y-111730000D02*
X73960000Y-112730000D01*
X74700000Y-111444437D02*
X74700000Y-113230000D01*
X74700000Y-111444437D02*
X75764437Y-110380000D01*
X74700000Y-118035563D02*
X74700000Y-116250000D01*
X74700000Y-118035563D02*
X75764437Y-119100000D01*
X75764437Y-110380000D02*
X83420000Y-110380000D01*
X75764437Y-119100000D02*
X83420000Y-119100000D01*
X83420000Y-110380000D02*
X83420000Y-113230000D01*
X83420000Y-119100000D02*
X83420000Y-116250000D01*
D12*
%TO.C,U1*%
X87810000Y-100015000D02*
X92310000Y-100015000D01*
X87810000Y-105465000D02*
X92310000Y-105465000D01*
D13*
X87260000Y-99990000D02*
X87020000Y-99660000D01*
X87500000Y-99660000D01*
X87260000Y-99990000D01*
G36*
X87260000Y-99990000D02*
G01*
X87020000Y-99660000D01*
X87500000Y-99660000D01*
X87260000Y-99990000D01*
G37*
%TO.C,L1*%
X84990000Y-109390000D02*
X72490000Y-109390000D01*
X84990000Y-96090000D02*
X84990000Y-109390000D01*
X72490000Y-109390000D02*
X72490000Y-96090000D01*
X72490000Y-96090000D02*
X84990000Y-96090000D01*
%TO.C,C1*%
X89676248Y-109465000D02*
X90198752Y-109465000D01*
X89676248Y-110935000D02*
X90198752Y-110935000D01*
%TO.C,R1*%
X97747064Y-93155000D02*
X97292936Y-93155000D01*
X97747064Y-91685000D02*
X97292936Y-91685000D01*
%TO.C,R2*%
X97292936Y-96765000D02*
X97747064Y-96765000D01*
X97292936Y-98235000D02*
X97747064Y-98235000D01*
%TO.C,C2*%
X89676248Y-96765000D02*
X90198752Y-96765000D01*
X89676248Y-98235000D02*
X90198752Y-98235000D01*
%TO.C,R4*%
X132292936Y-78005000D02*
X132747064Y-78005000D01*
X132292936Y-79475000D02*
X132747064Y-79475000D01*
%TO.C,R3*%
X132747064Y-74395000D02*
X132292936Y-74395000D01*
X132747064Y-72925000D02*
X132292936Y-72925000D01*
%TO.C,J1*%
X137810000Y-62170000D02*
X139140000Y-62170000D01*
X137810000Y-63500000D02*
X137810000Y-62170000D01*
X137810000Y-64770000D02*
X137810000Y-74990000D01*
X137810000Y-64770000D02*
X140470000Y-64770000D01*
X137810000Y-74990000D02*
X140470000Y-74990000D01*
X140470000Y-64770000D02*
X140470000Y-74990000D01*
%TO.C,C3*%
X108460000Y-54230000D02*
X109460000Y-54230000D01*
X108960000Y-53730000D02*
X108960000Y-54730000D01*
X109700000Y-53444437D02*
X109700000Y-55230000D01*
X109700000Y-53444437D02*
X110764437Y-52380000D01*
X109700000Y-60035563D02*
X109700000Y-58250000D01*
X109700000Y-60035563D02*
X110764437Y-61100000D01*
X110764437Y-52380000D02*
X118420000Y-52380000D01*
X110764437Y-61100000D02*
X118420000Y-61100000D01*
X118420000Y-52380000D02*
X118420000Y-55230000D01*
X118420000Y-61100000D02*
X118420000Y-58250000D01*
%TO.C,R5*%
X132292936Y-67845000D02*
X132747064Y-67845000D01*
X132292936Y-69315000D02*
X132747064Y-69315000D01*
%TO.C,C4*%
X108460000Y-78230000D02*
X109460000Y-78230000D01*
X108960000Y-77730000D02*
X108960000Y-78730000D01*
X109700000Y-77444437D02*
X109700000Y-79230000D01*
X109700000Y-77444437D02*
X110764437Y-76380000D01*
X109700000Y-84035563D02*
X109700000Y-82250000D01*
X109700000Y-84035563D02*
X110764437Y-85100000D01*
X110764437Y-76380000D02*
X118420000Y-76380000D01*
X110764437Y-85100000D02*
X118420000Y-85100000D01*
X118420000Y-76380000D02*
X118420000Y-79230000D01*
X118420000Y-85100000D02*
X118420000Y-82250000D01*
D12*
%TO.C,U1*%
X122810000Y-66015000D02*
X127310000Y-66015000D01*
X122810000Y-71465000D02*
X127310000Y-71465000D01*
D13*
X122260000Y-65990000D02*
X122020000Y-65660000D01*
X122500000Y-65660000D01*
X122260000Y-65990000D01*
G36*
X122260000Y-65990000D02*
G01*
X122020000Y-65660000D01*
X122500000Y-65660000D01*
X122260000Y-65990000D01*
G37*
%TO.C,L1*%
X119990000Y-75390000D02*
X107490000Y-75390000D01*
X119990000Y-62090000D02*
X119990000Y-75390000D01*
X107490000Y-75390000D02*
X107490000Y-62090000D01*
X107490000Y-62090000D02*
X119990000Y-62090000D01*
%TO.C,C1*%
X124676248Y-75465000D02*
X125198752Y-75465000D01*
X124676248Y-76935000D02*
X125198752Y-76935000D01*
%TO.C,R1*%
X132747064Y-59155000D02*
X132292936Y-59155000D01*
X132747064Y-57685000D02*
X132292936Y-57685000D01*
%TO.C,R2*%
X132292936Y-62765000D02*
X132747064Y-62765000D01*
X132292936Y-64235000D02*
X132747064Y-64235000D01*
%TO.C,C2*%
X124676248Y-62765000D02*
X125198752Y-62765000D01*
X124676248Y-64235000D02*
X125198752Y-64235000D01*
D12*
%TO.C,U1*%
X87810000Y-66015000D02*
X92310000Y-66015000D01*
X87810000Y-71465000D02*
X92310000Y-71465000D01*
D13*
X87260000Y-65990000D02*
X87020000Y-65660000D01*
X87500000Y-65660000D01*
X87260000Y-65990000D01*
G36*
X87260000Y-65990000D02*
G01*
X87020000Y-65660000D01*
X87500000Y-65660000D01*
X87260000Y-65990000D01*
G37*
%TO.C,C4*%
X73460000Y-78230000D02*
X74460000Y-78230000D01*
X73960000Y-77730000D02*
X73960000Y-78730000D01*
X74700000Y-77444437D02*
X74700000Y-79230000D01*
X74700000Y-77444437D02*
X75764437Y-76380000D01*
X74700000Y-84035563D02*
X74700000Y-82250000D01*
X74700000Y-84035563D02*
X75764437Y-85100000D01*
X75764437Y-76380000D02*
X83420000Y-76380000D01*
X75764437Y-85100000D02*
X83420000Y-85100000D01*
X83420000Y-76380000D02*
X83420000Y-79230000D01*
X83420000Y-85100000D02*
X83420000Y-82250000D01*
%TO.C,R3*%
X97747064Y-74395000D02*
X97292936Y-74395000D01*
X97747064Y-72925000D02*
X97292936Y-72925000D01*
%TO.C,C1*%
X89676248Y-75465000D02*
X90198752Y-75465000D01*
X89676248Y-76935000D02*
X90198752Y-76935000D01*
%TO.C,L1*%
X84990000Y-75390000D02*
X72490000Y-75390000D01*
X84990000Y-62090000D02*
X84990000Y-75390000D01*
X72490000Y-75390000D02*
X72490000Y-62090000D01*
X72490000Y-62090000D02*
X84990000Y-62090000D01*
%TO.C,R1*%
X97747064Y-59155000D02*
X97292936Y-59155000D01*
X97747064Y-57685000D02*
X97292936Y-57685000D01*
%TO.C,R5*%
X97292936Y-67845000D02*
X97747064Y-67845000D01*
X97292936Y-69315000D02*
X97747064Y-69315000D01*
%TO.C,C3*%
X73460000Y-54230000D02*
X74460000Y-54230000D01*
X73960000Y-53730000D02*
X73960000Y-54730000D01*
X74700000Y-53444437D02*
X74700000Y-55230000D01*
X74700000Y-53444437D02*
X75764437Y-52380000D01*
X74700000Y-60035563D02*
X74700000Y-58250000D01*
X74700000Y-60035563D02*
X75764437Y-61100000D01*
X75764437Y-52380000D02*
X83420000Y-52380000D01*
X75764437Y-61100000D02*
X83420000Y-61100000D01*
X83420000Y-52380000D02*
X83420000Y-55230000D01*
X83420000Y-61100000D02*
X83420000Y-58250000D01*
%TO.C,R4*%
X97292936Y-78005000D02*
X97747064Y-78005000D01*
X97292936Y-79475000D02*
X97747064Y-79475000D01*
%TO.C,J1*%
X102810000Y-62170000D02*
X104140000Y-62170000D01*
X102810000Y-63500000D02*
X102810000Y-62170000D01*
X102810000Y-64770000D02*
X102810000Y-74990000D01*
X102810000Y-64770000D02*
X105470000Y-64770000D01*
X102810000Y-74990000D02*
X105470000Y-74990000D01*
X105470000Y-64770000D02*
X105470000Y-74990000D01*
%TO.C,C2*%
X89676248Y-62765000D02*
X90198752Y-62765000D01*
X89676248Y-64235000D02*
X90198752Y-64235000D01*
%TO.C,R2*%
X97292936Y-62765000D02*
X97747064Y-62765000D01*
X97292936Y-64235000D02*
X97747064Y-64235000D01*
%TD*%
M02*
