M48
; DRILL file {KiCad 7.0.11+dfsg-1build4} date vie 16 ene 2026 21:08:36
; FORMAT={-:-/ absolute / metric / decimal}
; #@! TF.CreationDate,2026-01-16T21:08:36-05:00
; #@! TF.GenerationSoftware,Kicad,Pcbnew,7.0.11+dfsg-1build4
; #@! TF.FileFunction,Plated,1,2,PTH
FMAT,2
METRIC
; #@! TA.AperFunction,Plated,PTH,ViaDrill
T1C0.300
; #@! TA.AperFunction,Plated,PTH,ComponentDrill
T2C1.000
%
G90
G05
T1
X88.049Y-73.06
X88.049Y-107.06
X88.9Y-57.967
X88.9Y-91.967
X90.351Y-74.957
X90.351Y-108.957
X93.96Y-78.715
X93.96Y-112.715
X94.839Y-71.233
X94.839Y-105.233
X99.06Y-66.04
X99.06Y-100.04
X101.6Y-63.5
X101.6Y-97.5
X123.049Y-73.06
X123.049Y-107.06
X123.9Y-57.967
X123.9Y-91.967
X125.351Y-74.957
X125.351Y-108.957
X128.96Y-78.715
X128.96Y-112.715
X129.839Y-71.233
X129.839Y-105.233
X134.06Y-66.04
X134.06Y-100.04
X136.6Y-63.5
X136.6Y-97.5
T2
X104.14Y-63.5
X104.14Y-66.04
X104.14Y-68.58
X104.14Y-71.12
X104.14Y-73.66
X104.14Y-97.5
X104.14Y-100.04
X104.14Y-102.58
X104.14Y-105.12
X104.14Y-107.66
X139.14Y-63.5
X139.14Y-66.04
X139.14Y-68.58
X139.14Y-71.12
X139.14Y-73.66
X139.14Y-97.5
X139.14Y-100.04
X139.14Y-102.58
X139.14Y-105.12
X139.14Y-107.66
M30
